<?xml version="1.0" encoding="utf-8" standalone="no"?>
<!DOCTYPE svg PUBLIC "-//W3C//DTD SVG 1.1//EN"
  "http://www.w3.org/Graphics/SVG/1.1/DTD/svg11.dtd">
<!-- Created with matplotlib (https://matplotlib.org/) -->
<svg height="697.68pt" version="1.1" viewBox="0 0 1382.4 697.68" width="1382.4pt" xmlns="http://www.w3.org/2000/svg" xmlns:xlink="http://www.w3.org/1999/xlink">
 <defs>
  <style type="text/css">
*{stroke-linecap:butt;stroke-linejoin:round;}
  </style>
 </defs>
 <g id="figure_1">
  <g id="patch_1">
   <path d="M 0 697.68 
L 1382.4 697.68 
L 1382.4 0 
L 0 0 
z
" style="fill:#ffffff;"/>
  </g>
  <g id="axes_1">
   <g id="patch_2">
    <path d="M 172.8 620.9352 
L 1244.16 620.9352 
L 1244.16 83.7216 
L 172.8 83.7216 
z
" style="fill:#ffffff;"/>
   </g>
   <g id="matplotlib.axis_1">
    <g id="xtick_1">
     <g id="line2d_1">
      <defs>
       <path d="M 0 0 
L 0 3.5 
" id="m8c31dc8a28" style="stroke:#000000;stroke-width:0.8;"/>
      </defs>
      <g>
       <use style="stroke:#000000;stroke-width:0.8;" x="221.498182" xlink:href="#m8c31dc8a28" y="620.9352"/>
      </g>
     </g>
     <g id="text_1">
      <!-- 2018-01 -->
      <defs>
       <path d="M 19.1875 8.296875 
L 53.609375 8.296875 
L 53.609375 0 
L 7.328125 0 
L 7.328125 8.296875 
Q 12.9375 14.109375 22.625 23.890625 
Q 32.328125 33.6875 34.8125 36.53125 
Q 39.546875 41.84375 41.421875 45.53125 
Q 43.3125 49.21875 43.3125 52.78125 
Q 43.3125 58.59375 39.234375 62.25 
Q 35.15625 65.921875 28.609375 65.921875 
Q 23.96875 65.921875 18.8125 64.3125 
Q 13.671875 62.703125 7.8125 59.421875 
L 7.8125 69.390625 
Q 13.765625 71.78125 18.9375 73 
Q 24.125 74.21875 28.421875 74.21875 
Q 39.75 74.21875 46.484375 68.546875 
Q 53.21875 62.890625 53.21875 53.421875 
Q 53.21875 48.921875 51.53125 44.890625 
Q 49.859375 40.875 45.40625 35.40625 
Q 44.1875 33.984375 37.640625 27.21875 
Q 31.109375 20.453125 19.1875 8.296875 
z
" id="DejaVuSans-50"/>
       <path d="M 31.78125 66.40625 
Q 24.171875 66.40625 20.328125 58.90625 
Q 16.5 51.421875 16.5 36.375 
Q 16.5 21.390625 20.328125 13.890625 
Q 24.171875 6.390625 31.78125 6.390625 
Q 39.453125 6.390625 43.28125 13.890625 
Q 47.125 21.390625 47.125 36.375 
Q 47.125 51.421875 43.28125 58.90625 
Q 39.453125 66.40625 31.78125 66.40625 
z
M 31.78125 74.21875 
Q 44.046875 74.21875 50.515625 64.515625 
Q 56.984375 54.828125 56.984375 36.375 
Q 56.984375 17.96875 50.515625 8.265625 
Q 44.046875 -1.421875 31.78125 -1.421875 
Q 19.53125 -1.421875 13.0625 8.265625 
Q 6.59375 17.96875 6.59375 36.375 
Q 6.59375 54.828125 13.0625 64.515625 
Q 19.53125 74.21875 31.78125 74.21875 
z
" id="DejaVuSans-48"/>
       <path d="M 12.40625 8.296875 
L 28.515625 8.296875 
L 28.515625 63.921875 
L 10.984375 60.40625 
L 10.984375 69.390625 
L 28.421875 72.90625 
L 38.28125 72.90625 
L 38.28125 8.296875 
L 54.390625 8.296875 
L 54.390625 0 
L 12.40625 0 
z
" id="DejaVuSans-49"/>
       <path d="M 31.78125 34.625 
Q 24.75 34.625 20.71875 30.859375 
Q 16.703125 27.09375 16.703125 20.515625 
Q 16.703125 13.921875 20.71875 10.15625 
Q 24.75 6.390625 31.78125 6.390625 
Q 38.8125 6.390625 42.859375 10.171875 
Q 46.921875 13.96875 46.921875 20.515625 
Q 46.921875 27.09375 42.890625 30.859375 
Q 38.875 34.625 31.78125 34.625 
z
M 21.921875 38.8125 
Q 15.578125 40.375 12.03125 44.71875 
Q 8.5 49.078125 8.5 55.328125 
Q 8.5 64.0625 14.71875 69.140625 
Q 20.953125 74.21875 31.78125 74.21875 
Q 42.671875 74.21875 48.875 69.140625 
Q 55.078125 64.0625 55.078125 55.328125 
Q 55.078125 49.078125 51.53125 44.71875 
Q 48 40.375 41.703125 38.8125 
Q 48.828125 37.15625 52.796875 32.3125 
Q 56.78125 27.484375 56.78125 20.515625 
Q 56.78125 9.90625 50.3125 4.234375 
Q 43.84375 -1.421875 31.78125 -1.421875 
Q 19.734375 -1.421875 13.25 4.234375 
Q 6.78125 9.90625 6.78125 20.515625 
Q 6.78125 27.484375 10.78125 32.3125 
Q 14.796875 37.15625 21.921875 38.8125 
z
M 18.3125 54.390625 
Q 18.3125 48.734375 21.84375 45.5625 
Q 25.390625 42.390625 31.78125 42.390625 
Q 38.140625 42.390625 41.71875 45.5625 
Q 45.3125 48.734375 45.3125 54.390625 
Q 45.3125 60.0625 41.71875 63.234375 
Q 38.140625 66.40625 31.78125 66.40625 
Q 25.390625 66.40625 21.84375 63.234375 
Q 18.3125 60.0625 18.3125 54.390625 
z
" id="DejaVuSans-56"/>
       <path d="M 4.890625 31.390625 
L 31.203125 31.390625 
L 31.203125 23.390625 
L 4.890625 23.390625 
z
" id="DejaVuSans-45"/>
      </defs>
      <g transform="translate(200.606776 635.533637)scale(0.1 -0.1)">
       <use xlink:href="#DejaVuSans-50"/>
       <use x="63.623047" xlink:href="#DejaVuSans-48"/>
       <use x="127.246094" xlink:href="#DejaVuSans-49"/>
       <use x="190.869141" xlink:href="#DejaVuSans-56"/>
       <use x="254.492188" xlink:href="#DejaVuSans-45"/>
       <use x="290.576172" xlink:href="#DejaVuSans-48"/>
       <use x="354.199219" xlink:href="#DejaVuSans-49"/>
      </g>
     </g>
    </g>
    <g id="xtick_2">
     <g id="line2d_2">
      <g>
       <use style="stroke:#000000;stroke-width:0.8;" x="316.146686" xlink:href="#m8c31dc8a28" y="620.9352"/>
      </g>
     </g>
     <g id="text_2">
      <!-- 2018-02 -->
      <g transform="translate(295.255279 635.533637)scale(0.1 -0.1)">
       <use xlink:href="#DejaVuSans-50"/>
       <use x="63.623047" xlink:href="#DejaVuSans-48"/>
       <use x="127.246094" xlink:href="#DejaVuSans-49"/>
       <use x="190.869141" xlink:href="#DejaVuSans-56"/>
       <use x="254.492188" xlink:href="#DejaVuSans-45"/>
       <use x="290.576172" xlink:href="#DejaVuSans-48"/>
       <use x="354.199219" xlink:href="#DejaVuSans-50"/>
      </g>
     </g>
    </g>
    <g id="xtick_3">
     <g id="line2d_3">
      <g>
       <use style="stroke:#000000;stroke-width:0.8;" x="401.635657" xlink:href="#m8c31dc8a28" y="620.9352"/>
      </g>
     </g>
     <g id="text_3">
      <!-- 2018-03 -->
      <defs>
       <path d="M 40.578125 39.3125 
Q 47.65625 37.796875 51.625 33 
Q 55.609375 28.21875 55.609375 21.1875 
Q 55.609375 10.40625 48.1875 4.484375 
Q 40.765625 -1.421875 27.09375 -1.421875 
Q 22.515625 -1.421875 17.65625 -0.515625 
Q 12.796875 0.390625 7.625 2.203125 
L 7.625 11.71875 
Q 11.71875 9.328125 16.59375 8.109375 
Q 21.484375 6.890625 26.8125 6.890625 
Q 36.078125 6.890625 40.9375 10.546875 
Q 45.796875 14.203125 45.796875 21.1875 
Q 45.796875 27.640625 41.28125 31.265625 
Q 36.765625 34.90625 28.71875 34.90625 
L 20.21875 34.90625 
L 20.21875 43.015625 
L 29.109375 43.015625 
Q 36.375 43.015625 40.234375 45.921875 
Q 44.09375 48.828125 44.09375 54.296875 
Q 44.09375 59.90625 40.109375 62.90625 
Q 36.140625 65.921875 28.71875 65.921875 
Q 24.65625 65.921875 20.015625 65.03125 
Q 15.375 64.15625 9.8125 62.3125 
L 9.8125 71.09375 
Q 15.4375 72.65625 20.34375 73.4375 
Q 25.25 74.21875 29.59375 74.21875 
Q 40.828125 74.21875 47.359375 69.109375 
Q 53.90625 64.015625 53.90625 55.328125 
Q 53.90625 49.265625 50.4375 45.09375 
Q 46.96875 40.921875 40.578125 39.3125 
z
" id="DejaVuSans-51"/>
      </defs>
      <g transform="translate(380.744251 635.533637)scale(0.1 -0.1)">
       <use xlink:href="#DejaVuSans-50"/>
       <use x="63.623047" xlink:href="#DejaVuSans-48"/>
       <use x="127.246094" xlink:href="#DejaVuSans-49"/>
       <use x="190.869141" xlink:href="#DejaVuSans-56"/>
       <use x="254.492188" xlink:href="#DejaVuSans-45"/>
       <use x="290.576172" xlink:href="#DejaVuSans-48"/>
       <use x="354.199219" xlink:href="#DejaVuSans-51"/>
      </g>
     </g>
    </g>
    <g id="xtick_4">
     <g id="line2d_4">
      <g>
       <use style="stroke:#000000;stroke-width:0.8;" x="496.284161" xlink:href="#m8c31dc8a28" y="620.9352"/>
      </g>
     </g>
     <g id="text_4">
      <!-- 2018-04 -->
      <defs>
       <path d="M 37.796875 64.3125 
L 12.890625 25.390625 
L 37.796875 25.390625 
z
M 35.203125 72.90625 
L 47.609375 72.90625 
L 47.609375 25.390625 
L 58.015625 25.390625 
L 58.015625 17.1875 
L 47.609375 17.1875 
L 47.609375 0 
L 37.796875 0 
L 37.796875 17.1875 
L 4.890625 17.1875 
L 4.890625 26.703125 
z
" id="DejaVuSans-52"/>
      </defs>
      <g transform="translate(475.392754 635.533637)scale(0.1 -0.1)">
       <use xlink:href="#DejaVuSans-50"/>
       <use x="63.623047" xlink:href="#DejaVuSans-48"/>
       <use x="127.246094" xlink:href="#DejaVuSans-49"/>
       <use x="190.869141" xlink:href="#DejaVuSans-56"/>
       <use x="254.492188" xlink:href="#DejaVuSans-45"/>
       <use x="290.576172" xlink:href="#DejaVuSans-48"/>
       <use x="354.199219" xlink:href="#DejaVuSans-52"/>
      </g>
     </g>
    </g>
    <g id="xtick_5">
     <g id="line2d_5">
      <g>
       <use style="stroke:#000000;stroke-width:0.8;" x="587.879487" xlink:href="#m8c31dc8a28" y="620.9352"/>
      </g>
     </g>
     <g id="text_5">
      <!-- 2018-05 -->
      <defs>
       <path d="M 10.796875 72.90625 
L 49.515625 72.90625 
L 49.515625 64.59375 
L 19.828125 64.59375 
L 19.828125 46.734375 
Q 21.96875 47.46875 24.109375 47.828125 
Q 26.265625 48.1875 28.421875 48.1875 
Q 40.625 48.1875 47.75 41.5 
Q 54.890625 34.8125 54.890625 23.390625 
Q 54.890625 11.625 47.5625 5.09375 
Q 40.234375 -1.421875 26.90625 -1.421875 
Q 22.3125 -1.421875 17.546875 -0.640625 
Q 12.796875 0.140625 7.71875 1.703125 
L 7.71875 11.625 
Q 12.109375 9.234375 16.796875 8.0625 
Q 21.484375 6.890625 26.703125 6.890625 
Q 35.15625 6.890625 40.078125 11.328125 
Q 45.015625 15.765625 45.015625 23.390625 
Q 45.015625 31 40.078125 35.4375 
Q 35.15625 39.890625 26.703125 39.890625 
Q 22.75 39.890625 18.8125 39.015625 
Q 14.890625 38.140625 10.796875 36.28125 
z
" id="DejaVuSans-53"/>
      </defs>
      <g transform="translate(566.988081 635.533637)scale(0.1 -0.1)">
       <use xlink:href="#DejaVuSans-50"/>
       <use x="63.623047" xlink:href="#DejaVuSans-48"/>
       <use x="127.246094" xlink:href="#DejaVuSans-49"/>
       <use x="190.869141" xlink:href="#DejaVuSans-56"/>
       <use x="254.492188" xlink:href="#DejaVuSans-45"/>
       <use x="290.576172" xlink:href="#DejaVuSans-48"/>
       <use x="354.199219" xlink:href="#DejaVuSans-53"/>
      </g>
     </g>
    </g>
    <g id="xtick_6">
     <g id="line2d_6">
      <g>
       <use style="stroke:#000000;stroke-width:0.8;" x="682.527991" xlink:href="#m8c31dc8a28" y="620.9352"/>
      </g>
     </g>
     <g id="text_6">
      <!-- 2018-06 -->
      <defs>
       <path d="M 33.015625 40.375 
Q 26.375 40.375 22.484375 35.828125 
Q 18.609375 31.296875 18.609375 23.390625 
Q 18.609375 15.53125 22.484375 10.953125 
Q 26.375 6.390625 33.015625 6.390625 
Q 39.65625 6.390625 43.53125 10.953125 
Q 47.40625 15.53125 47.40625 23.390625 
Q 47.40625 31.296875 43.53125 35.828125 
Q 39.65625 40.375 33.015625 40.375 
z
M 52.59375 71.296875 
L 52.59375 62.3125 
Q 48.875 64.0625 45.09375 64.984375 
Q 41.3125 65.921875 37.59375 65.921875 
Q 27.828125 65.921875 22.671875 59.328125 
Q 17.53125 52.734375 16.796875 39.40625 
Q 19.671875 43.65625 24.015625 45.921875 
Q 28.375 48.1875 33.59375 48.1875 
Q 44.578125 48.1875 50.953125 41.515625 
Q 57.328125 34.859375 57.328125 23.390625 
Q 57.328125 12.15625 50.6875 5.359375 
Q 44.046875 -1.421875 33.015625 -1.421875 
Q 20.359375 -1.421875 13.671875 8.265625 
Q 6.984375 17.96875 6.984375 36.375 
Q 6.984375 53.65625 15.1875 63.9375 
Q 23.390625 74.21875 37.203125 74.21875 
Q 40.921875 74.21875 44.703125 73.484375 
Q 48.484375 72.75 52.59375 71.296875 
z
" id="DejaVuSans-54"/>
      </defs>
      <g transform="translate(661.636585 635.533637)scale(0.1 -0.1)">
       <use xlink:href="#DejaVuSans-50"/>
       <use x="63.623047" xlink:href="#DejaVuSans-48"/>
       <use x="127.246094" xlink:href="#DejaVuSans-49"/>
       <use x="190.869141" xlink:href="#DejaVuSans-56"/>
       <use x="254.492188" xlink:href="#DejaVuSans-45"/>
       <use x="290.576172" xlink:href="#DejaVuSans-48"/>
       <use x="354.199219" xlink:href="#DejaVuSans-54"/>
      </g>
     </g>
    </g>
    <g id="xtick_7">
     <g id="line2d_7">
      <g>
       <use style="stroke:#000000;stroke-width:0.8;" x="774.123317" xlink:href="#m8c31dc8a28" y="620.9352"/>
      </g>
     </g>
     <g id="text_7">
      <!-- 2018-07 -->
      <defs>
       <path d="M 8.203125 72.90625 
L 55.078125 72.90625 
L 55.078125 68.703125 
L 28.609375 0 
L 18.3125 0 
L 43.21875 64.59375 
L 8.203125 64.59375 
z
" id="DejaVuSans-55"/>
      </defs>
      <g transform="translate(753.231911 635.533637)scale(0.1 -0.1)">
       <use xlink:href="#DejaVuSans-50"/>
       <use x="63.623047" xlink:href="#DejaVuSans-48"/>
       <use x="127.246094" xlink:href="#DejaVuSans-49"/>
       <use x="190.869141" xlink:href="#DejaVuSans-56"/>
       <use x="254.492188" xlink:href="#DejaVuSans-45"/>
       <use x="290.576172" xlink:href="#DejaVuSans-48"/>
       <use x="354.199219" xlink:href="#DejaVuSans-55"/>
      </g>
     </g>
    </g>
    <g id="xtick_8">
     <g id="line2d_8">
      <g>
       <use style="stroke:#000000;stroke-width:0.8;" x="868.771821" xlink:href="#m8c31dc8a28" y="620.9352"/>
      </g>
     </g>
     <g id="text_8">
      <!-- 2018-08 -->
      <g transform="translate(847.880415 635.533637)scale(0.1 -0.1)">
       <use xlink:href="#DejaVuSans-50"/>
       <use x="63.623047" xlink:href="#DejaVuSans-48"/>
       <use x="127.246094" xlink:href="#DejaVuSans-49"/>
       <use x="190.869141" xlink:href="#DejaVuSans-56"/>
       <use x="254.492188" xlink:href="#DejaVuSans-45"/>
       <use x="290.576172" xlink:href="#DejaVuSans-48"/>
       <use x="354.199219" xlink:href="#DejaVuSans-56"/>
      </g>
     </g>
    </g>
    <g id="xtick_9">
     <g id="line2d_9">
      <g>
       <use style="stroke:#000000;stroke-width:0.8;" x="963.420325" xlink:href="#m8c31dc8a28" y="620.9352"/>
      </g>
     </g>
     <g id="text_9">
      <!-- 2018-09 -->
      <defs>
       <path d="M 10.984375 1.515625 
L 10.984375 10.5 
Q 14.703125 8.734375 18.5 7.8125 
Q 22.3125 6.890625 25.984375 6.890625 
Q 35.75 6.890625 40.890625 13.453125 
Q 46.046875 20.015625 46.78125 33.40625 
Q 43.953125 29.203125 39.59375 26.953125 
Q 35.25 24.703125 29.984375 24.703125 
Q 19.046875 24.703125 12.671875 31.3125 
Q 6.296875 37.9375 6.296875 49.421875 
Q 6.296875 60.640625 12.9375 67.421875 
Q 19.578125 74.21875 30.609375 74.21875 
Q 43.265625 74.21875 49.921875 64.515625 
Q 56.59375 54.828125 56.59375 36.375 
Q 56.59375 19.140625 48.40625 8.859375 
Q 40.234375 -1.421875 26.421875 -1.421875 
Q 22.703125 -1.421875 18.890625 -0.6875 
Q 15.09375 0.046875 10.984375 1.515625 
z
M 30.609375 32.421875 
Q 37.25 32.421875 41.125 36.953125 
Q 45.015625 41.5 45.015625 49.421875 
Q 45.015625 57.28125 41.125 61.84375 
Q 37.25 66.40625 30.609375 66.40625 
Q 23.96875 66.40625 20.09375 61.84375 
Q 16.21875 57.28125 16.21875 49.421875 
Q 16.21875 41.5 20.09375 36.953125 
Q 23.96875 32.421875 30.609375 32.421875 
z
" id="DejaVuSans-57"/>
      </defs>
      <g transform="translate(942.528919 635.533637)scale(0.1 -0.1)">
       <use xlink:href="#DejaVuSans-50"/>
       <use x="63.623047" xlink:href="#DejaVuSans-48"/>
       <use x="127.246094" xlink:href="#DejaVuSans-49"/>
       <use x="190.869141" xlink:href="#DejaVuSans-56"/>
       <use x="254.492188" xlink:href="#DejaVuSans-45"/>
       <use x="290.576172" xlink:href="#DejaVuSans-48"/>
       <use x="354.199219" xlink:href="#DejaVuSans-57"/>
      </g>
     </g>
    </g>
    <g id="xtick_10">
     <g id="line2d_10">
      <g>
       <use style="stroke:#000000;stroke-width:0.8;" x="1055.015651" xlink:href="#m8c31dc8a28" y="620.9352"/>
      </g>
     </g>
     <g id="text_10">
      <!-- 2018-10 -->
      <g transform="translate(1034.124245 635.533637)scale(0.1 -0.1)">
       <use xlink:href="#DejaVuSans-50"/>
       <use x="63.623047" xlink:href="#DejaVuSans-48"/>
       <use x="127.246094" xlink:href="#DejaVuSans-49"/>
       <use x="190.869141" xlink:href="#DejaVuSans-56"/>
       <use x="254.492188" xlink:href="#DejaVuSans-45"/>
       <use x="290.576172" xlink:href="#DejaVuSans-49"/>
       <use x="354.199219" xlink:href="#DejaVuSans-48"/>
      </g>
     </g>
    </g>
    <g id="xtick_11">
     <g id="line2d_11">
      <g>
       <use style="stroke:#000000;stroke-width:0.8;" x="1149.664155" xlink:href="#m8c31dc8a28" y="620.9352"/>
      </g>
     </g>
     <g id="text_11">
      <!-- 2018-11 -->
      <g transform="translate(1128.772749 635.533637)scale(0.1 -0.1)">
       <use xlink:href="#DejaVuSans-50"/>
       <use x="63.623047" xlink:href="#DejaVuSans-48"/>
       <use x="127.246094" xlink:href="#DejaVuSans-49"/>
       <use x="190.869141" xlink:href="#DejaVuSans-56"/>
       <use x="254.492188" xlink:href="#DejaVuSans-45"/>
       <use x="290.576172" xlink:href="#DejaVuSans-49"/>
       <use x="354.199219" xlink:href="#DejaVuSans-49"/>
      </g>
     </g>
    </g>
    <g id="xtick_12">
     <g id="line2d_12">
      <g>
       <use style="stroke:#000000;stroke-width:0.8;" x="1241.259481" xlink:href="#m8c31dc8a28" y="620.9352"/>
      </g>
     </g>
     <g id="text_12">
      <!-- 2018-12 -->
      <g transform="translate(1220.368075 635.533637)scale(0.1 -0.1)">
       <use xlink:href="#DejaVuSans-50"/>
       <use x="63.623047" xlink:href="#DejaVuSans-48"/>
       <use x="127.246094" xlink:href="#DejaVuSans-49"/>
       <use x="190.869141" xlink:href="#DejaVuSans-56"/>
       <use x="254.492188" xlink:href="#DejaVuSans-45"/>
       <use x="290.576172" xlink:href="#DejaVuSans-49"/>
       <use x="354.199219" xlink:href="#DejaVuSans-50"/>
      </g>
     </g>
    </g>
    <g id="text_13">
     <!-- Dates -->
     <defs>
      <path d="M 19.671875 64.796875 
L 19.671875 8.109375 
L 31.59375 8.109375 
Q 46.6875 8.109375 53.6875 14.9375 
Q 60.6875 21.78125 60.6875 36.53125 
Q 60.6875 51.171875 53.6875 57.984375 
Q 46.6875 64.796875 31.59375 64.796875 
z
M 9.8125 72.90625 
L 30.078125 72.90625 
Q 51.265625 72.90625 61.171875 64.09375 
Q 71.09375 55.28125 71.09375 36.53125 
Q 71.09375 17.671875 61.125 8.828125 
Q 51.171875 0 30.078125 0 
L 9.8125 0 
z
" id="DejaVuSans-68"/>
      <path d="M 34.28125 27.484375 
Q 23.390625 27.484375 19.1875 25 
Q 14.984375 22.515625 14.984375 16.5 
Q 14.984375 11.71875 18.140625 8.90625 
Q 21.296875 6.109375 26.703125 6.109375 
Q 34.1875 6.109375 38.703125 11.40625 
Q 43.21875 16.703125 43.21875 25.484375 
L 43.21875 27.484375 
z
M 52.203125 31.203125 
L 52.203125 0 
L 43.21875 0 
L 43.21875 8.296875 
Q 40.140625 3.328125 35.546875 0.953125 
Q 30.953125 -1.421875 24.3125 -1.421875 
Q 15.921875 -1.421875 10.953125 3.296875 
Q 6 8.015625 6 15.921875 
Q 6 25.140625 12.171875 29.828125 
Q 18.359375 34.515625 30.609375 34.515625 
L 43.21875 34.515625 
L 43.21875 35.40625 
Q 43.21875 41.609375 39.140625 45 
Q 35.0625 48.390625 27.6875 48.390625 
Q 23 48.390625 18.546875 47.265625 
Q 14.109375 46.140625 10.015625 43.890625 
L 10.015625 52.203125 
Q 14.9375 54.109375 19.578125 55.046875 
Q 24.21875 56 28.609375 56 
Q 40.484375 56 46.34375 49.84375 
Q 52.203125 43.703125 52.203125 31.203125 
z
" id="DejaVuSans-97"/>
      <path d="M 18.3125 70.21875 
L 18.3125 54.6875 
L 36.8125 54.6875 
L 36.8125 47.703125 
L 18.3125 47.703125 
L 18.3125 18.015625 
Q 18.3125 11.328125 20.140625 9.421875 
Q 21.96875 7.515625 27.59375 7.515625 
L 36.8125 7.515625 
L 36.8125 0 
L 27.59375 0 
Q 17.1875 0 13.234375 3.875 
Q 9.28125 7.765625 9.28125 18.015625 
L 9.28125 47.703125 
L 2.6875 47.703125 
L 2.6875 54.6875 
L 9.28125 54.6875 
L 9.28125 70.21875 
z
" id="DejaVuSans-116"/>
      <path d="M 56.203125 29.59375 
L 56.203125 25.203125 
L 14.890625 25.203125 
Q 15.484375 15.921875 20.484375 11.0625 
Q 25.484375 6.203125 34.421875 6.203125 
Q 39.59375 6.203125 44.453125 7.46875 
Q 49.3125 8.734375 54.109375 11.28125 
L 54.109375 2.78125 
Q 49.265625 0.734375 44.1875 -0.34375 
Q 39.109375 -1.421875 33.890625 -1.421875 
Q 20.796875 -1.421875 13.15625 6.1875 
Q 5.515625 13.8125 5.515625 26.8125 
Q 5.515625 40.234375 12.765625 48.109375 
Q 20.015625 56 32.328125 56 
Q 43.359375 56 49.78125 48.890625 
Q 56.203125 41.796875 56.203125 29.59375 
z
M 47.21875 32.234375 
Q 47.125 39.59375 43.09375 43.984375 
Q 39.0625 48.390625 32.421875 48.390625 
Q 24.90625 48.390625 20.390625 44.140625 
Q 15.875 39.890625 15.1875 32.171875 
z
" id="DejaVuSans-101"/>
      <path d="M 44.28125 53.078125 
L 44.28125 44.578125 
Q 40.484375 46.53125 36.375 47.5 
Q 32.28125 48.484375 27.875 48.484375 
Q 21.1875 48.484375 17.84375 46.4375 
Q 14.5 44.390625 14.5 40.28125 
Q 14.5 37.15625 16.890625 35.375 
Q 19.28125 33.59375 26.515625 31.984375 
L 29.59375 31.296875 
Q 39.15625 29.25 43.1875 25.515625 
Q 47.21875 21.78125 47.21875 15.09375 
Q 47.21875 7.46875 41.1875 3.015625 
Q 35.15625 -1.421875 24.609375 -1.421875 
Q 20.21875 -1.421875 15.453125 -0.5625 
Q 10.6875 0.296875 5.421875 2 
L 5.421875 11.28125 
Q 10.40625 8.6875 15.234375 7.390625 
Q 20.0625 6.109375 24.8125 6.109375 
Q 31.15625 6.109375 34.5625 8.28125 
Q 37.984375 10.453125 37.984375 14.40625 
Q 37.984375 18.0625 35.515625 20.015625 
Q 33.0625 21.96875 24.703125 23.78125 
L 21.578125 24.515625 
Q 13.234375 26.265625 9.515625 29.90625 
Q 5.8125 33.546875 5.8125 39.890625 
Q 5.8125 47.609375 11.28125 51.796875 
Q 16.75 56 26.8125 56 
Q 31.78125 56 36.171875 55.265625 
Q 40.578125 54.546875 44.28125 53.078125 
z
" id="DejaVuSans-115"/>
     </defs>
     <g transform="translate(693.924531 649.211762)scale(0.1 -0.1)">
      <use xlink:href="#DejaVuSans-68"/>
      <use x="77.001953" xlink:href="#DejaVuSans-97"/>
      <use x="138.28125" xlink:href="#DejaVuSans-116"/>
      <use x="177.490234" xlink:href="#DejaVuSans-101"/>
      <use x="239.013672" xlink:href="#DejaVuSans-115"/>
     </g>
    </g>
   </g>
   <g id="matplotlib.axis_2">
    <g id="ytick_1">
     <g id="line2d_13">
      <defs>
       <path d="M 0 0 
L -3.5 0 
" id="m8a1eaec188" style="stroke:#000000;stroke-width:0.8;"/>
      </defs>
      <g>
       <use style="stroke:#000000;stroke-width:0.8;" x="172.8" xlink:href="#m8a1eaec188" y="558.127858"/>
      </g>
     </g>
     <g id="text_14">
      <!-- 100 -->
      <g transform="translate(146.7125 561.927077)scale(0.1 -0.1)">
       <use xlink:href="#DejaVuSans-49"/>
       <use x="63.623047" xlink:href="#DejaVuSans-48"/>
       <use x="127.246094" xlink:href="#DejaVuSans-48"/>
      </g>
     </g>
    </g>
    <g id="ytick_2">
     <g id="line2d_14">
      <g>
       <use style="stroke:#000000;stroke-width:0.8;" x="172.8" xlink:href="#m8a1eaec188" y="444.38403"/>
      </g>
     </g>
     <g id="text_15">
      <!-- 120 -->
      <g transform="translate(146.7125 448.183249)scale(0.1 -0.1)">
       <use xlink:href="#DejaVuSans-49"/>
       <use x="63.623047" xlink:href="#DejaVuSans-50"/>
       <use x="127.246094" xlink:href="#DejaVuSans-48"/>
      </g>
     </g>
    </g>
    <g id="ytick_3">
     <g id="line2d_15">
      <g>
       <use style="stroke:#000000;stroke-width:0.8;" x="172.8" xlink:href="#m8a1eaec188" y="330.640202"/>
      </g>
     </g>
     <g id="text_16">
      <!-- 140 -->
      <g transform="translate(146.7125 334.439421)scale(0.1 -0.1)">
       <use xlink:href="#DejaVuSans-49"/>
       <use x="63.623047" xlink:href="#DejaVuSans-52"/>
       <use x="127.246094" xlink:href="#DejaVuSans-48"/>
      </g>
     </g>
    </g>
    <g id="ytick_4">
     <g id="line2d_16">
      <g>
       <use style="stroke:#000000;stroke-width:0.8;" x="172.8" xlink:href="#m8a1eaec188" y="216.896374"/>
      </g>
     </g>
     <g id="text_17">
      <!-- 160 -->
      <g transform="translate(146.7125 220.695593)scale(0.1 -0.1)">
       <use xlink:href="#DejaVuSans-49"/>
       <use x="63.623047" xlink:href="#DejaVuSans-54"/>
       <use x="127.246094" xlink:href="#DejaVuSans-48"/>
      </g>
     </g>
    </g>
    <g id="ytick_5">
     <g id="line2d_17">
      <g>
       <use style="stroke:#000000;stroke-width:0.8;" x="172.8" xlink:href="#m8a1eaec188" y="103.152546"/>
      </g>
     </g>
     <g id="text_18">
      <!-- 180 -->
      <g transform="translate(146.7125 106.951765)scale(0.1 -0.1)">
       <use xlink:href="#DejaVuSans-49"/>
       <use x="63.623047" xlink:href="#DejaVuSans-56"/>
       <use x="127.246094" xlink:href="#DejaVuSans-48"/>
      </g>
     </g>
    </g>
    <g id="text_19">
     <!-- Stock closing values -->
     <defs>
      <path d="M 53.515625 70.515625 
L 53.515625 60.890625 
Q 47.90625 63.578125 42.921875 64.890625 
Q 37.9375 66.21875 33.296875 66.21875 
Q 25.25 66.21875 20.875 63.09375 
Q 16.5 59.96875 16.5 54.203125 
Q 16.5 49.359375 19.40625 46.890625 
Q 22.3125 44.4375 30.421875 42.921875 
L 36.375 41.703125 
Q 47.40625 39.59375 52.65625 34.296875 
Q 57.90625 29 57.90625 20.125 
Q 57.90625 9.515625 50.796875 4.046875 
Q 43.703125 -1.421875 29.984375 -1.421875 
Q 24.8125 -1.421875 18.96875 -0.25 
Q 13.140625 0.921875 6.890625 3.21875 
L 6.890625 13.375 
Q 12.890625 10.015625 18.65625 8.296875 
Q 24.421875 6.59375 29.984375 6.59375 
Q 38.421875 6.59375 43.015625 9.90625 
Q 47.609375 13.234375 47.609375 19.390625 
Q 47.609375 24.75 44.3125 27.78125 
Q 41.015625 30.8125 33.5 32.328125 
L 27.484375 33.5 
Q 16.453125 35.6875 11.515625 40.375 
Q 6.59375 45.0625 6.59375 53.421875 
Q 6.59375 63.09375 13.40625 68.65625 
Q 20.21875 74.21875 32.171875 74.21875 
Q 37.3125 74.21875 42.625 73.28125 
Q 47.953125 72.359375 53.515625 70.515625 
z
" id="DejaVuSans-83"/>
      <path d="M 30.609375 48.390625 
Q 23.390625 48.390625 19.1875 42.75 
Q 14.984375 37.109375 14.984375 27.296875 
Q 14.984375 17.484375 19.15625 11.84375 
Q 23.34375 6.203125 30.609375 6.203125 
Q 37.796875 6.203125 41.984375 11.859375 
Q 46.1875 17.53125 46.1875 27.296875 
Q 46.1875 37.015625 41.984375 42.703125 
Q 37.796875 48.390625 30.609375 48.390625 
z
M 30.609375 56 
Q 42.328125 56 49.015625 48.375 
Q 55.71875 40.765625 55.71875 27.296875 
Q 55.71875 13.875 49.015625 6.21875 
Q 42.328125 -1.421875 30.609375 -1.421875 
Q 18.84375 -1.421875 12.171875 6.21875 
Q 5.515625 13.875 5.515625 27.296875 
Q 5.515625 40.765625 12.171875 48.375 
Q 18.84375 56 30.609375 56 
z
" id="DejaVuSans-111"/>
      <path d="M 48.78125 52.59375 
L 48.78125 44.1875 
Q 44.96875 46.296875 41.140625 47.34375 
Q 37.3125 48.390625 33.40625 48.390625 
Q 24.65625 48.390625 19.8125 42.84375 
Q 14.984375 37.3125 14.984375 27.296875 
Q 14.984375 17.28125 19.8125 11.734375 
Q 24.65625 6.203125 33.40625 6.203125 
Q 37.3125 6.203125 41.140625 7.25 
Q 44.96875 8.296875 48.78125 10.40625 
L 48.78125 2.09375 
Q 45.015625 0.34375 40.984375 -0.53125 
Q 36.96875 -1.421875 32.421875 -1.421875 
Q 20.0625 -1.421875 12.78125 6.34375 
Q 5.515625 14.109375 5.515625 27.296875 
Q 5.515625 40.671875 12.859375 48.328125 
Q 20.21875 56 33.015625 56 
Q 37.15625 56 41.109375 55.140625 
Q 45.0625 54.296875 48.78125 52.59375 
z
" id="DejaVuSans-99"/>
      <path d="M 9.078125 75.984375 
L 18.109375 75.984375 
L 18.109375 31.109375 
L 44.921875 54.6875 
L 56.390625 54.6875 
L 27.390625 29.109375 
L 57.625 0 
L 45.90625 0 
L 18.109375 26.703125 
L 18.109375 0 
L 9.078125 0 
z
" id="DejaVuSans-107"/>
      <path id="DejaVuSans-32"/>
      <path d="M 9.421875 75.984375 
L 18.40625 75.984375 
L 18.40625 0 
L 9.421875 0 
z
" id="DejaVuSans-108"/>
      <path d="M 9.421875 54.6875 
L 18.40625 54.6875 
L 18.40625 0 
L 9.421875 0 
z
M 9.421875 75.984375 
L 18.40625 75.984375 
L 18.40625 64.59375 
L 9.421875 64.59375 
z
" id="DejaVuSans-105"/>
      <path d="M 54.890625 33.015625 
L 54.890625 0 
L 45.90625 0 
L 45.90625 32.71875 
Q 45.90625 40.484375 42.875 44.328125 
Q 39.84375 48.1875 33.796875 48.1875 
Q 26.515625 48.1875 22.3125 43.546875 
Q 18.109375 38.921875 18.109375 30.90625 
L 18.109375 0 
L 9.078125 0 
L 9.078125 54.6875 
L 18.109375 54.6875 
L 18.109375 46.1875 
Q 21.34375 51.125 25.703125 53.5625 
Q 30.078125 56 35.796875 56 
Q 45.21875 56 50.046875 50.171875 
Q 54.890625 44.34375 54.890625 33.015625 
z
" id="DejaVuSans-110"/>
      <path d="M 45.40625 27.984375 
Q 45.40625 37.75 41.375 43.109375 
Q 37.359375 48.484375 30.078125 48.484375 
Q 22.859375 48.484375 18.828125 43.109375 
Q 14.796875 37.75 14.796875 27.984375 
Q 14.796875 18.265625 18.828125 12.890625 
Q 22.859375 7.515625 30.078125 7.515625 
Q 37.359375 7.515625 41.375 12.890625 
Q 45.40625 18.265625 45.40625 27.984375 
z
M 54.390625 6.78125 
Q 54.390625 -7.171875 48.1875 -13.984375 
Q 42 -20.796875 29.203125 -20.796875 
Q 24.46875 -20.796875 20.265625 -20.09375 
Q 16.0625 -19.390625 12.109375 -17.921875 
L 12.109375 -9.1875 
Q 16.0625 -11.328125 19.921875 -12.34375 
Q 23.78125 -13.375 27.78125 -13.375 
Q 36.625 -13.375 41.015625 -8.765625 
Q 45.40625 -4.15625 45.40625 5.171875 
L 45.40625 9.625 
Q 42.625 4.78125 38.28125 2.390625 
Q 33.9375 0 27.875 0 
Q 17.828125 0 11.671875 7.65625 
Q 5.515625 15.328125 5.515625 27.984375 
Q 5.515625 40.671875 11.671875 48.328125 
Q 17.828125 56 27.875 56 
Q 33.9375 56 38.28125 53.609375 
Q 42.625 51.21875 45.40625 46.390625 
L 45.40625 54.6875 
L 54.390625 54.6875 
z
" id="DejaVuSans-103"/>
      <path d="M 2.984375 54.6875 
L 12.5 54.6875 
L 29.59375 8.796875 
L 46.6875 54.6875 
L 56.203125 54.6875 
L 35.6875 0 
L 23.484375 0 
z
" id="DejaVuSans-118"/>
      <path d="M 8.5 21.578125 
L 8.5 54.6875 
L 17.484375 54.6875 
L 17.484375 21.921875 
Q 17.484375 14.15625 20.5 10.265625 
Q 23.53125 6.390625 29.59375 6.390625 
Q 36.859375 6.390625 41.078125 11.03125 
Q 45.3125 15.671875 45.3125 23.6875 
L 45.3125 54.6875 
L 54.296875 54.6875 
L 54.296875 0 
L 45.3125 0 
L 45.3125 8.40625 
Q 42.046875 3.421875 37.71875 1 
Q 33.40625 -1.421875 27.6875 -1.421875 
Q 18.265625 -1.421875 13.375 4.4375 
Q 8.5 10.296875 8.5 21.578125 
z
M 31.109375 56 
z
" id="DejaVuSans-117"/>
     </defs>
     <g transform="translate(140.632812 403.141681)rotate(-90)scale(0.1 -0.1)">
      <use xlink:href="#DejaVuSans-83"/>
      <use x="63.476562" xlink:href="#DejaVuSans-116"/>
      <use x="102.685547" xlink:href="#DejaVuSans-111"/>
      <use x="163.867188" xlink:href="#DejaVuSans-99"/>
      <use x="218.847656" xlink:href="#DejaVuSans-107"/>
      <use x="276.757812" xlink:href="#DejaVuSans-32"/>
      <use x="308.544922" xlink:href="#DejaVuSans-99"/>
      <use x="363.525391" xlink:href="#DejaVuSans-108"/>
      <use x="391.308594" xlink:href="#DejaVuSans-111"/>
      <use x="452.490234" xlink:href="#DejaVuSans-115"/>
      <use x="504.589844" xlink:href="#DejaVuSans-105"/>
      <use x="532.373047" xlink:href="#DejaVuSans-110"/>
      <use x="595.751953" xlink:href="#DejaVuSans-103"/>
      <use x="659.228516" xlink:href="#DejaVuSans-32"/>
      <use x="691.015625" xlink:href="#DejaVuSans-118"/>
      <use x="750.195312" xlink:href="#DejaVuSans-97"/>
      <use x="811.474609" xlink:href="#DejaVuSans-108"/>
      <use x="839.257812" xlink:href="#DejaVuSans-117"/>
      <use x="902.636719" xlink:href="#DejaVuSans-101"/>
      <use x="964.160156" xlink:href="#DejaVuSans-115"/>
     </g>
    </g>
   </g>
   <g id="line2d_18">
    <path clip-path="url(#p627a581403)" d="M 221.498182 208.365587 
L 224.551359 228.555133 
L 227.604537 229.123801 
L 230.657714 194.716362 
L 233.710892 206.659412 
L 242.870425 207.512542 
L 245.923602 191.304013 
L 248.97678 202.678395 
L 252.029957 198.128625 
L 255.083135 199.8348 
L 264.242667 191.872766 
L 267.295845 234.242325 
L 270.349023 187.322996 
L 273.4022 203.53144 
L 276.455378 186.185575 
L 285.61491 189.597838 
L 288.668088 142.109841 
L 291.721265 112.536378 
L 294.774443 176.23299 
L 306.987153 203.53144 
L 310.040331 215.758953 
L 313.093508 235.095369 
L 316.146686 260.403354 
L 319.199863 255.569293 
L 328.359396 231.114352 
L 331.412573 248.460303 
L 334.465751 251.303899 
L 337.518928 238.507718 
L 340.572106 238.223342 
L 349.731639 167.702202 
L 355.837994 183.910647 
L 361.944349 260.119063 
L 371.103881 308.744481 
L 374.157059 303.341666 
L 377.210237 297.085807 
L 380.263414 311.303785 
L 383.316592 299.076273 
L 392.476124 309.313234 
L 395.529302 322.393792 
L 398.582479 319.550196 
L 401.635657 340.30841 
L 413.848367 337.464815 
L 416.901545 357.654361 
L 419.954722 372.725384 
L 423.0079 362.772799 
L 426.061077 378.696952 
L 435.22061 375.56898 
L 438.273787 321.825038 
L 441.326965 297.938851 
L 444.380142 309.313234 
L 447.43332 309.028858 
L 456.592853 368.459991 
L 459.64603 354.242012 
L 462.699208 355.66381 
L 465.752385 359.360536 
L 468.805563 369.313121 
L 477.965095 322.109415 
L 481.018273 309.597611 
L 484.071451 317.559645 
L 499.337338 319.834572 
L 502.390516 300.213694 
L 505.443693 331.208955 
L 508.496871 286.280092 
L 511.550048 271.493446 
L 520.709581 255.000539 
L 523.762759 255.284916 
L 526.815936 270.355939 
L 529.869114 280.308524 
L 532.922291 271.209069 
L 542.081824 274.621333 
L 545.135001 285.995715 
L 548.188179 321.25637 
L 551.241357 300.213694 
L 554.294534 310.166279 
L 563.454067 307.038392 
L 566.507244 320.118864 
L 569.560422 351.398416 
L 572.613599 345.711225 
L 575.666777 312.441207 
L 584.826309 279.739856 
L 590.932665 306.185262 
L 593.985842 313.294251 
L 597.03902 331.208955 
L 606.198552 310.450655 
L 609.25173 298.791896 
L 612.304907 306.185262 
L 615.358085 338.317945 
L 618.411262 315.284802 
L 627.570795 315.284802 
L 630.623973 332.630753 
L 633.67715 375.853357 
L 636.730328 387.512116 
L 639.783505 406.279865 
L 648.943038 388.080869 
L 651.996215 371.019295 
L 655.049393 349.976619 
L 658.102571 337.180438 
L 661.155748 323.246836 
L 670.315281 299.929403 
L 673.368458 328.36536 
L 676.421636 339.455366 
L 679.474813 348.554821 
L 682.527991 347.986153 
L 691.687524 378.696952 
L 694.740701 400.308297 
L 697.793879 386.090318 
L 700.847056 379.550082 
L 703.900234 374.715935 
L 713.059766 366.469525 
L 716.112944 368.459991 
L 719.166121 349.123574 
L 722.219299 358.223114 
L 725.272476 380.11875 
L 734.432009 385.237274 
L 737.485187 399.739589 
L 740.538364 415.379365 
L 743.591542 433.009647 
L 746.644719 435.853243 
L 755.804252 462.583025 
L 758.857429 455.474036 
L 761.910607 471.966897 
L 764.963785 484.19437 
L 768.016962 486.184875 
L 777.176495 480.497684 
L 780.229672 484.19437 
L 783.28285 483.625662 
L 786.336027 482.772572 
L 789.389205 469.692015 
L 798.548738 461.445604 
L 801.601915 447.227626 
L 804.655093 465.995374 
L 807.70827 447.512002 
L 810.761448 459.170716 
L 819.92098 483.909993 
L 822.974158 439.83426 
L 826.027335 457.748918 
L 829.080513 444.099653 
L 832.133691 442.962232 
L 841.293223 408.554707 
L 844.346401 373.009761 
L 847.399578 377.275154 
L 850.452756 337.180438 
L 853.505933 342.867629 
L 862.665466 262.109529 
L 865.718643 254.716163 
L 868.771821 272.630867 
L 871.824999 289.408064 
L 874.878176 276.04313 
L 884.037709 270.640316 
L 887.090886 295.664009 
L 890.144064 281.730322 
L 893.197241 246.754129 
L 896.250419 283.436496 
L 905.409952 298.507605 
L 908.463129 294.810879 
L 914.569484 315.284802 
L 917.622662 295.379632 
L 926.782194 268.081097 
L 929.835372 268.64985 
L 935.941727 274.621333 
L 938.994905 288.55502 
L 948.154437 273.483911 
L 951.207615 308.744481 
L 954.260792 286.848845 
L 957.31397 272.915243 
L 960.367147 256.99109 
L 969.52668 264.10008 
L 972.579858 299.076273 
L 975.633035 304.763464 
L 978.686213 295.9483 
L 981.73939 284.858294 
L 990.898923 293.104705 
L 993.9521 327.796606 
L 997.005278 367.322569 
L 1003.111633 362.488508 
L 1012.271166 357.654361 
L 1015.324343 483.625662 
L 1018.377521 465.14229 
L 1024.483876 493.009534 
L 1033.643408 514.336501 
L 1036.696586 504.383916 
L 1039.749763 506.090045 
L 1045.856119 560.971454 
L 1055.015651 533.104205 
L 1061.122006 539.360109 
L 1064.175184 539.075778 
L 1067.228361 563.246342 
L 1076.387894 572.345837 
L 1079.441072 596.5164 
L 1082.494249 583.151512 
L 1085.547427 592.535383 
L 1088.600604 578.033028 
L 1097.760137 573.198927 
L 1100.813314 556.70606 
L 1103.866492 560.402746 
L 1109.972847 544.478587 
L 1119.13238 543.341172 
L 1122.185557 548.45965 
L 1125.238735 543.056789 
L 1128.291912 566.943022 
L 1131.34509 564.66814 
L 1140.504622 517.74881 
L 1143.5578 501.255944 
L 1146.610977 497.559258 
L 1149.664155 514.336501 
L 1152.717333 501.824652 
L 1161.876865 494.431331 
L 1164.930043 498.696725 
L 1174.089575 492.725157 
L 1186.302286 508.64931 
L 1195.461818 471.682566 
L 1195.461818 471.682566 
" style="fill:none;stroke:#ff0000;stroke-linecap:square;stroke-width:1.5;"/>
   </g>
   <g id="line2d_19">
    <path clip-path="url(#p627a581403)" d="M 221.498182 208.374483 
L 224.551359 210.087494 
L 227.604537 215.739513 
L 230.657714 167.352798 
L 233.710892 201.077318 
L 242.870425 201.448886 
L 245.923602 215.760184 
L 248.97678 202.81566 
L 252.029957 188.791058 
L 255.083135 187.150637 
L 264.242667 203.832179 
L 267.295845 190.197693 
L 270.349023 176.004434 
L 273.4022 195.81417 
L 276.455378 170.857851 
L 285.61491 187.665501 
L 288.668088 157.863886 
L 291.721265 137.308078 
L 294.774443 186.221473 
L 306.987153 182.670435 
L 310.040331 194.537362 
L 313.093508 200.380779 
L 316.146686 227.080384 
L 319.199863 237.095837 
L 328.359396 229.894027 
L 331.412573 242.426025 
L 334.465751 220.40407 
L 337.518928 231.860894 
L 340.572106 222.653239 
L 349.731639 116.149945 
L 355.837994 153.384115 
L 358.891171 178.998238 
L 361.944349 233.571053 
L 371.103881 251.410377 
L 374.157059 297.537729 
L 377.210237 291.549663 
L 380.263414 295.779421 
L 383.316592 292.196535 
L 392.476124 301.289228 
L 395.529302 289.084665 
L 398.582479 292.122401 
L 401.635657 286.086284 
L 413.848367 294.755089 
L 416.901545 312.716453 
L 419.954722 293.102294 
L 423.0079 308.704571 
L 426.061077 305.952911 
L 435.22061 309.553436 
L 438.273787 288.60137 
L 441.326965 283.016165 
L 444.380142 281.802427 
L 447.43332 276.183721 
L 456.592853 237.181686 
L 459.64603 306.023943 
L 462.699208 308.895638 
L 465.752385 312.942241 
L 468.805563 319.756983 
L 477.965095 270.893512 
L 481.018273 285.696963 
L 484.071451 276.210352 
L 499.337338 308.432606 
L 502.390516 289.028365 
L 505.443693 288.466115 
L 508.496871 238.792874 
L 511.550048 255.405089 
L 520.709581 255.398554 
L 523.762759 249.805323 
L 526.815936 249.005093 
L 529.869114 268.26681 
L 532.922291 257.694211 
L 542.081824 256.483127 
L 545.135001 265.360749 
L 548.188179 293.757895 
L 551.241357 280.195265 
L 554.294534 279.157155 
L 563.454067 290.097087 
L 566.507244 292.188754 
L 569.560422 301.391777 
L 572.613599 314.391697 
L 575.666777 279.48428 
L 584.826309 255.280806 
L 590.932665 284.489856 
L 593.985842 291.206727 
L 597.03902 289.461781 
L 606.198552 289.44678 
L 609.25173 295.024524 
L 612.304907 297.924549 
L 615.358085 291.487504 
L 618.411262 276.679367 
L 627.570795 291.795733 
L 630.623973 294.12388 
L 633.67715 306.068955 
L 636.730328 322.566294 
L 639.783505 353.917673 
L 648.943038 325.998309 
L 651.996215 320.959616 
L 655.049393 309.341145 
L 658.102571 311.934115 
L 661.155748 279.511884 
L 670.315281 315.257686 
L 673.368458 293.770079 
L 676.421636 300.19811 
L 679.474813 308.742581 
L 682.527991 306.112213 
L 691.687524 288.187696 
L 694.740701 300.094028 
L 697.793879 298.571664 
L 700.847056 308.612681 
L 703.900234 305.24736 
L 713.059766 313.081492 
L 716.112944 316.052336 
L 719.166121 297.59931 
L 722.219299 320.235798 
L 725.272476 331.725536 
L 734.432009 336.737747 
L 737.485187 338.250172 
L 740.538364 288.544008 
L 743.591542 338.114037 
L 746.644719 348.676984 
L 755.804252 361.526161 
L 758.857429 351.767 
L 761.910607 375.014188 
L 764.963785 362.401833 
L 768.016962 354.875997 
L 777.176495 353.717011 
L 780.229672 352.568734 
L 783.28285 380.924328 
L 786.336027 373.730411 
L 789.389205 367.088768 
L 798.548738 385.312571 
L 801.601915 373.694481 
L 804.655093 368.594131 
L 807.70827 343.459267 
L 810.761448 339.620695 
L 819.92098 371.919776 
L 822.974158 352.032171 
L 826.027335 346.586256 
L 829.080513 309.819578 
L 832.133691 339.517109 
L 841.293223 341.003076 
L 844.346401 310.748088 
L 847.399578 325.491702 
L 850.452756 304.964874 
L 853.505933 311.305052 
L 862.665466 145.051762 
L 865.718643 280.896743 
L 868.771821 299.176115 
L 871.824999 266.859964 
L 874.878176 261.540512 
L 884.037709 262.965122 
L 890.144064 281.383483 
L 893.197241 296.992462 
L 896.250419 263.187928 
L 905.409952 287.710525 
L 908.463129 260.432217 
L 914.569484 265.85687 
L 917.622662 280.992828 
L 926.782194 283.275684 
L 929.835372 269.013668 
L 935.941727 262.796946 
L 938.994905 284.544654 
L 948.154437 246.945899 
L 951.207615 270.665464 
L 954.260792 269.332808 
L 957.31397 272.840887 
L 960.367147 274.26238 
L 969.52668 282.245847 
L 975.633035 277.916449 
L 978.686213 288.07215 
L 981.73939 287.45833 
L 990.898923 274.262653 
L 993.9521 280.891468 
L 997.005278 274.065668 
L 1003.111633 287.355445 
L 1012.271166 297.89585 
L 1015.324343 108.1404 
L 1018.377521 122.71775 
L 1024.483876 225.865594 
L 1033.643408 287.227102 
L 1036.696586 247.032023 
L 1039.749763 317.23184 
L 1042.802941 352.669682 
L 1045.856119 308.609396 
L 1055.015651 320.301433 
L 1061.122006 309.851225 
L 1064.175184 347.41868 
L 1067.228361 260.308954 
L 1076.387894 317.649248 
L 1079.441072 325.030747 
L 1082.494249 298.159514 
L 1085.547427 337.404019 
L 1088.600604 327.654722 
L 1097.760137 357.954839 
L 1100.813314 331.240514 
L 1103.866492 344.348643 
L 1109.972847 340.041824 
L 1119.13238 361.48918 
L 1122.185557 383.393917 
L 1125.238735 374.252228 
L 1128.291912 353.373723 
L 1131.34509 333.930044 
L 1140.504622 303.044147 
L 1143.5578 214.896161 
L 1146.610977 221.644212 
L 1149.664155 310.795087 
L 1152.717333 248.827433 
L 1161.876865 347.376747 
L 1164.930043 340.089516 
L 1174.089575 369.445638 
L 1183.249108 383.370806 
L 1186.302286 369.171397 
L 1195.461818 299.625651 
L 1195.461818 299.625651 
" style="fill:none;stroke:#0000ff;stroke-linecap:square;stroke-width:1.5;"/>
   </g>
   <g id="patch_3">
    <path d="M 172.8 620.9352 
L 172.8 83.7216 
" style="fill:none;stroke:#000000;stroke-linecap:square;stroke-linejoin:miter;stroke-width:0.8;"/>
   </g>
   <g id="patch_4">
    <path d="M 1244.16 620.9352 
L 1244.16 83.7216 
" style="fill:none;stroke:#000000;stroke-linecap:square;stroke-linejoin:miter;stroke-width:0.8;"/>
   </g>
   <g id="patch_5">
    <path d="M 172.8 620.9352 
L 1244.16 620.9352 
" style="fill:none;stroke:#000000;stroke-linecap:square;stroke-linejoin:miter;stroke-width:0.8;"/>
   </g>
   <g id="patch_6">
    <path d="M 172.8 83.7216 
L 1244.16 83.7216 
" style="fill:none;stroke:#000000;stroke-linecap:square;stroke-linejoin:miter;stroke-width:0.8;"/>
   </g>
   <g id="text_20">
    <!-- Combined K Neighbor -->
    <defs>
     <path d="M 64.40625 67.28125 
L 64.40625 56.890625 
Q 59.421875 61.53125 53.78125 63.8125 
Q 48.140625 66.109375 41.796875 66.109375 
Q 29.296875 66.109375 22.65625 58.46875 
Q 16.015625 50.828125 16.015625 36.375 
Q 16.015625 21.96875 22.65625 14.328125 
Q 29.296875 6.6875 41.796875 6.6875 
Q 48.140625 6.6875 53.78125 8.984375 
Q 59.421875 11.28125 64.40625 15.921875 
L 64.40625 5.609375 
Q 59.234375 2.09375 53.4375 0.328125 
Q 47.65625 -1.421875 41.21875 -1.421875 
Q 24.65625 -1.421875 15.125 8.703125 
Q 5.609375 18.84375 5.609375 36.375 
Q 5.609375 53.953125 15.125 64.078125 
Q 24.65625 74.21875 41.21875 74.21875 
Q 47.75 74.21875 53.53125 72.484375 
Q 59.328125 70.75 64.40625 67.28125 
z
" id="DejaVuSans-67"/>
     <path d="M 52 44.1875 
Q 55.375 50.25 60.0625 53.125 
Q 64.75 56 71.09375 56 
Q 79.640625 56 84.28125 50.015625 
Q 88.921875 44.046875 88.921875 33.015625 
L 88.921875 0 
L 79.890625 0 
L 79.890625 32.71875 
Q 79.890625 40.578125 77.09375 44.375 
Q 74.3125 48.1875 68.609375 48.1875 
Q 61.625 48.1875 57.5625 43.546875 
Q 53.515625 38.921875 53.515625 30.90625 
L 53.515625 0 
L 44.484375 0 
L 44.484375 32.71875 
Q 44.484375 40.625 41.703125 44.40625 
Q 38.921875 48.1875 33.109375 48.1875 
Q 26.21875 48.1875 22.15625 43.53125 
Q 18.109375 38.875 18.109375 30.90625 
L 18.109375 0 
L 9.078125 0 
L 9.078125 54.6875 
L 18.109375 54.6875 
L 18.109375 46.1875 
Q 21.1875 51.21875 25.484375 53.609375 
Q 29.78125 56 35.6875 56 
Q 41.65625 56 45.828125 52.96875 
Q 50 49.953125 52 44.1875 
z
" id="DejaVuSans-109"/>
     <path d="M 48.6875 27.296875 
Q 48.6875 37.203125 44.609375 42.84375 
Q 40.53125 48.484375 33.40625 48.484375 
Q 26.265625 48.484375 22.1875 42.84375 
Q 18.109375 37.203125 18.109375 27.296875 
Q 18.109375 17.390625 22.1875 11.75 
Q 26.265625 6.109375 33.40625 6.109375 
Q 40.53125 6.109375 44.609375 11.75 
Q 48.6875 17.390625 48.6875 27.296875 
z
M 18.109375 46.390625 
Q 20.953125 51.265625 25.265625 53.625 
Q 29.59375 56 35.59375 56 
Q 45.5625 56 51.78125 48.09375 
Q 58.015625 40.1875 58.015625 27.296875 
Q 58.015625 14.40625 51.78125 6.484375 
Q 45.5625 -1.421875 35.59375 -1.421875 
Q 29.59375 -1.421875 25.265625 0.953125 
Q 20.953125 3.328125 18.109375 8.203125 
L 18.109375 0 
L 9.078125 0 
L 9.078125 75.984375 
L 18.109375 75.984375 
z
" id="DejaVuSans-98"/>
     <path d="M 45.40625 46.390625 
L 45.40625 75.984375 
L 54.390625 75.984375 
L 54.390625 0 
L 45.40625 0 
L 45.40625 8.203125 
Q 42.578125 3.328125 38.25 0.953125 
Q 33.9375 -1.421875 27.875 -1.421875 
Q 17.96875 -1.421875 11.734375 6.484375 
Q 5.515625 14.40625 5.515625 27.296875 
Q 5.515625 40.1875 11.734375 48.09375 
Q 17.96875 56 27.875 56 
Q 33.9375 56 38.25 53.625 
Q 42.578125 51.265625 45.40625 46.390625 
z
M 14.796875 27.296875 
Q 14.796875 17.390625 18.875 11.75 
Q 22.953125 6.109375 30.078125 6.109375 
Q 37.203125 6.109375 41.296875 11.75 
Q 45.40625 17.390625 45.40625 27.296875 
Q 45.40625 37.203125 41.296875 42.84375 
Q 37.203125 48.484375 30.078125 48.484375 
Q 22.953125 48.484375 18.875 42.84375 
Q 14.796875 37.203125 14.796875 27.296875 
z
" id="DejaVuSans-100"/>
     <path d="M 9.8125 72.90625 
L 19.671875 72.90625 
L 19.671875 42.09375 
L 52.390625 72.90625 
L 65.09375 72.90625 
L 28.90625 38.921875 
L 67.671875 0 
L 54.6875 0 
L 19.671875 35.109375 
L 19.671875 0 
L 9.8125 0 
z
" id="DejaVuSans-75"/>
     <path d="M 9.8125 72.90625 
L 23.09375 72.90625 
L 55.421875 11.921875 
L 55.421875 72.90625 
L 64.984375 72.90625 
L 64.984375 0 
L 51.703125 0 
L 19.390625 60.984375 
L 19.390625 0 
L 9.8125 0 
z
" id="DejaVuSans-78"/>
     <path d="M 54.890625 33.015625 
L 54.890625 0 
L 45.90625 0 
L 45.90625 32.71875 
Q 45.90625 40.484375 42.875 44.328125 
Q 39.84375 48.1875 33.796875 48.1875 
Q 26.515625 48.1875 22.3125 43.546875 
Q 18.109375 38.921875 18.109375 30.90625 
L 18.109375 0 
L 9.078125 0 
L 9.078125 75.984375 
L 18.109375 75.984375 
L 18.109375 46.1875 
Q 21.34375 51.125 25.703125 53.5625 
Q 30.078125 56 35.796875 56 
Q 45.21875 56 50.046875 50.171875 
Q 54.890625 44.34375 54.890625 33.015625 
z
" id="DejaVuSans-104"/>
     <path d="M 41.109375 46.296875 
Q 39.59375 47.171875 37.8125 47.578125 
Q 36.03125 48 33.890625 48 
Q 26.265625 48 22.1875 43.046875 
Q 18.109375 38.09375 18.109375 28.8125 
L 18.109375 0 
L 9.078125 0 
L 9.078125 54.6875 
L 18.109375 54.6875 
L 18.109375 46.1875 
Q 20.953125 51.171875 25.484375 53.578125 
Q 30.03125 56 36.53125 56 
Q 37.453125 56 38.578125 55.875 
Q 39.703125 55.765625 41.0625 55.515625 
z
" id="DejaVuSans-114"/>
    </defs>
    <g transform="translate(642.840937 77.7216)scale(0.12 -0.12)">
     <use xlink:href="#DejaVuSans-67"/>
     <use x="69.824219" xlink:href="#DejaVuSans-111"/>
     <use x="131.005859" xlink:href="#DejaVuSans-109"/>
     <use x="228.417969" xlink:href="#DejaVuSans-98"/>
     <use x="291.894531" xlink:href="#DejaVuSans-105"/>
     <use x="319.677734" xlink:href="#DejaVuSans-110"/>
     <use x="383.056641" xlink:href="#DejaVuSans-101"/>
     <use x="444.580078" xlink:href="#DejaVuSans-100"/>
     <use x="508.056641" xlink:href="#DejaVuSans-32"/>
     <use x="539.84375" xlink:href="#DejaVuSans-75"/>
     <use x="605.419922" xlink:href="#DejaVuSans-32"/>
     <use x="637.207031" xlink:href="#DejaVuSans-78"/>
     <use x="712.011719" xlink:href="#DejaVuSans-101"/>
     <use x="773.535156" xlink:href="#DejaVuSans-105"/>
     <use x="801.318359" xlink:href="#DejaVuSans-103"/>
     <use x="864.794922" xlink:href="#DejaVuSans-104"/>
     <use x="928.173828" xlink:href="#DejaVuSans-98"/>
     <use x="991.650391" xlink:href="#DejaVuSans-111"/>
     <use x="1052.832031" xlink:href="#DejaVuSans-114"/>
    </g>
   </g>
   <g id="legend_1">
    <g id="patch_7">
     <path d="M 1101.105312 121.07785 
L 1237.16 121.07785 
Q 1239.16 121.07785 1239.16 119.07785 
L 1239.16 90.7216 
Q 1239.16 88.7216 1237.16 88.7216 
L 1101.105312 88.7216 
Q 1099.105312 88.7216 1099.105312 90.7216 
L 1099.105312 119.07785 
Q 1099.105312 121.07785 1101.105312 121.07785 
z
" style="fill:#ffffff;opacity:0.8;stroke:#cccccc;stroke-linejoin:miter;"/>
    </g>
    <g id="line2d_20">
     <path d="M 1103.105312 96.820037 
L 1123.105312 96.820037 
" style="fill:none;stroke:#ff0000;stroke-linecap:square;stroke-width:1.5;"/>
    </g>
    <g id="line2d_21"/>
    <g id="text_21">
     <!-- Original Value -->
     <defs>
      <path d="M 39.40625 66.21875 
Q 28.65625 66.21875 22.328125 58.203125 
Q 16.015625 50.203125 16.015625 36.375 
Q 16.015625 22.609375 22.328125 14.59375 
Q 28.65625 6.59375 39.40625 6.59375 
Q 50.140625 6.59375 56.421875 14.59375 
Q 62.703125 22.609375 62.703125 36.375 
Q 62.703125 50.203125 56.421875 58.203125 
Q 50.140625 66.21875 39.40625 66.21875 
z
M 39.40625 74.21875 
Q 54.734375 74.21875 63.90625 63.9375 
Q 73.09375 53.65625 73.09375 36.375 
Q 73.09375 19.140625 63.90625 8.859375 
Q 54.734375 -1.421875 39.40625 -1.421875 
Q 24.03125 -1.421875 14.8125 8.828125 
Q 5.609375 19.09375 5.609375 36.375 
Q 5.609375 53.65625 14.8125 63.9375 
Q 24.03125 74.21875 39.40625 74.21875 
z
" id="DejaVuSans-79"/>
      <path d="M 28.609375 0 
L 0.78125 72.90625 
L 11.078125 72.90625 
L 34.1875 11.53125 
L 57.328125 72.90625 
L 67.578125 72.90625 
L 39.796875 0 
z
" id="DejaVuSans-86"/>
     </defs>
     <g transform="translate(1131.105312 100.320037)scale(0.1 -0.1)">
      <use xlink:href="#DejaVuSans-79"/>
      <use x="78.710938" xlink:href="#DejaVuSans-114"/>
      <use x="119.824219" xlink:href="#DejaVuSans-105"/>
      <use x="147.607422" xlink:href="#DejaVuSans-103"/>
      <use x="211.083984" xlink:href="#DejaVuSans-105"/>
      <use x="238.867188" xlink:href="#DejaVuSans-110"/>
      <use x="302.246094" xlink:href="#DejaVuSans-97"/>
      <use x="363.525391" xlink:href="#DejaVuSans-108"/>
      <use x="391.308594" xlink:href="#DejaVuSans-32"/>
      <use x="423.095703" xlink:href="#DejaVuSans-86"/>
      <use x="491.394531" xlink:href="#DejaVuSans-97"/>
      <use x="552.673828" xlink:href="#DejaVuSans-108"/>
      <use x="580.457031" xlink:href="#DejaVuSans-117"/>
      <use x="643.835938" xlink:href="#DejaVuSans-101"/>
     </g>
    </g>
    <g id="line2d_22">
     <path d="M 1103.105312 111.498162 
L 1123.105312 111.498162 
" style="fill:none;stroke:#0000ff;stroke-linecap:square;stroke-width:1.5;"/>
    </g>
    <g id="line2d_23"/>
    <g id="text_22">
     <!-- Combined Prediction -->
     <defs>
      <path d="M 19.671875 64.796875 
L 19.671875 37.40625 
L 32.078125 37.40625 
Q 38.96875 37.40625 42.71875 40.96875 
Q 46.484375 44.53125 46.484375 51.125 
Q 46.484375 57.671875 42.71875 61.234375 
Q 38.96875 64.796875 32.078125 64.796875 
z
M 9.8125 72.90625 
L 32.078125 72.90625 
Q 44.34375 72.90625 50.609375 67.359375 
Q 56.890625 61.8125 56.890625 51.125 
Q 56.890625 40.328125 50.609375 34.8125 
Q 44.34375 29.296875 32.078125 29.296875 
L 19.671875 29.296875 
L 19.671875 0 
L 9.8125 0 
z
" id="DejaVuSans-80"/>
     </defs>
     <g transform="translate(1131.105312 114.998162)scale(0.1 -0.1)">
      <use xlink:href="#DejaVuSans-67"/>
      <use x="69.824219" xlink:href="#DejaVuSans-111"/>
      <use x="131.005859" xlink:href="#DejaVuSans-109"/>
      <use x="228.417969" xlink:href="#DejaVuSans-98"/>
      <use x="291.894531" xlink:href="#DejaVuSans-105"/>
      <use x="319.677734" xlink:href="#DejaVuSans-110"/>
      <use x="383.056641" xlink:href="#DejaVuSans-101"/>
      <use x="444.580078" xlink:href="#DejaVuSans-100"/>
      <use x="508.056641" xlink:href="#DejaVuSans-32"/>
      <use x="539.84375" xlink:href="#DejaVuSans-80"/>
      <use x="600.130859" xlink:href="#DejaVuSans-114"/>
      <use x="641.212891" xlink:href="#DejaVuSans-101"/>
      <use x="702.736328" xlink:href="#DejaVuSans-100"/>
      <use x="766.212891" xlink:href="#DejaVuSans-105"/>
      <use x="793.996094" xlink:href="#DejaVuSans-99"/>
      <use x="848.976562" xlink:href="#DejaVuSans-116"/>
      <use x="888.185547" xlink:href="#DejaVuSans-105"/>
      <use x="915.96875" xlink:href="#DejaVuSans-111"/>
      <use x="977.150391" xlink:href="#DejaVuSans-110"/>
     </g>
    </g>
   </g>
  </g>
 </g>
 <defs>
  <clipPath id="p627a581403">
   <rect height="537.2136" width="1071.36" x="172.8" y="83.7216"/>
  </clipPath>
 </defs>
</svg>
