<?xml version="1.0" encoding="utf-8" standalone="no"?>
<!DOCTYPE svg PUBLIC "-//W3C//DTD SVG 1.1//EN"
  "http://www.w3.org/Graphics/SVG/1.1/DTD/svg11.dtd">
<!-- Created with matplotlib (https://matplotlib.org/) -->
<svg height="697.68pt" version="1.1" viewBox="0 0 1382.4 697.68" width="1382.4pt" xmlns="http://www.w3.org/2000/svg" xmlns:xlink="http://www.w3.org/1999/xlink">
 <defs>
  <style type="text/css">
*{stroke-linecap:butt;stroke-linejoin:round;}
  </style>
 </defs>
 <g id="figure_1">
  <g id="patch_1">
   <path d="M 0 697.68 
L 1382.4 697.68 
L 1382.4 0 
L 0 0 
z
" style="fill:#ffffff;"/>
  </g>
  <g id="axes_1">
   <g id="patch_2">
    <path d="M 172.8 620.9352 
L 1244.16 620.9352 
L 1244.16 83.7216 
L 172.8 83.7216 
z
" style="fill:#ffffff;"/>
   </g>
   <g id="matplotlib.axis_1">
    <g id="xtick_1">
     <g id="line2d_1">
      <defs>
       <path d="M 0 0 
L 0 3.5 
" id="m1a1c413de2" style="stroke:#000000;stroke-width:0.8;"/>
      </defs>
      <g>
       <use style="stroke:#000000;stroke-width:0.8;" x="221.498182" xlink:href="#m1a1c413de2" y="620.9352"/>
      </g>
     </g>
     <g id="text_1">
      <!-- 2018-01 -->
      <defs>
       <path d="M 19.1875 8.296875 
L 53.609375 8.296875 
L 53.609375 0 
L 7.328125 0 
L 7.328125 8.296875 
Q 12.9375 14.109375 22.625 23.890625 
Q 32.328125 33.6875 34.8125 36.53125 
Q 39.546875 41.84375 41.421875 45.53125 
Q 43.3125 49.21875 43.3125 52.78125 
Q 43.3125 58.59375 39.234375 62.25 
Q 35.15625 65.921875 28.609375 65.921875 
Q 23.96875 65.921875 18.8125 64.3125 
Q 13.671875 62.703125 7.8125 59.421875 
L 7.8125 69.390625 
Q 13.765625 71.78125 18.9375 73 
Q 24.125 74.21875 28.421875 74.21875 
Q 39.75 74.21875 46.484375 68.546875 
Q 53.21875 62.890625 53.21875 53.421875 
Q 53.21875 48.921875 51.53125 44.890625 
Q 49.859375 40.875 45.40625 35.40625 
Q 44.1875 33.984375 37.640625 27.21875 
Q 31.109375 20.453125 19.1875 8.296875 
z
" id="DejaVuSans-50"/>
       <path d="M 31.78125 66.40625 
Q 24.171875 66.40625 20.328125 58.90625 
Q 16.5 51.421875 16.5 36.375 
Q 16.5 21.390625 20.328125 13.890625 
Q 24.171875 6.390625 31.78125 6.390625 
Q 39.453125 6.390625 43.28125 13.890625 
Q 47.125 21.390625 47.125 36.375 
Q 47.125 51.421875 43.28125 58.90625 
Q 39.453125 66.40625 31.78125 66.40625 
z
M 31.78125 74.21875 
Q 44.046875 74.21875 50.515625 64.515625 
Q 56.984375 54.828125 56.984375 36.375 
Q 56.984375 17.96875 50.515625 8.265625 
Q 44.046875 -1.421875 31.78125 -1.421875 
Q 19.53125 -1.421875 13.0625 8.265625 
Q 6.59375 17.96875 6.59375 36.375 
Q 6.59375 54.828125 13.0625 64.515625 
Q 19.53125 74.21875 31.78125 74.21875 
z
" id="DejaVuSans-48"/>
       <path d="M 12.40625 8.296875 
L 28.515625 8.296875 
L 28.515625 63.921875 
L 10.984375 60.40625 
L 10.984375 69.390625 
L 28.421875 72.90625 
L 38.28125 72.90625 
L 38.28125 8.296875 
L 54.390625 8.296875 
L 54.390625 0 
L 12.40625 0 
z
" id="DejaVuSans-49"/>
       <path d="M 31.78125 34.625 
Q 24.75 34.625 20.71875 30.859375 
Q 16.703125 27.09375 16.703125 20.515625 
Q 16.703125 13.921875 20.71875 10.15625 
Q 24.75 6.390625 31.78125 6.390625 
Q 38.8125 6.390625 42.859375 10.171875 
Q 46.921875 13.96875 46.921875 20.515625 
Q 46.921875 27.09375 42.890625 30.859375 
Q 38.875 34.625 31.78125 34.625 
z
M 21.921875 38.8125 
Q 15.578125 40.375 12.03125 44.71875 
Q 8.5 49.078125 8.5 55.328125 
Q 8.5 64.0625 14.71875 69.140625 
Q 20.953125 74.21875 31.78125 74.21875 
Q 42.671875 74.21875 48.875 69.140625 
Q 55.078125 64.0625 55.078125 55.328125 
Q 55.078125 49.078125 51.53125 44.71875 
Q 48 40.375 41.703125 38.8125 
Q 48.828125 37.15625 52.796875 32.3125 
Q 56.78125 27.484375 56.78125 20.515625 
Q 56.78125 9.90625 50.3125 4.234375 
Q 43.84375 -1.421875 31.78125 -1.421875 
Q 19.734375 -1.421875 13.25 4.234375 
Q 6.78125 9.90625 6.78125 20.515625 
Q 6.78125 27.484375 10.78125 32.3125 
Q 14.796875 37.15625 21.921875 38.8125 
z
M 18.3125 54.390625 
Q 18.3125 48.734375 21.84375 45.5625 
Q 25.390625 42.390625 31.78125 42.390625 
Q 38.140625 42.390625 41.71875 45.5625 
Q 45.3125 48.734375 45.3125 54.390625 
Q 45.3125 60.0625 41.71875 63.234375 
Q 38.140625 66.40625 31.78125 66.40625 
Q 25.390625 66.40625 21.84375 63.234375 
Q 18.3125 60.0625 18.3125 54.390625 
z
" id="DejaVuSans-56"/>
       <path d="M 4.890625 31.390625 
L 31.203125 31.390625 
L 31.203125 23.390625 
L 4.890625 23.390625 
z
" id="DejaVuSans-45"/>
      </defs>
      <g transform="translate(200.606776 635.533637)scale(0.1 -0.1)">
       <use xlink:href="#DejaVuSans-50"/>
       <use x="63.623047" xlink:href="#DejaVuSans-48"/>
       <use x="127.246094" xlink:href="#DejaVuSans-49"/>
       <use x="190.869141" xlink:href="#DejaVuSans-56"/>
       <use x="254.492188" xlink:href="#DejaVuSans-45"/>
       <use x="290.576172" xlink:href="#DejaVuSans-48"/>
       <use x="354.199219" xlink:href="#DejaVuSans-49"/>
      </g>
     </g>
    </g>
    <g id="xtick_2">
     <g id="line2d_2">
      <g>
       <use style="stroke:#000000;stroke-width:0.8;" x="316.146686" xlink:href="#m1a1c413de2" y="620.9352"/>
      </g>
     </g>
     <g id="text_2">
      <!-- 2018-02 -->
      <g transform="translate(295.255279 635.533637)scale(0.1 -0.1)">
       <use xlink:href="#DejaVuSans-50"/>
       <use x="63.623047" xlink:href="#DejaVuSans-48"/>
       <use x="127.246094" xlink:href="#DejaVuSans-49"/>
       <use x="190.869141" xlink:href="#DejaVuSans-56"/>
       <use x="254.492188" xlink:href="#DejaVuSans-45"/>
       <use x="290.576172" xlink:href="#DejaVuSans-48"/>
       <use x="354.199219" xlink:href="#DejaVuSans-50"/>
      </g>
     </g>
    </g>
    <g id="xtick_3">
     <g id="line2d_3">
      <g>
       <use style="stroke:#000000;stroke-width:0.8;" x="401.635657" xlink:href="#m1a1c413de2" y="620.9352"/>
      </g>
     </g>
     <g id="text_3">
      <!-- 2018-03 -->
      <defs>
       <path d="M 40.578125 39.3125 
Q 47.65625 37.796875 51.625 33 
Q 55.609375 28.21875 55.609375 21.1875 
Q 55.609375 10.40625 48.1875 4.484375 
Q 40.765625 -1.421875 27.09375 -1.421875 
Q 22.515625 -1.421875 17.65625 -0.515625 
Q 12.796875 0.390625 7.625 2.203125 
L 7.625 11.71875 
Q 11.71875 9.328125 16.59375 8.109375 
Q 21.484375 6.890625 26.8125 6.890625 
Q 36.078125 6.890625 40.9375 10.546875 
Q 45.796875 14.203125 45.796875 21.1875 
Q 45.796875 27.640625 41.28125 31.265625 
Q 36.765625 34.90625 28.71875 34.90625 
L 20.21875 34.90625 
L 20.21875 43.015625 
L 29.109375 43.015625 
Q 36.375 43.015625 40.234375 45.921875 
Q 44.09375 48.828125 44.09375 54.296875 
Q 44.09375 59.90625 40.109375 62.90625 
Q 36.140625 65.921875 28.71875 65.921875 
Q 24.65625 65.921875 20.015625 65.03125 
Q 15.375 64.15625 9.8125 62.3125 
L 9.8125 71.09375 
Q 15.4375 72.65625 20.34375 73.4375 
Q 25.25 74.21875 29.59375 74.21875 
Q 40.828125 74.21875 47.359375 69.109375 
Q 53.90625 64.015625 53.90625 55.328125 
Q 53.90625 49.265625 50.4375 45.09375 
Q 46.96875 40.921875 40.578125 39.3125 
z
" id="DejaVuSans-51"/>
      </defs>
      <g transform="translate(380.744251 635.533637)scale(0.1 -0.1)">
       <use xlink:href="#DejaVuSans-50"/>
       <use x="63.623047" xlink:href="#DejaVuSans-48"/>
       <use x="127.246094" xlink:href="#DejaVuSans-49"/>
       <use x="190.869141" xlink:href="#DejaVuSans-56"/>
       <use x="254.492188" xlink:href="#DejaVuSans-45"/>
       <use x="290.576172" xlink:href="#DejaVuSans-48"/>
       <use x="354.199219" xlink:href="#DejaVuSans-51"/>
      </g>
     </g>
    </g>
    <g id="xtick_4">
     <g id="line2d_4">
      <g>
       <use style="stroke:#000000;stroke-width:0.8;" x="496.284161" xlink:href="#m1a1c413de2" y="620.9352"/>
      </g>
     </g>
     <g id="text_4">
      <!-- 2018-04 -->
      <defs>
       <path d="M 37.796875 64.3125 
L 12.890625 25.390625 
L 37.796875 25.390625 
z
M 35.203125 72.90625 
L 47.609375 72.90625 
L 47.609375 25.390625 
L 58.015625 25.390625 
L 58.015625 17.1875 
L 47.609375 17.1875 
L 47.609375 0 
L 37.796875 0 
L 37.796875 17.1875 
L 4.890625 17.1875 
L 4.890625 26.703125 
z
" id="DejaVuSans-52"/>
      </defs>
      <g transform="translate(475.392754 635.533637)scale(0.1 -0.1)">
       <use xlink:href="#DejaVuSans-50"/>
       <use x="63.623047" xlink:href="#DejaVuSans-48"/>
       <use x="127.246094" xlink:href="#DejaVuSans-49"/>
       <use x="190.869141" xlink:href="#DejaVuSans-56"/>
       <use x="254.492188" xlink:href="#DejaVuSans-45"/>
       <use x="290.576172" xlink:href="#DejaVuSans-48"/>
       <use x="354.199219" xlink:href="#DejaVuSans-52"/>
      </g>
     </g>
    </g>
    <g id="xtick_5">
     <g id="line2d_5">
      <g>
       <use style="stroke:#000000;stroke-width:0.8;" x="587.879487" xlink:href="#m1a1c413de2" y="620.9352"/>
      </g>
     </g>
     <g id="text_5">
      <!-- 2018-05 -->
      <defs>
       <path d="M 10.796875 72.90625 
L 49.515625 72.90625 
L 49.515625 64.59375 
L 19.828125 64.59375 
L 19.828125 46.734375 
Q 21.96875 47.46875 24.109375 47.828125 
Q 26.265625 48.1875 28.421875 48.1875 
Q 40.625 48.1875 47.75 41.5 
Q 54.890625 34.8125 54.890625 23.390625 
Q 54.890625 11.625 47.5625 5.09375 
Q 40.234375 -1.421875 26.90625 -1.421875 
Q 22.3125 -1.421875 17.546875 -0.640625 
Q 12.796875 0.140625 7.71875 1.703125 
L 7.71875 11.625 
Q 12.109375 9.234375 16.796875 8.0625 
Q 21.484375 6.890625 26.703125 6.890625 
Q 35.15625 6.890625 40.078125 11.328125 
Q 45.015625 15.765625 45.015625 23.390625 
Q 45.015625 31 40.078125 35.4375 
Q 35.15625 39.890625 26.703125 39.890625 
Q 22.75 39.890625 18.8125 39.015625 
Q 14.890625 38.140625 10.796875 36.28125 
z
" id="DejaVuSans-53"/>
      </defs>
      <g transform="translate(566.988081 635.533637)scale(0.1 -0.1)">
       <use xlink:href="#DejaVuSans-50"/>
       <use x="63.623047" xlink:href="#DejaVuSans-48"/>
       <use x="127.246094" xlink:href="#DejaVuSans-49"/>
       <use x="190.869141" xlink:href="#DejaVuSans-56"/>
       <use x="254.492188" xlink:href="#DejaVuSans-45"/>
       <use x="290.576172" xlink:href="#DejaVuSans-48"/>
       <use x="354.199219" xlink:href="#DejaVuSans-53"/>
      </g>
     </g>
    </g>
    <g id="xtick_6">
     <g id="line2d_6">
      <g>
       <use style="stroke:#000000;stroke-width:0.8;" x="682.527991" xlink:href="#m1a1c413de2" y="620.9352"/>
      </g>
     </g>
     <g id="text_6">
      <!-- 2018-06 -->
      <defs>
       <path d="M 33.015625 40.375 
Q 26.375 40.375 22.484375 35.828125 
Q 18.609375 31.296875 18.609375 23.390625 
Q 18.609375 15.53125 22.484375 10.953125 
Q 26.375 6.390625 33.015625 6.390625 
Q 39.65625 6.390625 43.53125 10.953125 
Q 47.40625 15.53125 47.40625 23.390625 
Q 47.40625 31.296875 43.53125 35.828125 
Q 39.65625 40.375 33.015625 40.375 
z
M 52.59375 71.296875 
L 52.59375 62.3125 
Q 48.875 64.0625 45.09375 64.984375 
Q 41.3125 65.921875 37.59375 65.921875 
Q 27.828125 65.921875 22.671875 59.328125 
Q 17.53125 52.734375 16.796875 39.40625 
Q 19.671875 43.65625 24.015625 45.921875 
Q 28.375 48.1875 33.59375 48.1875 
Q 44.578125 48.1875 50.953125 41.515625 
Q 57.328125 34.859375 57.328125 23.390625 
Q 57.328125 12.15625 50.6875 5.359375 
Q 44.046875 -1.421875 33.015625 -1.421875 
Q 20.359375 -1.421875 13.671875 8.265625 
Q 6.984375 17.96875 6.984375 36.375 
Q 6.984375 53.65625 15.1875 63.9375 
Q 23.390625 74.21875 37.203125 74.21875 
Q 40.921875 74.21875 44.703125 73.484375 
Q 48.484375 72.75 52.59375 71.296875 
z
" id="DejaVuSans-54"/>
      </defs>
      <g transform="translate(661.636585 635.533637)scale(0.1 -0.1)">
       <use xlink:href="#DejaVuSans-50"/>
       <use x="63.623047" xlink:href="#DejaVuSans-48"/>
       <use x="127.246094" xlink:href="#DejaVuSans-49"/>
       <use x="190.869141" xlink:href="#DejaVuSans-56"/>
       <use x="254.492188" xlink:href="#DejaVuSans-45"/>
       <use x="290.576172" xlink:href="#DejaVuSans-48"/>
       <use x="354.199219" xlink:href="#DejaVuSans-54"/>
      </g>
     </g>
    </g>
    <g id="xtick_7">
     <g id="line2d_7">
      <g>
       <use style="stroke:#000000;stroke-width:0.8;" x="774.123317" xlink:href="#m1a1c413de2" y="620.9352"/>
      </g>
     </g>
     <g id="text_7">
      <!-- 2018-07 -->
      <defs>
       <path d="M 8.203125 72.90625 
L 55.078125 72.90625 
L 55.078125 68.703125 
L 28.609375 0 
L 18.3125 0 
L 43.21875 64.59375 
L 8.203125 64.59375 
z
" id="DejaVuSans-55"/>
      </defs>
      <g transform="translate(753.231911 635.533637)scale(0.1 -0.1)">
       <use xlink:href="#DejaVuSans-50"/>
       <use x="63.623047" xlink:href="#DejaVuSans-48"/>
       <use x="127.246094" xlink:href="#DejaVuSans-49"/>
       <use x="190.869141" xlink:href="#DejaVuSans-56"/>
       <use x="254.492188" xlink:href="#DejaVuSans-45"/>
       <use x="290.576172" xlink:href="#DejaVuSans-48"/>
       <use x="354.199219" xlink:href="#DejaVuSans-55"/>
      </g>
     </g>
    </g>
    <g id="xtick_8">
     <g id="line2d_8">
      <g>
       <use style="stroke:#000000;stroke-width:0.8;" x="868.771821" xlink:href="#m1a1c413de2" y="620.9352"/>
      </g>
     </g>
     <g id="text_8">
      <!-- 2018-08 -->
      <g transform="translate(847.880415 635.533637)scale(0.1 -0.1)">
       <use xlink:href="#DejaVuSans-50"/>
       <use x="63.623047" xlink:href="#DejaVuSans-48"/>
       <use x="127.246094" xlink:href="#DejaVuSans-49"/>
       <use x="190.869141" xlink:href="#DejaVuSans-56"/>
       <use x="254.492188" xlink:href="#DejaVuSans-45"/>
       <use x="290.576172" xlink:href="#DejaVuSans-48"/>
       <use x="354.199219" xlink:href="#DejaVuSans-56"/>
      </g>
     </g>
    </g>
    <g id="xtick_9">
     <g id="line2d_9">
      <g>
       <use style="stroke:#000000;stroke-width:0.8;" x="963.420325" xlink:href="#m1a1c413de2" y="620.9352"/>
      </g>
     </g>
     <g id="text_9">
      <!-- 2018-09 -->
      <defs>
       <path d="M 10.984375 1.515625 
L 10.984375 10.5 
Q 14.703125 8.734375 18.5 7.8125 
Q 22.3125 6.890625 25.984375 6.890625 
Q 35.75 6.890625 40.890625 13.453125 
Q 46.046875 20.015625 46.78125 33.40625 
Q 43.953125 29.203125 39.59375 26.953125 
Q 35.25 24.703125 29.984375 24.703125 
Q 19.046875 24.703125 12.671875 31.3125 
Q 6.296875 37.9375 6.296875 49.421875 
Q 6.296875 60.640625 12.9375 67.421875 
Q 19.578125 74.21875 30.609375 74.21875 
Q 43.265625 74.21875 49.921875 64.515625 
Q 56.59375 54.828125 56.59375 36.375 
Q 56.59375 19.140625 48.40625 8.859375 
Q 40.234375 -1.421875 26.421875 -1.421875 
Q 22.703125 -1.421875 18.890625 -0.6875 
Q 15.09375 0.046875 10.984375 1.515625 
z
M 30.609375 32.421875 
Q 37.25 32.421875 41.125 36.953125 
Q 45.015625 41.5 45.015625 49.421875 
Q 45.015625 57.28125 41.125 61.84375 
Q 37.25 66.40625 30.609375 66.40625 
Q 23.96875 66.40625 20.09375 61.84375 
Q 16.21875 57.28125 16.21875 49.421875 
Q 16.21875 41.5 20.09375 36.953125 
Q 23.96875 32.421875 30.609375 32.421875 
z
" id="DejaVuSans-57"/>
      </defs>
      <g transform="translate(942.528919 635.533637)scale(0.1 -0.1)">
       <use xlink:href="#DejaVuSans-50"/>
       <use x="63.623047" xlink:href="#DejaVuSans-48"/>
       <use x="127.246094" xlink:href="#DejaVuSans-49"/>
       <use x="190.869141" xlink:href="#DejaVuSans-56"/>
       <use x="254.492188" xlink:href="#DejaVuSans-45"/>
       <use x="290.576172" xlink:href="#DejaVuSans-48"/>
       <use x="354.199219" xlink:href="#DejaVuSans-57"/>
      </g>
     </g>
    </g>
    <g id="xtick_10">
     <g id="line2d_10">
      <g>
       <use style="stroke:#000000;stroke-width:0.8;" x="1055.015651" xlink:href="#m1a1c413de2" y="620.9352"/>
      </g>
     </g>
     <g id="text_10">
      <!-- 2018-10 -->
      <g transform="translate(1034.124245 635.533637)scale(0.1 -0.1)">
       <use xlink:href="#DejaVuSans-50"/>
       <use x="63.623047" xlink:href="#DejaVuSans-48"/>
       <use x="127.246094" xlink:href="#DejaVuSans-49"/>
       <use x="190.869141" xlink:href="#DejaVuSans-56"/>
       <use x="254.492188" xlink:href="#DejaVuSans-45"/>
       <use x="290.576172" xlink:href="#DejaVuSans-49"/>
       <use x="354.199219" xlink:href="#DejaVuSans-48"/>
      </g>
     </g>
    </g>
    <g id="xtick_11">
     <g id="line2d_11">
      <g>
       <use style="stroke:#000000;stroke-width:0.8;" x="1149.664155" xlink:href="#m1a1c413de2" y="620.9352"/>
      </g>
     </g>
     <g id="text_11">
      <!-- 2018-11 -->
      <g transform="translate(1128.772749 635.533637)scale(0.1 -0.1)">
       <use xlink:href="#DejaVuSans-50"/>
       <use x="63.623047" xlink:href="#DejaVuSans-48"/>
       <use x="127.246094" xlink:href="#DejaVuSans-49"/>
       <use x="190.869141" xlink:href="#DejaVuSans-56"/>
       <use x="254.492188" xlink:href="#DejaVuSans-45"/>
       <use x="290.576172" xlink:href="#DejaVuSans-49"/>
       <use x="354.199219" xlink:href="#DejaVuSans-49"/>
      </g>
     </g>
    </g>
    <g id="xtick_12">
     <g id="line2d_12">
      <g>
       <use style="stroke:#000000;stroke-width:0.8;" x="1241.259481" xlink:href="#m1a1c413de2" y="620.9352"/>
      </g>
     </g>
     <g id="text_12">
      <!-- 2018-12 -->
      <g transform="translate(1220.368075 635.533637)scale(0.1 -0.1)">
       <use xlink:href="#DejaVuSans-50"/>
       <use x="63.623047" xlink:href="#DejaVuSans-48"/>
       <use x="127.246094" xlink:href="#DejaVuSans-49"/>
       <use x="190.869141" xlink:href="#DejaVuSans-56"/>
       <use x="254.492188" xlink:href="#DejaVuSans-45"/>
       <use x="290.576172" xlink:href="#DejaVuSans-49"/>
       <use x="354.199219" xlink:href="#DejaVuSans-50"/>
      </g>
     </g>
    </g>
    <g id="text_13">
     <!-- Dates -->
     <defs>
      <path d="M 19.671875 64.796875 
L 19.671875 8.109375 
L 31.59375 8.109375 
Q 46.6875 8.109375 53.6875 14.9375 
Q 60.6875 21.78125 60.6875 36.53125 
Q 60.6875 51.171875 53.6875 57.984375 
Q 46.6875 64.796875 31.59375 64.796875 
z
M 9.8125 72.90625 
L 30.078125 72.90625 
Q 51.265625 72.90625 61.171875 64.09375 
Q 71.09375 55.28125 71.09375 36.53125 
Q 71.09375 17.671875 61.125 8.828125 
Q 51.171875 0 30.078125 0 
L 9.8125 0 
z
" id="DejaVuSans-68"/>
      <path d="M 34.28125 27.484375 
Q 23.390625 27.484375 19.1875 25 
Q 14.984375 22.515625 14.984375 16.5 
Q 14.984375 11.71875 18.140625 8.90625 
Q 21.296875 6.109375 26.703125 6.109375 
Q 34.1875 6.109375 38.703125 11.40625 
Q 43.21875 16.703125 43.21875 25.484375 
L 43.21875 27.484375 
z
M 52.203125 31.203125 
L 52.203125 0 
L 43.21875 0 
L 43.21875 8.296875 
Q 40.140625 3.328125 35.546875 0.953125 
Q 30.953125 -1.421875 24.3125 -1.421875 
Q 15.921875 -1.421875 10.953125 3.296875 
Q 6 8.015625 6 15.921875 
Q 6 25.140625 12.171875 29.828125 
Q 18.359375 34.515625 30.609375 34.515625 
L 43.21875 34.515625 
L 43.21875 35.40625 
Q 43.21875 41.609375 39.140625 45 
Q 35.0625 48.390625 27.6875 48.390625 
Q 23 48.390625 18.546875 47.265625 
Q 14.109375 46.140625 10.015625 43.890625 
L 10.015625 52.203125 
Q 14.9375 54.109375 19.578125 55.046875 
Q 24.21875 56 28.609375 56 
Q 40.484375 56 46.34375 49.84375 
Q 52.203125 43.703125 52.203125 31.203125 
z
" id="DejaVuSans-97"/>
      <path d="M 18.3125 70.21875 
L 18.3125 54.6875 
L 36.8125 54.6875 
L 36.8125 47.703125 
L 18.3125 47.703125 
L 18.3125 18.015625 
Q 18.3125 11.328125 20.140625 9.421875 
Q 21.96875 7.515625 27.59375 7.515625 
L 36.8125 7.515625 
L 36.8125 0 
L 27.59375 0 
Q 17.1875 0 13.234375 3.875 
Q 9.28125 7.765625 9.28125 18.015625 
L 9.28125 47.703125 
L 2.6875 47.703125 
L 2.6875 54.6875 
L 9.28125 54.6875 
L 9.28125 70.21875 
z
" id="DejaVuSans-116"/>
      <path d="M 56.203125 29.59375 
L 56.203125 25.203125 
L 14.890625 25.203125 
Q 15.484375 15.921875 20.484375 11.0625 
Q 25.484375 6.203125 34.421875 6.203125 
Q 39.59375 6.203125 44.453125 7.46875 
Q 49.3125 8.734375 54.109375 11.28125 
L 54.109375 2.78125 
Q 49.265625 0.734375 44.1875 -0.34375 
Q 39.109375 -1.421875 33.890625 -1.421875 
Q 20.796875 -1.421875 13.15625 6.1875 
Q 5.515625 13.8125 5.515625 26.8125 
Q 5.515625 40.234375 12.765625 48.109375 
Q 20.015625 56 32.328125 56 
Q 43.359375 56 49.78125 48.890625 
Q 56.203125 41.796875 56.203125 29.59375 
z
M 47.21875 32.234375 
Q 47.125 39.59375 43.09375 43.984375 
Q 39.0625 48.390625 32.421875 48.390625 
Q 24.90625 48.390625 20.390625 44.140625 
Q 15.875 39.890625 15.1875 32.171875 
z
" id="DejaVuSans-101"/>
      <path d="M 44.28125 53.078125 
L 44.28125 44.578125 
Q 40.484375 46.53125 36.375 47.5 
Q 32.28125 48.484375 27.875 48.484375 
Q 21.1875 48.484375 17.84375 46.4375 
Q 14.5 44.390625 14.5 40.28125 
Q 14.5 37.15625 16.890625 35.375 
Q 19.28125 33.59375 26.515625 31.984375 
L 29.59375 31.296875 
Q 39.15625 29.25 43.1875 25.515625 
Q 47.21875 21.78125 47.21875 15.09375 
Q 47.21875 7.46875 41.1875 3.015625 
Q 35.15625 -1.421875 24.609375 -1.421875 
Q 20.21875 -1.421875 15.453125 -0.5625 
Q 10.6875 0.296875 5.421875 2 
L 5.421875 11.28125 
Q 10.40625 8.6875 15.234375 7.390625 
Q 20.0625 6.109375 24.8125 6.109375 
Q 31.15625 6.109375 34.5625 8.28125 
Q 37.984375 10.453125 37.984375 14.40625 
Q 37.984375 18.0625 35.515625 20.015625 
Q 33.0625 21.96875 24.703125 23.78125 
L 21.578125 24.515625 
Q 13.234375 26.265625 9.515625 29.90625 
Q 5.8125 33.546875 5.8125 39.890625 
Q 5.8125 47.609375 11.28125 51.796875 
Q 16.75 56 26.8125 56 
Q 31.78125 56 36.171875 55.265625 
Q 40.578125 54.546875 44.28125 53.078125 
z
" id="DejaVuSans-115"/>
     </defs>
     <g transform="translate(693.924531 649.211762)scale(0.1 -0.1)">
      <use xlink:href="#DejaVuSans-68"/>
      <use x="77.001953" xlink:href="#DejaVuSans-97"/>
      <use x="138.28125" xlink:href="#DejaVuSans-116"/>
      <use x="177.490234" xlink:href="#DejaVuSans-101"/>
      <use x="239.013672" xlink:href="#DejaVuSans-115"/>
     </g>
    </g>
   </g>
   <g id="matplotlib.axis_2">
    <g id="ytick_1">
     <g id="line2d_13">
      <defs>
       <path d="M 0 0 
L -3.5 0 
" id="mc5a81625aa" style="stroke:#000000;stroke-width:0.8;"/>
      </defs>
      <g>
       <use style="stroke:#000000;stroke-width:0.8;" x="172.8" xlink:href="#mc5a81625aa" y="557.779176"/>
      </g>
     </g>
     <g id="text_14">
      <!-- 100 -->
      <g transform="translate(146.7125 561.578395)scale(0.1 -0.1)">
       <use xlink:href="#DejaVuSans-49"/>
       <use x="63.623047" xlink:href="#DejaVuSans-48"/>
       <use x="127.246094" xlink:href="#DejaVuSans-48"/>
      </g>
     </g>
    </g>
    <g id="ytick_2">
     <g id="line2d_14">
      <g>
       <use style="stroke:#000000;stroke-width:0.8;" x="172.8" xlink:href="#mc5a81625aa" y="443.002216"/>
      </g>
     </g>
     <g id="text_15">
      <!-- 120 -->
      <g transform="translate(146.7125 446.801435)scale(0.1 -0.1)">
       <use xlink:href="#DejaVuSans-49"/>
       <use x="63.623047" xlink:href="#DejaVuSans-50"/>
       <use x="127.246094" xlink:href="#DejaVuSans-48"/>
      </g>
     </g>
    </g>
    <g id="ytick_3">
     <g id="line2d_15">
      <g>
       <use style="stroke:#000000;stroke-width:0.8;" x="172.8" xlink:href="#mc5a81625aa" y="328.225256"/>
      </g>
     </g>
     <g id="text_16">
      <!-- 140 -->
      <g transform="translate(146.7125 332.024474)scale(0.1 -0.1)">
       <use xlink:href="#DejaVuSans-49"/>
       <use x="63.623047" xlink:href="#DejaVuSans-52"/>
       <use x="127.246094" xlink:href="#DejaVuSans-48"/>
      </g>
     </g>
    </g>
    <g id="ytick_4">
     <g id="line2d_16">
      <g>
       <use style="stroke:#000000;stroke-width:0.8;" x="172.8" xlink:href="#mc5a81625aa" y="213.448295"/>
      </g>
     </g>
     <g id="text_17">
      <!-- 160 -->
      <g transform="translate(146.7125 217.247514)scale(0.1 -0.1)">
       <use xlink:href="#DejaVuSans-49"/>
       <use x="63.623047" xlink:href="#DejaVuSans-54"/>
       <use x="127.246094" xlink:href="#DejaVuSans-48"/>
      </g>
     </g>
    </g>
    <g id="ytick_5">
     <g id="line2d_17">
      <g>
       <use style="stroke:#000000;stroke-width:0.8;" x="172.8" xlink:href="#mc5a81625aa" y="98.671335"/>
      </g>
     </g>
     <g id="text_18">
      <!-- 180 -->
      <g transform="translate(146.7125 102.470554)scale(0.1 -0.1)">
       <use xlink:href="#DejaVuSans-49"/>
       <use x="63.623047" xlink:href="#DejaVuSans-56"/>
       <use x="127.246094" xlink:href="#DejaVuSans-48"/>
      </g>
     </g>
    </g>
    <g id="text_19">
     <!-- Stock closing values -->
     <defs>
      <path d="M 53.515625 70.515625 
L 53.515625 60.890625 
Q 47.90625 63.578125 42.921875 64.890625 
Q 37.9375 66.21875 33.296875 66.21875 
Q 25.25 66.21875 20.875 63.09375 
Q 16.5 59.96875 16.5 54.203125 
Q 16.5 49.359375 19.40625 46.890625 
Q 22.3125 44.4375 30.421875 42.921875 
L 36.375 41.703125 
Q 47.40625 39.59375 52.65625 34.296875 
Q 57.90625 29 57.90625 20.125 
Q 57.90625 9.515625 50.796875 4.046875 
Q 43.703125 -1.421875 29.984375 -1.421875 
Q 24.8125 -1.421875 18.96875 -0.25 
Q 13.140625 0.921875 6.890625 3.21875 
L 6.890625 13.375 
Q 12.890625 10.015625 18.65625 8.296875 
Q 24.421875 6.59375 29.984375 6.59375 
Q 38.421875 6.59375 43.015625 9.90625 
Q 47.609375 13.234375 47.609375 19.390625 
Q 47.609375 24.75 44.3125 27.78125 
Q 41.015625 30.8125 33.5 32.328125 
L 27.484375 33.5 
Q 16.453125 35.6875 11.515625 40.375 
Q 6.59375 45.0625 6.59375 53.421875 
Q 6.59375 63.09375 13.40625 68.65625 
Q 20.21875 74.21875 32.171875 74.21875 
Q 37.3125 74.21875 42.625 73.28125 
Q 47.953125 72.359375 53.515625 70.515625 
z
" id="DejaVuSans-83"/>
      <path d="M 30.609375 48.390625 
Q 23.390625 48.390625 19.1875 42.75 
Q 14.984375 37.109375 14.984375 27.296875 
Q 14.984375 17.484375 19.15625 11.84375 
Q 23.34375 6.203125 30.609375 6.203125 
Q 37.796875 6.203125 41.984375 11.859375 
Q 46.1875 17.53125 46.1875 27.296875 
Q 46.1875 37.015625 41.984375 42.703125 
Q 37.796875 48.390625 30.609375 48.390625 
z
M 30.609375 56 
Q 42.328125 56 49.015625 48.375 
Q 55.71875 40.765625 55.71875 27.296875 
Q 55.71875 13.875 49.015625 6.21875 
Q 42.328125 -1.421875 30.609375 -1.421875 
Q 18.84375 -1.421875 12.171875 6.21875 
Q 5.515625 13.875 5.515625 27.296875 
Q 5.515625 40.765625 12.171875 48.375 
Q 18.84375 56 30.609375 56 
z
" id="DejaVuSans-111"/>
      <path d="M 48.78125 52.59375 
L 48.78125 44.1875 
Q 44.96875 46.296875 41.140625 47.34375 
Q 37.3125 48.390625 33.40625 48.390625 
Q 24.65625 48.390625 19.8125 42.84375 
Q 14.984375 37.3125 14.984375 27.296875 
Q 14.984375 17.28125 19.8125 11.734375 
Q 24.65625 6.203125 33.40625 6.203125 
Q 37.3125 6.203125 41.140625 7.25 
Q 44.96875 8.296875 48.78125 10.40625 
L 48.78125 2.09375 
Q 45.015625 0.34375 40.984375 -0.53125 
Q 36.96875 -1.421875 32.421875 -1.421875 
Q 20.0625 -1.421875 12.78125 6.34375 
Q 5.515625 14.109375 5.515625 27.296875 
Q 5.515625 40.671875 12.859375 48.328125 
Q 20.21875 56 33.015625 56 
Q 37.15625 56 41.109375 55.140625 
Q 45.0625 54.296875 48.78125 52.59375 
z
" id="DejaVuSans-99"/>
      <path d="M 9.078125 75.984375 
L 18.109375 75.984375 
L 18.109375 31.109375 
L 44.921875 54.6875 
L 56.390625 54.6875 
L 27.390625 29.109375 
L 57.625 0 
L 45.90625 0 
L 18.109375 26.703125 
L 18.109375 0 
L 9.078125 0 
z
" id="DejaVuSans-107"/>
      <path id="DejaVuSans-32"/>
      <path d="M 9.421875 75.984375 
L 18.40625 75.984375 
L 18.40625 0 
L 9.421875 0 
z
" id="DejaVuSans-108"/>
      <path d="M 9.421875 54.6875 
L 18.40625 54.6875 
L 18.40625 0 
L 9.421875 0 
z
M 9.421875 75.984375 
L 18.40625 75.984375 
L 18.40625 64.59375 
L 9.421875 64.59375 
z
" id="DejaVuSans-105"/>
      <path d="M 54.890625 33.015625 
L 54.890625 0 
L 45.90625 0 
L 45.90625 32.71875 
Q 45.90625 40.484375 42.875 44.328125 
Q 39.84375 48.1875 33.796875 48.1875 
Q 26.515625 48.1875 22.3125 43.546875 
Q 18.109375 38.921875 18.109375 30.90625 
L 18.109375 0 
L 9.078125 0 
L 9.078125 54.6875 
L 18.109375 54.6875 
L 18.109375 46.1875 
Q 21.34375 51.125 25.703125 53.5625 
Q 30.078125 56 35.796875 56 
Q 45.21875 56 50.046875 50.171875 
Q 54.890625 44.34375 54.890625 33.015625 
z
" id="DejaVuSans-110"/>
      <path d="M 45.40625 27.984375 
Q 45.40625 37.75 41.375 43.109375 
Q 37.359375 48.484375 30.078125 48.484375 
Q 22.859375 48.484375 18.828125 43.109375 
Q 14.796875 37.75 14.796875 27.984375 
Q 14.796875 18.265625 18.828125 12.890625 
Q 22.859375 7.515625 30.078125 7.515625 
Q 37.359375 7.515625 41.375 12.890625 
Q 45.40625 18.265625 45.40625 27.984375 
z
M 54.390625 6.78125 
Q 54.390625 -7.171875 48.1875 -13.984375 
Q 42 -20.796875 29.203125 -20.796875 
Q 24.46875 -20.796875 20.265625 -20.09375 
Q 16.0625 -19.390625 12.109375 -17.921875 
L 12.109375 -9.1875 
Q 16.0625 -11.328125 19.921875 -12.34375 
Q 23.78125 -13.375 27.78125 -13.375 
Q 36.625 -13.375 41.015625 -8.765625 
Q 45.40625 -4.15625 45.40625 5.171875 
L 45.40625 9.625 
Q 42.625 4.78125 38.28125 2.390625 
Q 33.9375 0 27.875 0 
Q 17.828125 0 11.671875 7.65625 
Q 5.515625 15.328125 5.515625 27.984375 
Q 5.515625 40.671875 11.671875 48.328125 
Q 17.828125 56 27.875 56 
Q 33.9375 56 38.28125 53.609375 
Q 42.625 51.21875 45.40625 46.390625 
L 45.40625 54.6875 
L 54.390625 54.6875 
z
" id="DejaVuSans-103"/>
      <path d="M 2.984375 54.6875 
L 12.5 54.6875 
L 29.59375 8.796875 
L 46.6875 54.6875 
L 56.203125 54.6875 
L 35.6875 0 
L 23.484375 0 
z
" id="DejaVuSans-118"/>
      <path d="M 8.5 21.578125 
L 8.5 54.6875 
L 17.484375 54.6875 
L 17.484375 21.921875 
Q 17.484375 14.15625 20.5 10.265625 
Q 23.53125 6.390625 29.59375 6.390625 
Q 36.859375 6.390625 41.078125 11.03125 
Q 45.3125 15.671875 45.3125 23.6875 
L 45.3125 54.6875 
L 54.296875 54.6875 
L 54.296875 0 
L 45.3125 0 
L 45.3125 8.40625 
Q 42.046875 3.421875 37.71875 1 
Q 33.40625 -1.421875 27.6875 -1.421875 
Q 18.265625 -1.421875 13.375 4.4375 
Q 8.5 10.296875 8.5 21.578125 
z
M 31.109375 56 
z
" id="DejaVuSans-117"/>
     </defs>
     <g transform="translate(140.632812 403.141681)rotate(-90)scale(0.1 -0.1)">
      <use xlink:href="#DejaVuSans-83"/>
      <use x="63.476562" xlink:href="#DejaVuSans-116"/>
      <use x="102.685547" xlink:href="#DejaVuSans-111"/>
      <use x="163.867188" xlink:href="#DejaVuSans-99"/>
      <use x="218.847656" xlink:href="#DejaVuSans-107"/>
      <use x="276.757812" xlink:href="#DejaVuSans-32"/>
      <use x="308.544922" xlink:href="#DejaVuSans-99"/>
      <use x="363.525391" xlink:href="#DejaVuSans-108"/>
      <use x="391.308594" xlink:href="#DejaVuSans-111"/>
      <use x="452.490234" xlink:href="#DejaVuSans-115"/>
      <use x="504.589844" xlink:href="#DejaVuSans-105"/>
      <use x="532.373047" xlink:href="#DejaVuSans-110"/>
      <use x="595.751953" xlink:href="#DejaVuSans-103"/>
      <use x="659.228516" xlink:href="#DejaVuSans-32"/>
      <use x="691.015625" xlink:href="#DejaVuSans-118"/>
      <use x="750.195312" xlink:href="#DejaVuSans-97"/>
      <use x="811.474609" xlink:href="#DejaVuSans-108"/>
      <use x="839.257812" xlink:href="#DejaVuSans-117"/>
      <use x="902.636719" xlink:href="#DejaVuSans-101"/>
      <use x="964.160156" xlink:href="#DejaVuSans-115"/>
     </g>
    </g>
   </g>
   <g id="line2d_18">
    <path clip-path="url(#p4c2c4fd489)" d="M 221.498182 204.840023 
L 224.551359 225.212951 
L 227.604537 225.786784 
L 230.657714 191.066823 
L 233.710892 203.118352 
L 242.870425 203.979231 
L 245.923602 187.623479 
L 248.97678 199.101175 
L 252.029957 194.51008 
L 255.083135 196.231751 
L 264.242667 188.197399 
L 267.295845 230.951799 
L 270.349023 183.606303 
L 273.4022 199.961968 
L 276.455378 182.458551 
L 285.61491 185.901808 
L 288.668088 137.982479 
L 291.721265 108.1404 
L 294.774443 172.415567 
L 306.987153 199.961968 
L 310.040331 212.300543 
L 313.093508 231.812592 
L 316.146686 257.350448 
L 319.199863 252.472479 
L 328.359396 227.795415 
L 331.412573 245.298919 
L 334.465751 248.168343 
L 337.518928 235.255935 
L 340.572106 234.968975 
L 349.731639 163.807295 
L 355.837994 180.16296 
L 361.944349 257.063575 
L 371.103881 306.130656 
L 374.157059 300.678768 
L 377.210237 294.366087 
L 380.263414 308.713207 
L 383.316592 296.374632 
L 392.476124 306.704576 
L 395.529302 319.903943 
L 398.582479 317.034519 
L 401.635657 337.98128 
L 413.848367 335.111856 
L 416.901545 355.484784 
L 419.954722 370.692696 
L 423.0079 360.649712 
L 426.061077 376.718504 
L 435.22061 373.56212 
L 438.273787 319.330024 
L 441.326965 295.22688 
L 444.380142 306.704576 
L 447.43332 306.417616 
L 456.592853 366.38856 
L 459.64603 352.04144 
L 462.699208 353.476152 
L 465.752385 357.206455 
L 468.805563 367.249439 
L 477.965095 319.616984 
L 481.018273 306.991535 
L 484.071451 315.025888 
L 499.337338 317.321479 
L 502.390516 297.522384 
L 505.443693 328.799175 
L 508.496871 283.462224 
L 511.550048 268.541271 
L 520.709581 251.89856 
L 523.762759 252.185519 
L 526.815936 267.393432 
L 529.869114 277.436416 
L 532.922291 268.254311 
L 542.081824 271.697568 
L 545.135001 283.175264 
L 548.188179 318.756191 
L 551.241357 297.522384 
L 554.294534 307.565368 
L 563.454067 304.409071 
L 566.507244 317.608352 
L 569.560422 349.172016 
L 572.613599 343.433168 
L 575.666777 309.860959 
L 584.826309 276.862583 
L 590.932665 303.548192 
L 593.985842 310.721752 
L 597.03902 328.799175 
L 606.198552 307.852328 
L 609.25173 296.087672 
L 612.304907 303.548192 
L 615.358085 335.972735 
L 618.411262 312.730383 
L 627.570795 312.730383 
L 630.623973 330.233887 
L 633.67715 373.84908 
L 636.730328 385.613736 
L 639.783505 404.551951 
L 648.943038 386.187655 
L 651.996215 368.971111 
L 655.049393 347.737304 
L 658.102571 334.824896 
L 661.155748 320.764736 
L 670.315281 297.235511 
L 673.368458 325.929751 
L 676.421636 337.120487 
L 679.474813 346.302592 
L 682.527991 345.728759 
L 691.687524 376.718504 
L 694.740701 398.526144 
L 697.793879 384.179024 
L 700.847056 377.579383 
L 703.900234 372.701328 
L 713.059766 364.380015 
L 716.112944 366.38856 
L 719.166121 346.876512 
L 722.219299 356.058703 
L 725.272476 378.153216 
L 734.432009 383.318231 
L 737.485187 397.95227 
L 740.538364 413.734102 
L 743.591542 431.52452 
L 746.644719 434.393944 
L 755.804252 461.366512 
L 758.857429 454.192952 
L 761.910607 470.835617 
L 764.963785 483.174152 
L 768.016962 485.182737 
L 777.176495 479.443889 
L 780.229672 483.174152 
L 783.28285 482.600278 
L 786.336027 481.73944 
L 789.389205 468.540072 
L 798.548738 460.21876 
L 801.601915 445.87164 
L 804.655093 464.809855 
L 807.70827 446.158599 
L 810.761448 457.923209 
L 819.92098 482.887192 
L 822.974158 438.41112 
L 826.027335 456.488497 
L 829.080513 442.715256 
L 832.133691 441.567504 
L 841.293223 406.847456 
L 844.346401 370.979656 
L 847.399578 375.283792 
L 850.452756 334.824896 
L 853.505933 340.563744 
L 862.665466 259.07212 
L 865.718643 251.6116 
L 868.771821 269.689023 
L 871.824999 286.618608 
L 874.878176 273.13228 
L 884.037709 267.680392 
L 887.090886 292.931375 
L 890.144064 278.871128 
L 893.197241 243.577247 
L 896.250419 280.5928 
L 905.409952 295.800799 
L 908.463129 292.070496 
L 914.569484 312.730383 
L 917.622662 292.644415 
L 926.782194 265.097927 
L 929.835372 265.671847 
L 935.941727 271.697568 
L 938.994905 285.757815 
L 948.154437 270.549816 
L 951.207615 306.130656 
L 954.260792 284.036143 
L 957.31397 269.975983 
L 960.367147 253.907191 
L 969.52668 261.080751 
L 972.579858 296.374632 
L 975.633035 302.11348 
L 978.686213 293.218248 
L 981.73939 282.027512 
L 990.898923 290.348824 
L 993.9521 325.355832 
L 997.005278 365.240808 
L 1003.111633 360.362839 
L 1012.271166 355.484784 
L 1015.324343 482.600278 
L 1018.377521 463.949022 
L 1024.483876 492.069383 
L 1033.643408 513.590063 
L 1036.696586 503.547079 
L 1039.749763 505.268705 
L 1045.856119 560.6486 
L 1055.015651 532.528233 
L 1061.122006 538.84096 
L 1064.175184 538.554047 
L 1067.228361 562.944151 
L 1076.387894 572.126296 
L 1079.441072 596.5164 
L 1082.494249 583.030119 
L 1085.547427 592.499224 
L 1088.600604 577.865144 
L 1097.760137 572.987135 
L 1100.813314 556.344464 
L 1103.866492 560.074727 
L 1109.972847 544.005929 
L 1119.13238 542.858183 
L 1122.185557 548.023152 
L 1125.238735 542.571217 
L 1128.291912 566.674408 
L 1131.34509 564.378863 
L 1140.504622 517.033367 
L 1143.5578 500.390696 
L 1146.610977 496.660433 
L 1149.664155 513.590063 
L 1152.717333 500.964569 
L 1161.876865 493.504095 
L 1164.930043 497.808231 
L 1174.089575 491.782424 
L 1186.302286 507.851215 
L 1195.461818 470.548703 
L 1195.461818 470.548703 
" style="fill:none;stroke:#ff0000;stroke-linecap:square;stroke-width:1.5;"/>
   </g>
   <g id="line2d_19">
    <path clip-path="url(#p4c2c4fd489)" d="M 221.498182 186.855421 
L 224.551359 205.399498 
L 227.604537 173.65592 
L 230.657714 218.867307 
L 233.710892 201.85677 
L 242.870425 204.554518 
L 245.923602 196.965482 
L 248.97678 180.136847 
L 252.029957 174.85388 
L 255.083135 183.206747 
L 264.242667 201.870162 
L 267.295845 188.97259 
L 270.349023 198.807181 
L 273.4022 230.104596 
L 276.455378 173.899973 
L 285.61491 181.585413 
L 288.668088 201.217361 
L 291.721265 179.406722 
L 294.774443 180.803568 
L 306.987153 202.583461 
L 310.040331 210.418718 
L 313.093508 200.851473 
L 316.146686 180.551691 
L 319.199863 200.750569 
L 328.359396 234.314981 
L 331.412573 208.144474 
L 334.465751 151.237769 
L 337.518928 187.861685 
L 340.572106 190.937326 
L 349.731639 198.361941 
L 355.837994 222.907449 
L 358.891171 200.188425 
L 361.944349 211.489451 
L 371.103881 195.816398 
L 374.157059 189.8318 
L 377.210237 196.223432 
L 380.263414 230.122297 
L 383.316592 200.892828 
L 392.476124 209.295263 
L 395.529302 203.526145 
L 398.582479 201.809551 
L 401.635657 186.89435 
L 413.848367 168.670646 
L 419.954722 187.823017 
L 423.0079 216.636286 
L 426.061077 184.244557 
L 435.22061 186.955078 
L 438.273787 191.519416 
L 441.326965 157.580894 
L 444.380142 194.669231 
L 447.43332 192.390722 
L 456.592853 210.895056 
L 459.64603 177.421772 
L 462.699208 163.902698 
L 465.752385 243.592173 
L 468.805563 223.59374 
L 477.965095 216.852049 
L 481.018273 204.796247 
L 484.071451 215.576144 
L 499.337338 218.175292 
L 502.390516 227.882279 
L 505.443693 182.91031 
L 508.496871 135.06484 
L 511.550048 185.514404 
L 520.709581 197.467805 
L 523.762759 200.710458 
L 526.815936 196.676899 
L 529.869114 186.308676 
L 532.922291 191.23757 
L 542.081824 213.351184 
L 545.135001 200.779288 
L 548.188179 198.856785 
L 551.241357 195.358751 
L 554.294534 181.838475 
L 563.454067 217.54247 
L 566.507244 203.161332 
L 569.560422 202.852698 
L 572.613599 207.421768 
L 575.666777 209.233833 
L 584.826309 215.214211 
L 593.985842 167.678105 
L 597.03902 212.976079 
L 606.198552 250.972515 
L 609.25173 210.231173 
L 612.304907 203.005039 
L 615.358085 195.372168 
L 618.411262 185.478762 
L 627.570795 205.242583 
L 630.623973 197.004857 
L 633.67715 215.023259 
L 636.730328 215.279736 
L 639.783505 190.002024 
L 648.943038 193.356454 
L 651.996215 234.854403 
L 655.049393 178.967364 
L 658.102571 195.044615 
L 661.155748 234.566766 
L 670.315281 224.946818 
L 673.368458 218.816576 
L 676.421636 227.466344 
L 679.474813 206.253153 
L 682.527991 196.22695 
L 691.687524 196.11129 
L 694.740701 194.817848 
L 697.793879 157.770665 
L 700.847056 202.583986 
L 703.900234 184.892473 
L 713.059766 213.200917 
L 716.112944 211.872419 
L 719.166121 182.024389 
L 722.219299 211.854912 
L 725.272476 181.241397 
L 734.432009 210.107758 
L 737.485187 198.975903 
L 740.538364 183.460287 
L 743.591542 205.408259 
L 746.644719 199.546259 
L 755.804252 182.882053 
L 758.857429 174.195027 
L 761.910607 218.291963 
L 764.963785 206.710503 
L 768.016962 181.624232 
L 777.176495 231.095498 
L 780.229672 178.488228 
L 783.28285 188.476234 
L 786.336027 171.029671 
L 789.389205 201.242827 
L 798.548738 187.559662 
L 801.601915 188.289511 
L 804.655093 205.524124 
L 807.70827 183.726466 
L 810.761448 170.000457 
L 819.92098 192.317622 
L 822.974158 214.399699 
L 826.027335 176.621936 
L 829.080513 171.546609 
L 832.133691 194.156328 
L 841.293223 184.747462 
L 844.346401 197.643176 
L 847.399578 206.587927 
L 850.452756 202.376966 
L 853.505933 222.69094 
L 862.665466 208.557404 
L 865.718643 148.843976 
L 868.771821 189.686868 
L 871.824999 221.575376 
L 874.878176 182.774676 
L 884.037709 183.497919 
L 887.090886 192.724193 
L 890.144064 177.704391 
L 893.197241 193.908838 
L 896.250419 199.593543 
L 905.409952 210.320787 
L 908.463129 209.90245 
L 914.569484 174.594011 
L 917.622662 188.282127 
L 926.782194 200.527862 
L 929.835372 216.338471 
L 935.941727 209.379605 
L 938.994905 189.972165 
L 948.154437 213.266299 
L 951.207615 150.270102 
L 954.260792 180.725497 
L 957.31397 165.644317 
L 960.367147 192.653195 
L 969.52668 190.40892 
L 972.579858 197.445757 
L 975.633035 216.158194 
L 978.686213 180.613547 
L 981.73939 198.812212 
L 990.898923 230.571579 
L 993.9521 224.201054 
L 997.005278 213.624878 
L 1003.111633 207.902791 
L 1012.271166 219.211854 
L 1015.324343 211.984459 
L 1018.377521 200.516679 
L 1024.483876 203.453855 
L 1033.643408 198.53379 
L 1036.696586 220.800103 
L 1039.749763 173.426063 
L 1042.802941 180.847199 
L 1045.856119 172.756306 
L 1055.015651 195.117566 
L 1061.122006 216.598868 
L 1064.175184 211.085611 
L 1067.228361 202.72743 
L 1076.387894 206.113582 
L 1079.441072 181.151473 
L 1082.494249 201.518705 
L 1085.547427 216.538004 
L 1088.600604 191.526226 
L 1097.760137 236.371324 
L 1100.813314 214.799698 
L 1103.866492 189.320336 
L 1109.972847 202.703073 
L 1119.13238 200.964507 
L 1122.185557 216.870772 
L 1125.238735 206.542878 
L 1128.291912 195.768447 
L 1131.34509 191.218567 
L 1140.504622 209.55803 
L 1143.5578 181.887763 
L 1146.610977 180.040527 
L 1149.664155 192.64431 
L 1152.717333 179.270444 
L 1161.876865 226.079171 
L 1164.930043 168.456875 
L 1174.089575 189.014697 
L 1183.249108 206.712192 
L 1186.302286 201.675762 
L 1195.461818 164.012671 
L 1195.461818 164.012671 
" style="fill:none;stroke:#0000ff;stroke-linecap:square;stroke-width:1.5;"/>
   </g>
   <g id="patch_3">
    <path d="M 172.8 620.9352 
L 172.8 83.7216 
" style="fill:none;stroke:#000000;stroke-linecap:square;stroke-linejoin:miter;stroke-width:0.8;"/>
   </g>
   <g id="patch_4">
    <path d="M 1244.16 620.9352 
L 1244.16 83.7216 
" style="fill:none;stroke:#000000;stroke-linecap:square;stroke-linejoin:miter;stroke-width:0.8;"/>
   </g>
   <g id="patch_5">
    <path d="M 172.8 620.9352 
L 1244.16 620.9352 
" style="fill:none;stroke:#000000;stroke-linecap:square;stroke-linejoin:miter;stroke-width:0.8;"/>
   </g>
   <g id="patch_6">
    <path d="M 172.8 83.7216 
L 1244.16 83.7216 
" style="fill:none;stroke:#000000;stroke-linecap:square;stroke-linejoin:miter;stroke-width:0.8;"/>
   </g>
   <g id="text_20">
    <!-- News - Bayesian Ridge -->
    <defs>
     <path d="M 9.8125 72.90625 
L 23.09375 72.90625 
L 55.421875 11.921875 
L 55.421875 72.90625 
L 64.984375 72.90625 
L 64.984375 0 
L 51.703125 0 
L 19.390625 60.984375 
L 19.390625 0 
L 9.8125 0 
z
" id="DejaVuSans-78"/>
     <path d="M 4.203125 54.6875 
L 13.1875 54.6875 
L 24.421875 12.015625 
L 35.59375 54.6875 
L 46.1875 54.6875 
L 57.421875 12.015625 
L 68.609375 54.6875 
L 77.59375 54.6875 
L 63.28125 0 
L 52.6875 0 
L 40.921875 44.828125 
L 29.109375 0 
L 18.5 0 
z
" id="DejaVuSans-119"/>
     <path d="M 19.671875 34.8125 
L 19.671875 8.109375 
L 35.5 8.109375 
Q 43.453125 8.109375 47.28125 11.40625 
Q 51.125 14.703125 51.125 21.484375 
Q 51.125 28.328125 47.28125 31.5625 
Q 43.453125 34.8125 35.5 34.8125 
z
M 19.671875 64.796875 
L 19.671875 42.828125 
L 34.28125 42.828125 
Q 41.5 42.828125 45.03125 45.53125 
Q 48.578125 48.25 48.578125 53.8125 
Q 48.578125 59.328125 45.03125 62.0625 
Q 41.5 64.796875 34.28125 64.796875 
z
M 9.8125 72.90625 
L 35.015625 72.90625 
Q 46.296875 72.90625 52.390625 68.21875 
Q 58.5 63.53125 58.5 54.890625 
Q 58.5 48.1875 55.375 44.234375 
Q 52.25 40.28125 46.1875 39.3125 
Q 53.46875 37.75 57.5 32.78125 
Q 61.53125 27.828125 61.53125 20.40625 
Q 61.53125 10.640625 54.890625 5.3125 
Q 48.25 0 35.984375 0 
L 9.8125 0 
z
" id="DejaVuSans-66"/>
     <path d="M 32.171875 -5.078125 
Q 28.375 -14.84375 24.75 -17.8125 
Q 21.140625 -20.796875 15.09375 -20.796875 
L 7.90625 -20.796875 
L 7.90625 -13.28125 
L 13.1875 -13.28125 
Q 16.890625 -13.28125 18.9375 -11.515625 
Q 21 -9.765625 23.484375 -3.21875 
L 25.09375 0.875 
L 2.984375 54.6875 
L 12.5 54.6875 
L 29.59375 11.921875 
L 46.6875 54.6875 
L 56.203125 54.6875 
z
" id="DejaVuSans-121"/>
     <path d="M 44.390625 34.1875 
Q 47.5625 33.109375 50.5625 29.59375 
Q 53.5625 26.078125 56.59375 19.921875 
L 66.609375 0 
L 56 0 
L 46.6875 18.703125 
Q 43.0625 26.03125 39.671875 28.421875 
Q 36.28125 30.8125 30.421875 30.8125 
L 19.671875 30.8125 
L 19.671875 0 
L 9.8125 0 
L 9.8125 72.90625 
L 32.078125 72.90625 
Q 44.578125 72.90625 50.734375 67.671875 
Q 56.890625 62.453125 56.890625 51.90625 
Q 56.890625 45.015625 53.6875 40.46875 
Q 50.484375 35.9375 44.390625 34.1875 
z
M 19.671875 64.796875 
L 19.671875 38.921875 
L 32.078125 38.921875 
Q 39.203125 38.921875 42.84375 42.21875 
Q 46.484375 45.515625 46.484375 51.90625 
Q 46.484375 58.296875 42.84375 61.546875 
Q 39.203125 64.796875 32.078125 64.796875 
z
" id="DejaVuSans-82"/>
     <path d="M 45.40625 46.390625 
L 45.40625 75.984375 
L 54.390625 75.984375 
L 54.390625 0 
L 45.40625 0 
L 45.40625 8.203125 
Q 42.578125 3.328125 38.25 0.953125 
Q 33.9375 -1.421875 27.875 -1.421875 
Q 17.96875 -1.421875 11.734375 6.484375 
Q 5.515625 14.40625 5.515625 27.296875 
Q 5.515625 40.1875 11.734375 48.09375 
Q 17.96875 56 27.875 56 
Q 33.9375 56 38.25 53.625 
Q 42.578125 51.265625 45.40625 46.390625 
z
M 14.796875 27.296875 
Q 14.796875 17.390625 18.875 11.75 
Q 22.953125 6.109375 30.078125 6.109375 
Q 37.203125 6.109375 41.296875 11.75 
Q 45.40625 17.390625 45.40625 27.296875 
Q 45.40625 37.203125 41.296875 42.84375 
Q 37.203125 48.484375 30.078125 48.484375 
Q 22.953125 48.484375 18.875 42.84375 
Q 14.796875 37.203125 14.796875 27.296875 
z
" id="DejaVuSans-100"/>
    </defs>
    <g transform="translate(639.927187 77.7216)scale(0.12 -0.12)">
     <use xlink:href="#DejaVuSans-78"/>
     <use x="74.804688" xlink:href="#DejaVuSans-101"/>
     <use x="136.328125" xlink:href="#DejaVuSans-119"/>
     <use x="218.115234" xlink:href="#DejaVuSans-115"/>
     <use x="270.214844" xlink:href="#DejaVuSans-32"/>
     <use x="302.001953" xlink:href="#DejaVuSans-45"/>
     <use x="338.085938" xlink:href="#DejaVuSans-32"/>
     <use x="369.873047" xlink:href="#DejaVuSans-66"/>
     <use x="438.476562" xlink:href="#DejaVuSans-97"/>
     <use x="499.755859" xlink:href="#DejaVuSans-121"/>
     <use x="558.935547" xlink:href="#DejaVuSans-101"/>
     <use x="620.458984" xlink:href="#DejaVuSans-115"/>
     <use x="672.558594" xlink:href="#DejaVuSans-105"/>
     <use x="700.341797" xlink:href="#DejaVuSans-97"/>
     <use x="761.621094" xlink:href="#DejaVuSans-110"/>
     <use x="825" xlink:href="#DejaVuSans-32"/>
     <use x="856.787109" xlink:href="#DejaVuSans-82"/>
     <use x="926.269531" xlink:href="#DejaVuSans-105"/>
     <use x="954.052734" xlink:href="#DejaVuSans-100"/>
     <use x="1017.529297" xlink:href="#DejaVuSans-103"/>
     <use x="1081.005859" xlink:href="#DejaVuSans-101"/>
    </g>
   </g>
   <g id="legend_1">
    <g id="patch_7">
     <path d="M 1080.513125 121.07785 
L 1237.16 121.07785 
Q 1239.16 121.07785 1239.16 119.07785 
L 1239.16 90.7216 
Q 1239.16 88.7216 1237.16 88.7216 
L 1080.513125 88.7216 
Q 1078.513125 88.7216 1078.513125 90.7216 
L 1078.513125 119.07785 
Q 1078.513125 121.07785 1080.513125 121.07785 
z
" style="fill:#ffffff;opacity:0.8;stroke:#cccccc;stroke-linejoin:miter;"/>
    </g>
    <g id="line2d_20">
     <path d="M 1082.513125 96.820037 
L 1102.513125 96.820037 
" style="fill:none;stroke:#ff0000;stroke-linecap:square;stroke-width:1.5;"/>
    </g>
    <g id="line2d_21"/>
    <g id="text_21">
     <!-- Original Value -->
     <defs>
      <path d="M 39.40625 66.21875 
Q 28.65625 66.21875 22.328125 58.203125 
Q 16.015625 50.203125 16.015625 36.375 
Q 16.015625 22.609375 22.328125 14.59375 
Q 28.65625 6.59375 39.40625 6.59375 
Q 50.140625 6.59375 56.421875 14.59375 
Q 62.703125 22.609375 62.703125 36.375 
Q 62.703125 50.203125 56.421875 58.203125 
Q 50.140625 66.21875 39.40625 66.21875 
z
M 39.40625 74.21875 
Q 54.734375 74.21875 63.90625 63.9375 
Q 73.09375 53.65625 73.09375 36.375 
Q 73.09375 19.140625 63.90625 8.859375 
Q 54.734375 -1.421875 39.40625 -1.421875 
Q 24.03125 -1.421875 14.8125 8.828125 
Q 5.609375 19.09375 5.609375 36.375 
Q 5.609375 53.65625 14.8125 63.9375 
Q 24.03125 74.21875 39.40625 74.21875 
z
" id="DejaVuSans-79"/>
      <path d="M 41.109375 46.296875 
Q 39.59375 47.171875 37.8125 47.578125 
Q 36.03125 48 33.890625 48 
Q 26.265625 48 22.1875 43.046875 
Q 18.109375 38.09375 18.109375 28.8125 
L 18.109375 0 
L 9.078125 0 
L 9.078125 54.6875 
L 18.109375 54.6875 
L 18.109375 46.1875 
Q 20.953125 51.171875 25.484375 53.578125 
Q 30.03125 56 36.53125 56 
Q 37.453125 56 38.578125 55.875 
Q 39.703125 55.765625 41.0625 55.515625 
z
" id="DejaVuSans-114"/>
      <path d="M 28.609375 0 
L 0.78125 72.90625 
L 11.078125 72.90625 
L 34.1875 11.53125 
L 57.328125 72.90625 
L 67.578125 72.90625 
L 39.796875 0 
z
" id="DejaVuSans-86"/>
     </defs>
     <g transform="translate(1110.513125 100.320037)scale(0.1 -0.1)">
      <use xlink:href="#DejaVuSans-79"/>
      <use x="78.710938" xlink:href="#DejaVuSans-114"/>
      <use x="119.824219" xlink:href="#DejaVuSans-105"/>
      <use x="147.607422" xlink:href="#DejaVuSans-103"/>
      <use x="211.083984" xlink:href="#DejaVuSans-105"/>
      <use x="238.867188" xlink:href="#DejaVuSans-110"/>
      <use x="302.246094" xlink:href="#DejaVuSans-97"/>
      <use x="363.525391" xlink:href="#DejaVuSans-108"/>
      <use x="391.308594" xlink:href="#DejaVuSans-32"/>
      <use x="423.095703" xlink:href="#DejaVuSans-86"/>
      <use x="491.394531" xlink:href="#DejaVuSans-97"/>
      <use x="552.673828" xlink:href="#DejaVuSans-108"/>
      <use x="580.457031" xlink:href="#DejaVuSans-117"/>
      <use x="643.835938" xlink:href="#DejaVuSans-101"/>
     </g>
    </g>
    <g id="line2d_22">
     <path d="M 1082.513125 111.498162 
L 1102.513125 111.498162 
" style="fill:none;stroke:#0000ff;stroke-linecap:square;stroke-width:1.5;"/>
    </g>
    <g id="line2d_23"/>
    <g id="text_22">
     <!-- News Analysis Prediction -->
     <defs>
      <path d="M 34.1875 63.1875 
L 20.796875 26.90625 
L 47.609375 26.90625 
z
M 28.609375 72.90625 
L 39.796875 72.90625 
L 67.578125 0 
L 57.328125 0 
L 50.6875 18.703125 
L 17.828125 18.703125 
L 11.1875 0 
L 0.78125 0 
z
" id="DejaVuSans-65"/>
      <path d="M 19.671875 64.796875 
L 19.671875 37.40625 
L 32.078125 37.40625 
Q 38.96875 37.40625 42.71875 40.96875 
Q 46.484375 44.53125 46.484375 51.125 
Q 46.484375 57.671875 42.71875 61.234375 
Q 38.96875 64.796875 32.078125 64.796875 
z
M 9.8125 72.90625 
L 32.078125 72.90625 
Q 44.34375 72.90625 50.609375 67.359375 
Q 56.890625 61.8125 56.890625 51.125 
Q 56.890625 40.328125 50.609375 34.8125 
Q 44.34375 29.296875 32.078125 29.296875 
L 19.671875 29.296875 
L 19.671875 0 
L 9.8125 0 
z
" id="DejaVuSans-80"/>
     </defs>
     <g transform="translate(1110.513125 114.998162)scale(0.1 -0.1)">
      <use xlink:href="#DejaVuSans-78"/>
      <use x="74.804688" xlink:href="#DejaVuSans-101"/>
      <use x="136.328125" xlink:href="#DejaVuSans-119"/>
      <use x="218.115234" xlink:href="#DejaVuSans-115"/>
      <use x="270.214844" xlink:href="#DejaVuSans-32"/>
      <use x="302.001953" xlink:href="#DejaVuSans-65"/>
      <use x="370.410156" xlink:href="#DejaVuSans-110"/>
      <use x="433.789062" xlink:href="#DejaVuSans-97"/>
      <use x="495.068359" xlink:href="#DejaVuSans-108"/>
      <use x="522.851562" xlink:href="#DejaVuSans-121"/>
      <use x="582.03125" xlink:href="#DejaVuSans-115"/>
      <use x="634.130859" xlink:href="#DejaVuSans-105"/>
      <use x="661.914062" xlink:href="#DejaVuSans-115"/>
      <use x="714.013672" xlink:href="#DejaVuSans-32"/>
      <use x="745.800781" xlink:href="#DejaVuSans-80"/>
      <use x="806.087891" xlink:href="#DejaVuSans-114"/>
      <use x="847.169922" xlink:href="#DejaVuSans-101"/>
      <use x="908.693359" xlink:href="#DejaVuSans-100"/>
      <use x="972.169922" xlink:href="#DejaVuSans-105"/>
      <use x="999.953125" xlink:href="#DejaVuSans-99"/>
      <use x="1054.933594" xlink:href="#DejaVuSans-116"/>
      <use x="1094.142578" xlink:href="#DejaVuSans-105"/>
      <use x="1121.925781" xlink:href="#DejaVuSans-111"/>
      <use x="1183.107422" xlink:href="#DejaVuSans-110"/>
     </g>
    </g>
   </g>
  </g>
 </g>
 <defs>
  <clipPath id="p4c2c4fd489">
   <rect height="537.2136" width="1071.36" x="172.8" y="83.7216"/>
  </clipPath>
 </defs>
</svg>
