<?xml version="1.0" encoding="utf-8" standalone="no"?>
<!DOCTYPE svg PUBLIC "-//W3C//DTD SVG 1.1//EN"
  "http://www.w3.org/Graphics/SVG/1.1/DTD/svg11.dtd">
<!-- Created with matplotlib (https://matplotlib.org/) -->
<svg height="697.68pt" version="1.1" viewBox="0 0 1382.4 697.68" width="1382.4pt" xmlns="http://www.w3.org/2000/svg" xmlns:xlink="http://www.w3.org/1999/xlink">
 <defs>
  <style type="text/css">
*{stroke-linecap:butt;stroke-linejoin:round;}
  </style>
 </defs>
 <g id="figure_1">
  <g id="patch_1">
   <path d="M 0 697.68 
L 1382.4 697.68 
L 1382.4 0 
L 0 0 
z
" style="fill:#ffffff;"/>
  </g>
  <g id="axes_1">
   <g id="patch_2">
    <path d="M 172.8 620.9352 
L 1244.16 620.9352 
L 1244.16 83.7216 
L 172.8 83.7216 
z
" style="fill:#ffffff;"/>
   </g>
   <g id="matplotlib.axis_1">
    <g id="xtick_1">
     <g id="line2d_1">
      <defs>
       <path d="M 0 0 
L 0 3.5 
" id="mb94c90f6b4" style="stroke:#000000;stroke-width:0.8;"/>
      </defs>
      <g>
       <use style="stroke:#000000;stroke-width:0.8;" x="221.498182" xlink:href="#mb94c90f6b4" y="620.9352"/>
      </g>
     </g>
     <g id="text_1">
      <!-- 2018-01 -->
      <defs>
       <path d="M 19.1875 8.296875 
L 53.609375 8.296875 
L 53.609375 0 
L 7.328125 0 
L 7.328125 8.296875 
Q 12.9375 14.109375 22.625 23.890625 
Q 32.328125 33.6875 34.8125 36.53125 
Q 39.546875 41.84375 41.421875 45.53125 
Q 43.3125 49.21875 43.3125 52.78125 
Q 43.3125 58.59375 39.234375 62.25 
Q 35.15625 65.921875 28.609375 65.921875 
Q 23.96875 65.921875 18.8125 64.3125 
Q 13.671875 62.703125 7.8125 59.421875 
L 7.8125 69.390625 
Q 13.765625 71.78125 18.9375 73 
Q 24.125 74.21875 28.421875 74.21875 
Q 39.75 74.21875 46.484375 68.546875 
Q 53.21875 62.890625 53.21875 53.421875 
Q 53.21875 48.921875 51.53125 44.890625 
Q 49.859375 40.875 45.40625 35.40625 
Q 44.1875 33.984375 37.640625 27.21875 
Q 31.109375 20.453125 19.1875 8.296875 
z
" id="DejaVuSans-50"/>
       <path d="M 31.78125 66.40625 
Q 24.171875 66.40625 20.328125 58.90625 
Q 16.5 51.421875 16.5 36.375 
Q 16.5 21.390625 20.328125 13.890625 
Q 24.171875 6.390625 31.78125 6.390625 
Q 39.453125 6.390625 43.28125 13.890625 
Q 47.125 21.390625 47.125 36.375 
Q 47.125 51.421875 43.28125 58.90625 
Q 39.453125 66.40625 31.78125 66.40625 
z
M 31.78125 74.21875 
Q 44.046875 74.21875 50.515625 64.515625 
Q 56.984375 54.828125 56.984375 36.375 
Q 56.984375 17.96875 50.515625 8.265625 
Q 44.046875 -1.421875 31.78125 -1.421875 
Q 19.53125 -1.421875 13.0625 8.265625 
Q 6.59375 17.96875 6.59375 36.375 
Q 6.59375 54.828125 13.0625 64.515625 
Q 19.53125 74.21875 31.78125 74.21875 
z
" id="DejaVuSans-48"/>
       <path d="M 12.40625 8.296875 
L 28.515625 8.296875 
L 28.515625 63.921875 
L 10.984375 60.40625 
L 10.984375 69.390625 
L 28.421875 72.90625 
L 38.28125 72.90625 
L 38.28125 8.296875 
L 54.390625 8.296875 
L 54.390625 0 
L 12.40625 0 
z
" id="DejaVuSans-49"/>
       <path d="M 31.78125 34.625 
Q 24.75 34.625 20.71875 30.859375 
Q 16.703125 27.09375 16.703125 20.515625 
Q 16.703125 13.921875 20.71875 10.15625 
Q 24.75 6.390625 31.78125 6.390625 
Q 38.8125 6.390625 42.859375 10.171875 
Q 46.921875 13.96875 46.921875 20.515625 
Q 46.921875 27.09375 42.890625 30.859375 
Q 38.875 34.625 31.78125 34.625 
z
M 21.921875 38.8125 
Q 15.578125 40.375 12.03125 44.71875 
Q 8.5 49.078125 8.5 55.328125 
Q 8.5 64.0625 14.71875 69.140625 
Q 20.953125 74.21875 31.78125 74.21875 
Q 42.671875 74.21875 48.875 69.140625 
Q 55.078125 64.0625 55.078125 55.328125 
Q 55.078125 49.078125 51.53125 44.71875 
Q 48 40.375 41.703125 38.8125 
Q 48.828125 37.15625 52.796875 32.3125 
Q 56.78125 27.484375 56.78125 20.515625 
Q 56.78125 9.90625 50.3125 4.234375 
Q 43.84375 -1.421875 31.78125 -1.421875 
Q 19.734375 -1.421875 13.25 4.234375 
Q 6.78125 9.90625 6.78125 20.515625 
Q 6.78125 27.484375 10.78125 32.3125 
Q 14.796875 37.15625 21.921875 38.8125 
z
M 18.3125 54.390625 
Q 18.3125 48.734375 21.84375 45.5625 
Q 25.390625 42.390625 31.78125 42.390625 
Q 38.140625 42.390625 41.71875 45.5625 
Q 45.3125 48.734375 45.3125 54.390625 
Q 45.3125 60.0625 41.71875 63.234375 
Q 38.140625 66.40625 31.78125 66.40625 
Q 25.390625 66.40625 21.84375 63.234375 
Q 18.3125 60.0625 18.3125 54.390625 
z
" id="DejaVuSans-56"/>
       <path d="M 4.890625 31.390625 
L 31.203125 31.390625 
L 31.203125 23.390625 
L 4.890625 23.390625 
z
" id="DejaVuSans-45"/>
      </defs>
      <g transform="translate(200.606776 635.533637)scale(0.1 -0.1)">
       <use xlink:href="#DejaVuSans-50"/>
       <use x="63.623047" xlink:href="#DejaVuSans-48"/>
       <use x="127.246094" xlink:href="#DejaVuSans-49"/>
       <use x="190.869141" xlink:href="#DejaVuSans-56"/>
       <use x="254.492188" xlink:href="#DejaVuSans-45"/>
       <use x="290.576172" xlink:href="#DejaVuSans-48"/>
       <use x="354.199219" xlink:href="#DejaVuSans-49"/>
      </g>
     </g>
    </g>
    <g id="xtick_2">
     <g id="line2d_2">
      <g>
       <use style="stroke:#000000;stroke-width:0.8;" x="316.146686" xlink:href="#mb94c90f6b4" y="620.9352"/>
      </g>
     </g>
     <g id="text_2">
      <!-- 2018-02 -->
      <g transform="translate(295.255279 635.533637)scale(0.1 -0.1)">
       <use xlink:href="#DejaVuSans-50"/>
       <use x="63.623047" xlink:href="#DejaVuSans-48"/>
       <use x="127.246094" xlink:href="#DejaVuSans-49"/>
       <use x="190.869141" xlink:href="#DejaVuSans-56"/>
       <use x="254.492188" xlink:href="#DejaVuSans-45"/>
       <use x="290.576172" xlink:href="#DejaVuSans-48"/>
       <use x="354.199219" xlink:href="#DejaVuSans-50"/>
      </g>
     </g>
    </g>
    <g id="xtick_3">
     <g id="line2d_3">
      <g>
       <use style="stroke:#000000;stroke-width:0.8;" x="401.635657" xlink:href="#mb94c90f6b4" y="620.9352"/>
      </g>
     </g>
     <g id="text_3">
      <!-- 2018-03 -->
      <defs>
       <path d="M 40.578125 39.3125 
Q 47.65625 37.796875 51.625 33 
Q 55.609375 28.21875 55.609375 21.1875 
Q 55.609375 10.40625 48.1875 4.484375 
Q 40.765625 -1.421875 27.09375 -1.421875 
Q 22.515625 -1.421875 17.65625 -0.515625 
Q 12.796875 0.390625 7.625 2.203125 
L 7.625 11.71875 
Q 11.71875 9.328125 16.59375 8.109375 
Q 21.484375 6.890625 26.8125 6.890625 
Q 36.078125 6.890625 40.9375 10.546875 
Q 45.796875 14.203125 45.796875 21.1875 
Q 45.796875 27.640625 41.28125 31.265625 
Q 36.765625 34.90625 28.71875 34.90625 
L 20.21875 34.90625 
L 20.21875 43.015625 
L 29.109375 43.015625 
Q 36.375 43.015625 40.234375 45.921875 
Q 44.09375 48.828125 44.09375 54.296875 
Q 44.09375 59.90625 40.109375 62.90625 
Q 36.140625 65.921875 28.71875 65.921875 
Q 24.65625 65.921875 20.015625 65.03125 
Q 15.375 64.15625 9.8125 62.3125 
L 9.8125 71.09375 
Q 15.4375 72.65625 20.34375 73.4375 
Q 25.25 74.21875 29.59375 74.21875 
Q 40.828125 74.21875 47.359375 69.109375 
Q 53.90625 64.015625 53.90625 55.328125 
Q 53.90625 49.265625 50.4375 45.09375 
Q 46.96875 40.921875 40.578125 39.3125 
z
" id="DejaVuSans-51"/>
      </defs>
      <g transform="translate(380.744251 635.533637)scale(0.1 -0.1)">
       <use xlink:href="#DejaVuSans-50"/>
       <use x="63.623047" xlink:href="#DejaVuSans-48"/>
       <use x="127.246094" xlink:href="#DejaVuSans-49"/>
       <use x="190.869141" xlink:href="#DejaVuSans-56"/>
       <use x="254.492188" xlink:href="#DejaVuSans-45"/>
       <use x="290.576172" xlink:href="#DejaVuSans-48"/>
       <use x="354.199219" xlink:href="#DejaVuSans-51"/>
      </g>
     </g>
    </g>
    <g id="xtick_4">
     <g id="line2d_4">
      <g>
       <use style="stroke:#000000;stroke-width:0.8;" x="496.284161" xlink:href="#mb94c90f6b4" y="620.9352"/>
      </g>
     </g>
     <g id="text_4">
      <!-- 2018-04 -->
      <defs>
       <path d="M 37.796875 64.3125 
L 12.890625 25.390625 
L 37.796875 25.390625 
z
M 35.203125 72.90625 
L 47.609375 72.90625 
L 47.609375 25.390625 
L 58.015625 25.390625 
L 58.015625 17.1875 
L 47.609375 17.1875 
L 47.609375 0 
L 37.796875 0 
L 37.796875 17.1875 
L 4.890625 17.1875 
L 4.890625 26.703125 
z
" id="DejaVuSans-52"/>
      </defs>
      <g transform="translate(475.392754 635.533637)scale(0.1 -0.1)">
       <use xlink:href="#DejaVuSans-50"/>
       <use x="63.623047" xlink:href="#DejaVuSans-48"/>
       <use x="127.246094" xlink:href="#DejaVuSans-49"/>
       <use x="190.869141" xlink:href="#DejaVuSans-56"/>
       <use x="254.492188" xlink:href="#DejaVuSans-45"/>
       <use x="290.576172" xlink:href="#DejaVuSans-48"/>
       <use x="354.199219" xlink:href="#DejaVuSans-52"/>
      </g>
     </g>
    </g>
    <g id="xtick_5">
     <g id="line2d_5">
      <g>
       <use style="stroke:#000000;stroke-width:0.8;" x="587.879487" xlink:href="#mb94c90f6b4" y="620.9352"/>
      </g>
     </g>
     <g id="text_5">
      <!-- 2018-05 -->
      <defs>
       <path d="M 10.796875 72.90625 
L 49.515625 72.90625 
L 49.515625 64.59375 
L 19.828125 64.59375 
L 19.828125 46.734375 
Q 21.96875 47.46875 24.109375 47.828125 
Q 26.265625 48.1875 28.421875 48.1875 
Q 40.625 48.1875 47.75 41.5 
Q 54.890625 34.8125 54.890625 23.390625 
Q 54.890625 11.625 47.5625 5.09375 
Q 40.234375 -1.421875 26.90625 -1.421875 
Q 22.3125 -1.421875 17.546875 -0.640625 
Q 12.796875 0.140625 7.71875 1.703125 
L 7.71875 11.625 
Q 12.109375 9.234375 16.796875 8.0625 
Q 21.484375 6.890625 26.703125 6.890625 
Q 35.15625 6.890625 40.078125 11.328125 
Q 45.015625 15.765625 45.015625 23.390625 
Q 45.015625 31 40.078125 35.4375 
Q 35.15625 39.890625 26.703125 39.890625 
Q 22.75 39.890625 18.8125 39.015625 
Q 14.890625 38.140625 10.796875 36.28125 
z
" id="DejaVuSans-53"/>
      </defs>
      <g transform="translate(566.988081 635.533637)scale(0.1 -0.1)">
       <use xlink:href="#DejaVuSans-50"/>
       <use x="63.623047" xlink:href="#DejaVuSans-48"/>
       <use x="127.246094" xlink:href="#DejaVuSans-49"/>
       <use x="190.869141" xlink:href="#DejaVuSans-56"/>
       <use x="254.492188" xlink:href="#DejaVuSans-45"/>
       <use x="290.576172" xlink:href="#DejaVuSans-48"/>
       <use x="354.199219" xlink:href="#DejaVuSans-53"/>
      </g>
     </g>
    </g>
    <g id="xtick_6">
     <g id="line2d_6">
      <g>
       <use style="stroke:#000000;stroke-width:0.8;" x="682.527991" xlink:href="#mb94c90f6b4" y="620.9352"/>
      </g>
     </g>
     <g id="text_6">
      <!-- 2018-06 -->
      <defs>
       <path d="M 33.015625 40.375 
Q 26.375 40.375 22.484375 35.828125 
Q 18.609375 31.296875 18.609375 23.390625 
Q 18.609375 15.53125 22.484375 10.953125 
Q 26.375 6.390625 33.015625 6.390625 
Q 39.65625 6.390625 43.53125 10.953125 
Q 47.40625 15.53125 47.40625 23.390625 
Q 47.40625 31.296875 43.53125 35.828125 
Q 39.65625 40.375 33.015625 40.375 
z
M 52.59375 71.296875 
L 52.59375 62.3125 
Q 48.875 64.0625 45.09375 64.984375 
Q 41.3125 65.921875 37.59375 65.921875 
Q 27.828125 65.921875 22.671875 59.328125 
Q 17.53125 52.734375 16.796875 39.40625 
Q 19.671875 43.65625 24.015625 45.921875 
Q 28.375 48.1875 33.59375 48.1875 
Q 44.578125 48.1875 50.953125 41.515625 
Q 57.328125 34.859375 57.328125 23.390625 
Q 57.328125 12.15625 50.6875 5.359375 
Q 44.046875 -1.421875 33.015625 -1.421875 
Q 20.359375 -1.421875 13.671875 8.265625 
Q 6.984375 17.96875 6.984375 36.375 
Q 6.984375 53.65625 15.1875 63.9375 
Q 23.390625 74.21875 37.203125 74.21875 
Q 40.921875 74.21875 44.703125 73.484375 
Q 48.484375 72.75 52.59375 71.296875 
z
" id="DejaVuSans-54"/>
      </defs>
      <g transform="translate(661.636585 635.533637)scale(0.1 -0.1)">
       <use xlink:href="#DejaVuSans-50"/>
       <use x="63.623047" xlink:href="#DejaVuSans-48"/>
       <use x="127.246094" xlink:href="#DejaVuSans-49"/>
       <use x="190.869141" xlink:href="#DejaVuSans-56"/>
       <use x="254.492188" xlink:href="#DejaVuSans-45"/>
       <use x="290.576172" xlink:href="#DejaVuSans-48"/>
       <use x="354.199219" xlink:href="#DejaVuSans-54"/>
      </g>
     </g>
    </g>
    <g id="xtick_7">
     <g id="line2d_7">
      <g>
       <use style="stroke:#000000;stroke-width:0.8;" x="774.123317" xlink:href="#mb94c90f6b4" y="620.9352"/>
      </g>
     </g>
     <g id="text_7">
      <!-- 2018-07 -->
      <defs>
       <path d="M 8.203125 72.90625 
L 55.078125 72.90625 
L 55.078125 68.703125 
L 28.609375 0 
L 18.3125 0 
L 43.21875 64.59375 
L 8.203125 64.59375 
z
" id="DejaVuSans-55"/>
      </defs>
      <g transform="translate(753.231911 635.533637)scale(0.1 -0.1)">
       <use xlink:href="#DejaVuSans-50"/>
       <use x="63.623047" xlink:href="#DejaVuSans-48"/>
       <use x="127.246094" xlink:href="#DejaVuSans-49"/>
       <use x="190.869141" xlink:href="#DejaVuSans-56"/>
       <use x="254.492188" xlink:href="#DejaVuSans-45"/>
       <use x="290.576172" xlink:href="#DejaVuSans-48"/>
       <use x="354.199219" xlink:href="#DejaVuSans-55"/>
      </g>
     </g>
    </g>
    <g id="xtick_8">
     <g id="line2d_8">
      <g>
       <use style="stroke:#000000;stroke-width:0.8;" x="868.771821" xlink:href="#mb94c90f6b4" y="620.9352"/>
      </g>
     </g>
     <g id="text_8">
      <!-- 2018-08 -->
      <g transform="translate(847.880415 635.533637)scale(0.1 -0.1)">
       <use xlink:href="#DejaVuSans-50"/>
       <use x="63.623047" xlink:href="#DejaVuSans-48"/>
       <use x="127.246094" xlink:href="#DejaVuSans-49"/>
       <use x="190.869141" xlink:href="#DejaVuSans-56"/>
       <use x="254.492188" xlink:href="#DejaVuSans-45"/>
       <use x="290.576172" xlink:href="#DejaVuSans-48"/>
       <use x="354.199219" xlink:href="#DejaVuSans-56"/>
      </g>
     </g>
    </g>
    <g id="xtick_9">
     <g id="line2d_9">
      <g>
       <use style="stroke:#000000;stroke-width:0.8;" x="963.420325" xlink:href="#mb94c90f6b4" y="620.9352"/>
      </g>
     </g>
     <g id="text_9">
      <!-- 2018-09 -->
      <defs>
       <path d="M 10.984375 1.515625 
L 10.984375 10.5 
Q 14.703125 8.734375 18.5 7.8125 
Q 22.3125 6.890625 25.984375 6.890625 
Q 35.75 6.890625 40.890625 13.453125 
Q 46.046875 20.015625 46.78125 33.40625 
Q 43.953125 29.203125 39.59375 26.953125 
Q 35.25 24.703125 29.984375 24.703125 
Q 19.046875 24.703125 12.671875 31.3125 
Q 6.296875 37.9375 6.296875 49.421875 
Q 6.296875 60.640625 12.9375 67.421875 
Q 19.578125 74.21875 30.609375 74.21875 
Q 43.265625 74.21875 49.921875 64.515625 
Q 56.59375 54.828125 56.59375 36.375 
Q 56.59375 19.140625 48.40625 8.859375 
Q 40.234375 -1.421875 26.421875 -1.421875 
Q 22.703125 -1.421875 18.890625 -0.6875 
Q 15.09375 0.046875 10.984375 1.515625 
z
M 30.609375 32.421875 
Q 37.25 32.421875 41.125 36.953125 
Q 45.015625 41.5 45.015625 49.421875 
Q 45.015625 57.28125 41.125 61.84375 
Q 37.25 66.40625 30.609375 66.40625 
Q 23.96875 66.40625 20.09375 61.84375 
Q 16.21875 57.28125 16.21875 49.421875 
Q 16.21875 41.5 20.09375 36.953125 
Q 23.96875 32.421875 30.609375 32.421875 
z
" id="DejaVuSans-57"/>
      </defs>
      <g transform="translate(942.528919 635.533637)scale(0.1 -0.1)">
       <use xlink:href="#DejaVuSans-50"/>
       <use x="63.623047" xlink:href="#DejaVuSans-48"/>
       <use x="127.246094" xlink:href="#DejaVuSans-49"/>
       <use x="190.869141" xlink:href="#DejaVuSans-56"/>
       <use x="254.492188" xlink:href="#DejaVuSans-45"/>
       <use x="290.576172" xlink:href="#DejaVuSans-48"/>
       <use x="354.199219" xlink:href="#DejaVuSans-57"/>
      </g>
     </g>
    </g>
    <g id="xtick_10">
     <g id="line2d_10">
      <g>
       <use style="stroke:#000000;stroke-width:0.8;" x="1055.015651" xlink:href="#mb94c90f6b4" y="620.9352"/>
      </g>
     </g>
     <g id="text_10">
      <!-- 2018-10 -->
      <g transform="translate(1034.124245 635.533637)scale(0.1 -0.1)">
       <use xlink:href="#DejaVuSans-50"/>
       <use x="63.623047" xlink:href="#DejaVuSans-48"/>
       <use x="127.246094" xlink:href="#DejaVuSans-49"/>
       <use x="190.869141" xlink:href="#DejaVuSans-56"/>
       <use x="254.492188" xlink:href="#DejaVuSans-45"/>
       <use x="290.576172" xlink:href="#DejaVuSans-49"/>
       <use x="354.199219" xlink:href="#DejaVuSans-48"/>
      </g>
     </g>
    </g>
    <g id="xtick_11">
     <g id="line2d_11">
      <g>
       <use style="stroke:#000000;stroke-width:0.8;" x="1149.664155" xlink:href="#mb94c90f6b4" y="620.9352"/>
      </g>
     </g>
     <g id="text_11">
      <!-- 2018-11 -->
      <g transform="translate(1128.772749 635.533637)scale(0.1 -0.1)">
       <use xlink:href="#DejaVuSans-50"/>
       <use x="63.623047" xlink:href="#DejaVuSans-48"/>
       <use x="127.246094" xlink:href="#DejaVuSans-49"/>
       <use x="190.869141" xlink:href="#DejaVuSans-56"/>
       <use x="254.492188" xlink:href="#DejaVuSans-45"/>
       <use x="290.576172" xlink:href="#DejaVuSans-49"/>
       <use x="354.199219" xlink:href="#DejaVuSans-49"/>
      </g>
     </g>
    </g>
    <g id="xtick_12">
     <g id="line2d_12">
      <g>
       <use style="stroke:#000000;stroke-width:0.8;" x="1241.259481" xlink:href="#mb94c90f6b4" y="620.9352"/>
      </g>
     </g>
     <g id="text_12">
      <!-- 2018-12 -->
      <g transform="translate(1220.368075 635.533637)scale(0.1 -0.1)">
       <use xlink:href="#DejaVuSans-50"/>
       <use x="63.623047" xlink:href="#DejaVuSans-48"/>
       <use x="127.246094" xlink:href="#DejaVuSans-49"/>
       <use x="190.869141" xlink:href="#DejaVuSans-56"/>
       <use x="254.492188" xlink:href="#DejaVuSans-45"/>
       <use x="290.576172" xlink:href="#DejaVuSans-49"/>
       <use x="354.199219" xlink:href="#DejaVuSans-50"/>
      </g>
     </g>
    </g>
    <g id="text_13">
     <!-- Dates -->
     <defs>
      <path d="M 19.671875 64.796875 
L 19.671875 8.109375 
L 31.59375 8.109375 
Q 46.6875 8.109375 53.6875 14.9375 
Q 60.6875 21.78125 60.6875 36.53125 
Q 60.6875 51.171875 53.6875 57.984375 
Q 46.6875 64.796875 31.59375 64.796875 
z
M 9.8125 72.90625 
L 30.078125 72.90625 
Q 51.265625 72.90625 61.171875 64.09375 
Q 71.09375 55.28125 71.09375 36.53125 
Q 71.09375 17.671875 61.125 8.828125 
Q 51.171875 0 30.078125 0 
L 9.8125 0 
z
" id="DejaVuSans-68"/>
      <path d="M 34.28125 27.484375 
Q 23.390625 27.484375 19.1875 25 
Q 14.984375 22.515625 14.984375 16.5 
Q 14.984375 11.71875 18.140625 8.90625 
Q 21.296875 6.109375 26.703125 6.109375 
Q 34.1875 6.109375 38.703125 11.40625 
Q 43.21875 16.703125 43.21875 25.484375 
L 43.21875 27.484375 
z
M 52.203125 31.203125 
L 52.203125 0 
L 43.21875 0 
L 43.21875 8.296875 
Q 40.140625 3.328125 35.546875 0.953125 
Q 30.953125 -1.421875 24.3125 -1.421875 
Q 15.921875 -1.421875 10.953125 3.296875 
Q 6 8.015625 6 15.921875 
Q 6 25.140625 12.171875 29.828125 
Q 18.359375 34.515625 30.609375 34.515625 
L 43.21875 34.515625 
L 43.21875 35.40625 
Q 43.21875 41.609375 39.140625 45 
Q 35.0625 48.390625 27.6875 48.390625 
Q 23 48.390625 18.546875 47.265625 
Q 14.109375 46.140625 10.015625 43.890625 
L 10.015625 52.203125 
Q 14.9375 54.109375 19.578125 55.046875 
Q 24.21875 56 28.609375 56 
Q 40.484375 56 46.34375 49.84375 
Q 52.203125 43.703125 52.203125 31.203125 
z
" id="DejaVuSans-97"/>
      <path d="M 18.3125 70.21875 
L 18.3125 54.6875 
L 36.8125 54.6875 
L 36.8125 47.703125 
L 18.3125 47.703125 
L 18.3125 18.015625 
Q 18.3125 11.328125 20.140625 9.421875 
Q 21.96875 7.515625 27.59375 7.515625 
L 36.8125 7.515625 
L 36.8125 0 
L 27.59375 0 
Q 17.1875 0 13.234375 3.875 
Q 9.28125 7.765625 9.28125 18.015625 
L 9.28125 47.703125 
L 2.6875 47.703125 
L 2.6875 54.6875 
L 9.28125 54.6875 
L 9.28125 70.21875 
z
" id="DejaVuSans-116"/>
      <path d="M 56.203125 29.59375 
L 56.203125 25.203125 
L 14.890625 25.203125 
Q 15.484375 15.921875 20.484375 11.0625 
Q 25.484375 6.203125 34.421875 6.203125 
Q 39.59375 6.203125 44.453125 7.46875 
Q 49.3125 8.734375 54.109375 11.28125 
L 54.109375 2.78125 
Q 49.265625 0.734375 44.1875 -0.34375 
Q 39.109375 -1.421875 33.890625 -1.421875 
Q 20.796875 -1.421875 13.15625 6.1875 
Q 5.515625 13.8125 5.515625 26.8125 
Q 5.515625 40.234375 12.765625 48.109375 
Q 20.015625 56 32.328125 56 
Q 43.359375 56 49.78125 48.890625 
Q 56.203125 41.796875 56.203125 29.59375 
z
M 47.21875 32.234375 
Q 47.125 39.59375 43.09375 43.984375 
Q 39.0625 48.390625 32.421875 48.390625 
Q 24.90625 48.390625 20.390625 44.140625 
Q 15.875 39.890625 15.1875 32.171875 
z
" id="DejaVuSans-101"/>
      <path d="M 44.28125 53.078125 
L 44.28125 44.578125 
Q 40.484375 46.53125 36.375 47.5 
Q 32.28125 48.484375 27.875 48.484375 
Q 21.1875 48.484375 17.84375 46.4375 
Q 14.5 44.390625 14.5 40.28125 
Q 14.5 37.15625 16.890625 35.375 
Q 19.28125 33.59375 26.515625 31.984375 
L 29.59375 31.296875 
Q 39.15625 29.25 43.1875 25.515625 
Q 47.21875 21.78125 47.21875 15.09375 
Q 47.21875 7.46875 41.1875 3.015625 
Q 35.15625 -1.421875 24.609375 -1.421875 
Q 20.21875 -1.421875 15.453125 -0.5625 
Q 10.6875 0.296875 5.421875 2 
L 5.421875 11.28125 
Q 10.40625 8.6875 15.234375 7.390625 
Q 20.0625 6.109375 24.8125 6.109375 
Q 31.15625 6.109375 34.5625 8.28125 
Q 37.984375 10.453125 37.984375 14.40625 
Q 37.984375 18.0625 35.515625 20.015625 
Q 33.0625 21.96875 24.703125 23.78125 
L 21.578125 24.515625 
Q 13.234375 26.265625 9.515625 29.90625 
Q 5.8125 33.546875 5.8125 39.890625 
Q 5.8125 47.609375 11.28125 51.796875 
Q 16.75 56 26.8125 56 
Q 31.78125 56 36.171875 55.265625 
Q 40.578125 54.546875 44.28125 53.078125 
z
" id="DejaVuSans-115"/>
     </defs>
     <g transform="translate(693.924531 649.211762)scale(0.1 -0.1)">
      <use xlink:href="#DejaVuSans-68"/>
      <use x="77.001953" xlink:href="#DejaVuSans-97"/>
      <use x="138.28125" xlink:href="#DejaVuSans-116"/>
      <use x="177.490234" xlink:href="#DejaVuSans-101"/>
      <use x="239.013672" xlink:href="#DejaVuSans-115"/>
     </g>
    </g>
   </g>
   <g id="matplotlib.axis_2">
    <g id="ytick_1">
     <g id="line2d_13">
      <defs>
       <path d="M 0 0 
L -3.5 0 
" id="m4a4104b67c" style="stroke:#000000;stroke-width:0.8;"/>
      </defs>
      <g>
       <use style="stroke:#000000;stroke-width:0.8;" x="172.8" xlink:href="#m4a4104b67c" y="554.079262"/>
      </g>
     </g>
     <g id="text_14">
      <!-- 100 -->
      <g transform="translate(146.7125 557.878481)scale(0.1 -0.1)">
       <use xlink:href="#DejaVuSans-49"/>
       <use x="63.623047" xlink:href="#DejaVuSans-48"/>
       <use x="127.246094" xlink:href="#DejaVuSans-48"/>
      </g>
     </g>
    </g>
    <g id="ytick_2">
     <g id="line2d_14">
      <g>
       <use style="stroke:#000000;stroke-width:0.8;" x="172.8" xlink:href="#m4a4104b67c" y="440.24676"/>
      </g>
     </g>
     <g id="text_15">
      <!-- 120 -->
      <g transform="translate(146.7125 444.045978)scale(0.1 -0.1)">
       <use xlink:href="#DejaVuSans-49"/>
       <use x="63.623047" xlink:href="#DejaVuSans-50"/>
       <use x="127.246094" xlink:href="#DejaVuSans-48"/>
      </g>
     </g>
    </g>
    <g id="ytick_3">
     <g id="line2d_15">
      <g>
       <use style="stroke:#000000;stroke-width:0.8;" x="172.8" xlink:href="#m4a4104b67c" y="326.414257"/>
      </g>
     </g>
     <g id="text_16">
      <!-- 140 -->
      <g transform="translate(146.7125 330.213476)scale(0.1 -0.1)">
       <use xlink:href="#DejaVuSans-49"/>
       <use x="63.623047" xlink:href="#DejaVuSans-52"/>
       <use x="127.246094" xlink:href="#DejaVuSans-48"/>
      </g>
     </g>
    </g>
    <g id="ytick_4">
     <g id="line2d_16">
      <g>
       <use style="stroke:#000000;stroke-width:0.8;" x="172.8" xlink:href="#m4a4104b67c" y="212.581755"/>
      </g>
     </g>
     <g id="text_17">
      <!-- 160 -->
      <g transform="translate(146.7125 216.380974)scale(0.1 -0.1)">
       <use xlink:href="#DejaVuSans-49"/>
       <use x="63.623047" xlink:href="#DejaVuSans-54"/>
       <use x="127.246094" xlink:href="#DejaVuSans-48"/>
      </g>
     </g>
    </g>
    <g id="ytick_5">
     <g id="line2d_17">
      <g>
       <use style="stroke:#000000;stroke-width:0.8;" x="172.8" xlink:href="#m4a4104b67c" y="98.749253"/>
      </g>
     </g>
     <g id="text_18">
      <!-- 180 -->
      <g transform="translate(146.7125 102.548471)scale(0.1 -0.1)">
       <use xlink:href="#DejaVuSans-49"/>
       <use x="63.623047" xlink:href="#DejaVuSans-56"/>
       <use x="127.246094" xlink:href="#DejaVuSans-48"/>
      </g>
     </g>
    </g>
    <g id="text_19">
     <!-- Stock closing values -->
     <defs>
      <path d="M 53.515625 70.515625 
L 53.515625 60.890625 
Q 47.90625 63.578125 42.921875 64.890625 
Q 37.9375 66.21875 33.296875 66.21875 
Q 25.25 66.21875 20.875 63.09375 
Q 16.5 59.96875 16.5 54.203125 
Q 16.5 49.359375 19.40625 46.890625 
Q 22.3125 44.4375 30.421875 42.921875 
L 36.375 41.703125 
Q 47.40625 39.59375 52.65625 34.296875 
Q 57.90625 29 57.90625 20.125 
Q 57.90625 9.515625 50.796875 4.046875 
Q 43.703125 -1.421875 29.984375 -1.421875 
Q 24.8125 -1.421875 18.96875 -0.25 
Q 13.140625 0.921875 6.890625 3.21875 
L 6.890625 13.375 
Q 12.890625 10.015625 18.65625 8.296875 
Q 24.421875 6.59375 29.984375 6.59375 
Q 38.421875 6.59375 43.015625 9.90625 
Q 47.609375 13.234375 47.609375 19.390625 
Q 47.609375 24.75 44.3125 27.78125 
Q 41.015625 30.8125 33.5 32.328125 
L 27.484375 33.5 
Q 16.453125 35.6875 11.515625 40.375 
Q 6.59375 45.0625 6.59375 53.421875 
Q 6.59375 63.09375 13.40625 68.65625 
Q 20.21875 74.21875 32.171875 74.21875 
Q 37.3125 74.21875 42.625 73.28125 
Q 47.953125 72.359375 53.515625 70.515625 
z
" id="DejaVuSans-83"/>
      <path d="M 30.609375 48.390625 
Q 23.390625 48.390625 19.1875 42.75 
Q 14.984375 37.109375 14.984375 27.296875 
Q 14.984375 17.484375 19.15625 11.84375 
Q 23.34375 6.203125 30.609375 6.203125 
Q 37.796875 6.203125 41.984375 11.859375 
Q 46.1875 17.53125 46.1875 27.296875 
Q 46.1875 37.015625 41.984375 42.703125 
Q 37.796875 48.390625 30.609375 48.390625 
z
M 30.609375 56 
Q 42.328125 56 49.015625 48.375 
Q 55.71875 40.765625 55.71875 27.296875 
Q 55.71875 13.875 49.015625 6.21875 
Q 42.328125 -1.421875 30.609375 -1.421875 
Q 18.84375 -1.421875 12.171875 6.21875 
Q 5.515625 13.875 5.515625 27.296875 
Q 5.515625 40.765625 12.171875 48.375 
Q 18.84375 56 30.609375 56 
z
" id="DejaVuSans-111"/>
      <path d="M 48.78125 52.59375 
L 48.78125 44.1875 
Q 44.96875 46.296875 41.140625 47.34375 
Q 37.3125 48.390625 33.40625 48.390625 
Q 24.65625 48.390625 19.8125 42.84375 
Q 14.984375 37.3125 14.984375 27.296875 
Q 14.984375 17.28125 19.8125 11.734375 
Q 24.65625 6.203125 33.40625 6.203125 
Q 37.3125 6.203125 41.140625 7.25 
Q 44.96875 8.296875 48.78125 10.40625 
L 48.78125 2.09375 
Q 45.015625 0.34375 40.984375 -0.53125 
Q 36.96875 -1.421875 32.421875 -1.421875 
Q 20.0625 -1.421875 12.78125 6.34375 
Q 5.515625 14.109375 5.515625 27.296875 
Q 5.515625 40.671875 12.859375 48.328125 
Q 20.21875 56 33.015625 56 
Q 37.15625 56 41.109375 55.140625 
Q 45.0625 54.296875 48.78125 52.59375 
z
" id="DejaVuSans-99"/>
      <path d="M 9.078125 75.984375 
L 18.109375 75.984375 
L 18.109375 31.109375 
L 44.921875 54.6875 
L 56.390625 54.6875 
L 27.390625 29.109375 
L 57.625 0 
L 45.90625 0 
L 18.109375 26.703125 
L 18.109375 0 
L 9.078125 0 
z
" id="DejaVuSans-107"/>
      <path id="DejaVuSans-32"/>
      <path d="M 9.421875 75.984375 
L 18.40625 75.984375 
L 18.40625 0 
L 9.421875 0 
z
" id="DejaVuSans-108"/>
      <path d="M 9.421875 54.6875 
L 18.40625 54.6875 
L 18.40625 0 
L 9.421875 0 
z
M 9.421875 75.984375 
L 18.40625 75.984375 
L 18.40625 64.59375 
L 9.421875 64.59375 
z
" id="DejaVuSans-105"/>
      <path d="M 54.890625 33.015625 
L 54.890625 0 
L 45.90625 0 
L 45.90625 32.71875 
Q 45.90625 40.484375 42.875 44.328125 
Q 39.84375 48.1875 33.796875 48.1875 
Q 26.515625 48.1875 22.3125 43.546875 
Q 18.109375 38.921875 18.109375 30.90625 
L 18.109375 0 
L 9.078125 0 
L 9.078125 54.6875 
L 18.109375 54.6875 
L 18.109375 46.1875 
Q 21.34375 51.125 25.703125 53.5625 
Q 30.078125 56 35.796875 56 
Q 45.21875 56 50.046875 50.171875 
Q 54.890625 44.34375 54.890625 33.015625 
z
" id="DejaVuSans-110"/>
      <path d="M 45.40625 27.984375 
Q 45.40625 37.75 41.375 43.109375 
Q 37.359375 48.484375 30.078125 48.484375 
Q 22.859375 48.484375 18.828125 43.109375 
Q 14.796875 37.75 14.796875 27.984375 
Q 14.796875 18.265625 18.828125 12.890625 
Q 22.859375 7.515625 30.078125 7.515625 
Q 37.359375 7.515625 41.375 12.890625 
Q 45.40625 18.265625 45.40625 27.984375 
z
M 54.390625 6.78125 
Q 54.390625 -7.171875 48.1875 -13.984375 
Q 42 -20.796875 29.203125 -20.796875 
Q 24.46875 -20.796875 20.265625 -20.09375 
Q 16.0625 -19.390625 12.109375 -17.921875 
L 12.109375 -9.1875 
Q 16.0625 -11.328125 19.921875 -12.34375 
Q 23.78125 -13.375 27.78125 -13.375 
Q 36.625 -13.375 41.015625 -8.765625 
Q 45.40625 -4.15625 45.40625 5.171875 
L 45.40625 9.625 
Q 42.625 4.78125 38.28125 2.390625 
Q 33.9375 0 27.875 0 
Q 17.828125 0 11.671875 7.65625 
Q 5.515625 15.328125 5.515625 27.984375 
Q 5.515625 40.671875 11.671875 48.328125 
Q 17.828125 56 27.875 56 
Q 33.9375 56 38.28125 53.609375 
Q 42.625 51.21875 45.40625 46.390625 
L 45.40625 54.6875 
L 54.390625 54.6875 
z
" id="DejaVuSans-103"/>
      <path d="M 2.984375 54.6875 
L 12.5 54.6875 
L 29.59375 8.796875 
L 46.6875 54.6875 
L 56.203125 54.6875 
L 35.6875 0 
L 23.484375 0 
z
" id="DejaVuSans-118"/>
      <path d="M 8.5 21.578125 
L 8.5 54.6875 
L 17.484375 54.6875 
L 17.484375 21.921875 
Q 17.484375 14.15625 20.5 10.265625 
Q 23.53125 6.390625 29.59375 6.390625 
Q 36.859375 6.390625 41.078125 11.03125 
Q 45.3125 15.671875 45.3125 23.6875 
L 45.3125 54.6875 
L 54.296875 54.6875 
L 54.296875 0 
L 45.3125 0 
L 45.3125 8.40625 
Q 42.046875 3.421875 37.71875 1 
Q 33.40625 -1.421875 27.6875 -1.421875 
Q 18.265625 -1.421875 13.375 4.4375 
Q 8.5 10.296875 8.5 21.578125 
z
M 31.109375 56 
z
" id="DejaVuSans-117"/>
     </defs>
     <g transform="translate(140.632812 403.141681)rotate(-90)scale(0.1 -0.1)">
      <use xlink:href="#DejaVuSans-83"/>
      <use x="63.476562" xlink:href="#DejaVuSans-116"/>
      <use x="102.685547" xlink:href="#DejaVuSans-111"/>
      <use x="163.867188" xlink:href="#DejaVuSans-99"/>
      <use x="218.847656" xlink:href="#DejaVuSans-107"/>
      <use x="276.757812" xlink:href="#DejaVuSans-32"/>
      <use x="308.544922" xlink:href="#DejaVuSans-99"/>
      <use x="363.525391" xlink:href="#DejaVuSans-108"/>
      <use x="391.308594" xlink:href="#DejaVuSans-111"/>
      <use x="452.490234" xlink:href="#DejaVuSans-115"/>
      <use x="504.589844" xlink:href="#DejaVuSans-105"/>
      <use x="532.373047" xlink:href="#DejaVuSans-110"/>
      <use x="595.751953" xlink:href="#DejaVuSans-103"/>
      <use x="659.228516" xlink:href="#DejaVuSans-32"/>
      <use x="691.015625" xlink:href="#DejaVuSans-118"/>
      <use x="750.195312" xlink:href="#DejaVuSans-97"/>
      <use x="811.474609" xlink:href="#DejaVuSans-108"/>
      <use x="839.257812" xlink:href="#DejaVuSans-117"/>
      <use x="902.636719" xlink:href="#DejaVuSans-101"/>
      <use x="964.160156" xlink:href="#DejaVuSans-115"/>
     </g>
    </g>
   </g>
   <g id="line2d_18">
    <path clip-path="url(#p11854fa485)" d="M 221.498182 204.044317 
L 224.551359 224.249604 
L 227.604537 224.818715 
L 230.657714 190.384451 
L 233.710892 202.336813 
L 242.870425 203.190608 
L 245.923602 186.969442 
L 248.97678 198.352692 
L 252.029957 193.799375 
L 255.083135 195.50688 
L 264.242667 187.538639 
L 267.295845 229.941229 
L 270.349023 182.985321 
L 273.4022 199.206402 
L 276.455378 181.847014 
L 285.61491 185.261937 
L 288.668088 137.736919 
L 291.721265 108.1404 
L 294.774443 171.88667 
L 306.987153 199.206402 
L 310.040331 211.443447 
L 313.093508 230.794938 
L 316.146686 256.122653 
L 319.199863 251.284823 
L 328.359396 226.810818 
L 331.412573 244.170291 
L 334.465751 247.016104 
L 337.518928 234.209948 
L 340.572106 233.925349 
L 349.731639 163.349232 
L 355.837994 179.570312 
L 361.944349 255.83814 
L 371.103881 304.501466 
L 374.157059 299.09444 
L 377.210237 292.833703 
L 380.263414 307.062766 
L 383.316592 294.825721 
L 392.476124 305.070663 
L 395.529302 318.161418 
L 398.582479 315.315605 
L 401.635657 336.090003 
L 413.848367 333.24419 
L 416.901545 353.449477 
L 419.954722 368.532249 
L 423.0079 358.571905 
L 426.061077 374.508472 
L 435.22061 371.378062 
L 438.273787 317.592221 
L 441.326965 293.687413 
L 444.380142 305.070663 
L 447.43332 304.786065 
L 456.592853 364.26353 
L 459.64603 350.034467 
L 462.699208 351.457374 
L 465.752385 355.156981 
L 468.805563 365.117325 
L 477.965095 317.87682 
L 481.018273 305.355261 
L 484.071451 313.323502 
L 499.337338 315.600204 
L 502.390516 295.964029 
L 505.443693 326.983454 
L 508.496871 282.019564 
L 511.550048 267.22139 
L 520.709581 250.715626 
L 523.762759 251.000225 
L 526.815936 266.082997 
L 529.869114 276.043341 
L 532.922291 266.936792 
L 542.081824 270.351716 
L 545.135001 281.734966 
L 548.188179 317.02311 
L 551.241357 295.964029 
L 554.294534 305.924373 
L 563.454067 302.794047 
L 566.507244 315.884717 
L 569.560422 347.188655 
L 572.613599 341.49703 
L 575.666777 308.201074 
L 584.826309 275.47423 
L 590.932665 301.940252 
L 593.985842 309.054784 
L 597.03902 326.983454 
L 606.198552 306.208971 
L 609.25173 294.541123 
L 612.304907 301.940252 
L 615.358085 334.097985 
L 618.411262 311.046887 
L 627.570795 311.046887 
L 630.623973 328.40636 
L 633.67715 371.66266 
L 636.730328 383.330508 
L 639.783505 402.112888 
L 648.943038 383.899705 
L 651.996215 366.82483 
L 655.049393 345.765749 
L 658.102571 332.959592 
L 661.155748 319.015128 
L 670.315281 295.679516 
L 673.368458 324.137641 
L 676.421636 335.236293 
L 679.474813 344.342842 
L 682.527991 343.773731 
L 691.687524 374.508472 
L 694.740701 396.136665 
L 697.793879 381.907602 
L 700.847056 375.362267 
L 703.900234 370.524352 
L 713.059766 362.271513 
L 716.112944 364.26353 
L 719.166121 344.912039 
L 722.219299 354.018673 
L 725.272476 375.931379 
L 734.432009 381.053893 
L 737.485187 395.567514 
L 740.538364 411.219483 
L 743.591542 428.863509 
L 746.644719 431.709322 
L 755.804252 458.459943 
L 758.857429 451.345412 
L 761.910607 467.85113 
L 764.963785 480.088135 
L 768.016962 482.080193 
L 777.176495 476.388568 
L 780.229672 480.088135 
L 783.28285 479.518984 
L 786.336027 478.665229 
L 789.389205 465.574474 
L 798.548738 457.321635 
L 801.601915 443.092572 
L 804.655093 461.874952 
L 807.70827 443.377171 
L 810.761448 455.044974 
L 819.92098 479.803537 
L 822.974158 435.693442 
L 826.027335 453.622067 
L 829.080513 439.962161 
L 832.133691 438.823853 
L 841.293223 404.389504 
L 844.346401 368.816847 
L 847.399578 373.085566 
L 850.452756 332.959592 
L 853.505933 338.651217 
L 862.665466 257.830158 
L 865.718643 250.431028 
L 868.771821 268.359698 
L 871.824999 285.149975 
L 874.878176 271.774622 
L 884.037709 266.367595 
L 887.090886 291.410797 
L 890.144064 277.466247 
L 893.197241 242.462787 
L 896.250419 279.173752 
L 905.409952 294.25661 
L 908.463129 290.557002 
L 914.569484 311.046887 
L 917.622662 291.126199 
L 926.782194 263.806381 
L 929.835372 264.375578 
L 935.941727 270.351716 
L 938.994905 284.296266 
L 948.154437 269.213408 
L 951.207615 304.501466 
L 954.260792 282.588761 
L 957.31397 268.644297 
L 960.367147 252.707729 
L 969.52668 259.822261 
L 972.579858 294.825721 
L 975.633035 300.517346 
L 978.686213 291.69531 
L 981.73939 280.596658 
L 990.898923 288.849497 
L 993.9521 323.568445 
L 997.005278 363.125222 
L 1003.111633 358.287392 
L 1012.271166 353.449477 
L 1015.324343 479.518984 
L 1018.377521 461.021203 
L 1024.483876 488.910171 
L 1033.643408 510.253766 
L 1036.696586 500.293422 
L 1039.749763 502.000881 
L 1045.856119 556.925074 
L 1055.015651 529.0361 
L 1061.122006 535.296882 
L 1064.175184 535.012329 
L 1067.228361 559.201736 
L 1076.387894 568.308325 
L 1079.441072 592.497731 
L 1082.494249 579.122424 
L 1085.547427 588.513611 
L 1088.600604 573.99995 
L 1097.760137 569.16208 
L 1100.813314 552.656356 
L 1103.866492 556.355923 
L 1109.972847 540.41935 
L 1119.13238 539.281048 
L 1122.185557 544.403516 
L 1125.238735 538.996444 
L 1128.291912 562.901298 
L 1131.34509 560.624642 
L 1140.504622 513.668735 
L 1143.5578 497.163011 
L 1146.610977 493.463443 
L 1149.664155 510.253766 
L 1152.717333 497.732162 
L 1161.876865 490.333078 
L 1164.930043 494.601797 
L 1174.089575 488.625573 
L 1186.302286 504.56214 
L 1195.461818 467.566577 
L 1195.461818 467.566577 
" style="fill:none;stroke:#ff0000;stroke-linecap:square;stroke-width:1.5;"/>
   </g>
   <g id="line2d_19">
    <path clip-path="url(#p11854fa485)" d="M 221.498182 185.482253 
L 224.551359 219.431224 
L 227.604537 209.746065 
L 230.657714 190.014058 
L 233.710892 189.084227 
L 242.870425 187.009529 
L 245.923602 174.786495 
L 248.97678 188.841043 
L 252.029957 180.371966 
L 255.083135 190.312029 
L 264.242667 172.417199 
L 267.295845 227.922957 
L 270.349023 200.134851 
L 273.4022 194.345572 
L 276.455378 174.098623 
L 285.61491 173.877975 
L 288.668088 142.213588 
L 291.721265 115.582274 
L 294.774443 176.360479 
L 306.987153 194.129664 
L 310.040331 196.280388 
L 316.146686 249.648779 
L 319.199863 253.554967 
L 328.359396 240.048261 
L 331.412573 259.231227 
L 334.465751 236.328067 
L 337.518928 223.596684 
L 340.572106 230.728184 
L 349.731639 164.884977 
L 355.837994 171.400677 
L 358.891171 219.040013 
L 361.944349 259.538801 
L 371.103881 332.082554 
L 374.157059 298.444635 
L 377.210237 293.906488 
L 380.263414 298.354158 
L 383.316592 277.682293 
L 392.476124 295.552427 
L 395.529302 323.301738 
L 398.582479 315.453031 
L 401.635657 328.520023 
L 413.848367 327.784465 
L 416.901545 351.545557 
L 419.954722 378.380672 
L 423.0079 365.092593 
L 426.061077 369.541799 
L 435.22061 376.835808 
L 438.273787 333.813835 
L 441.326965 308.767115 
L 444.380142 296.677413 
L 447.43332 292.370632 
L 456.592853 386.538183 
L 459.64603 354.552512 
L 462.699208 342.315194 
L 465.752385 347.729979 
L 468.805563 367.860511 
L 477.965095 327.094157 
L 481.018273 295.654683 
L 484.071451 304.105814 
L 499.337338 307.411697 
L 502.390516 280.403296 
L 505.443693 325.836101 
L 508.496871 285.437596 
L 511.550048 267.414578 
L 520.709581 242.390417 
L 523.762759 242.035754 
L 526.815936 260.561285 
L 529.869114 263.565774 
L 532.922291 251.835388 
L 542.081824 264.146427 
L 545.135001 269.637951 
L 548.188179 316.899524 
L 551.241357 296.307138 
L 554.294534 306.814803 
L 563.454067 298.678689 
L 566.507244 305.379176 
L 569.560422 344.96786 
L 572.613599 334.437243 
L 575.666777 310.714725 
L 584.826309 277.575903 
L 593.985842 308.956864 
L 597.03902 318.635962 
L 606.198552 295.310448 
L 609.25173 293.166626 
L 612.304907 298.04922 
L 615.358085 333.428188 
L 618.411262 315.833371 
L 627.570795 301.274887 
L 630.623973 321.292712 
L 633.67715 373.466174 
L 636.730328 376.618007 
L 639.783505 403.066778 
L 648.943038 382.538698 
L 651.996215 377.675684 
L 655.049393 345.897518 
L 658.102571 332.718266 
L 661.155748 307.769389 
L 670.315281 295.9165 
L 673.368458 320.723156 
L 676.421636 325.530294 
L 679.474813 337.596442 
L 682.527991 340.138758 
L 691.687524 373.334789 
L 694.740701 396.248439 
L 700.847056 367.614992 
L 703.900234 366.022697 
L 713.059766 351.86977 
L 716.112944 355.317804 
L 719.166121 337.285522 
L 722.219299 344.850174 
L 725.272476 373.093001 
L 734.432009 374.679622 
L 737.485187 388.453713 
L 740.538364 404.495554 
L 743.591542 424.818982 
L 746.644719 425.24944 
L 755.804252 456.727589 
L 758.857429 451.882916 
L 761.910607 470.24999 
L 764.963785 474.178887 
L 768.016962 474.053045 
L 777.176495 485.191319 
L 780.229672 475.994021 
L 783.28285 472.214684 
L 786.336027 470.740473 
L 789.389205 461.213118 
L 798.548738 452.911897 
L 801.601915 440.202051 
L 804.655093 459.921006 
L 807.70827 436.066506 
L 810.761448 465.726929 
L 819.92098 482.088404 
L 822.974158 452.179433 
L 826.027335 460.358517 
L 829.080513 449.915741 
L 832.133691 437.623262 
L 841.293223 415.039423 
L 844.346401 377.72021 
L 847.399578 366.060147 
L 850.452756 333.262505 
L 853.505933 337.701483 
L 862.665466 257.283201 
L 865.718643 255.986409 
L 868.771821 268.524432 
L 871.824999 277.45099 
L 874.878176 261.96987 
L 884.037709 252.401877 
L 887.090886 290.723639 
L 890.144064 268.040474 
L 893.197241 242.052587 
L 896.250419 276.785556 
L 905.409952 286.372995 
L 908.463129 276.416885 
L 914.569484 307.033267 
L 917.622662 283.933169 
L 926.782194 261.081855 
L 929.835372 251.191517 
L 935.941727 262.491253 
L 938.994905 273.473994 
L 948.154437 253.962641 
L 951.207615 307.299091 
L 954.260792 280.063768 
L 960.367147 258.02217 
L 969.52668 247.881064 
L 972.579858 294.875461 
L 975.633035 307.494528 
L 978.686213 282.619084 
L 981.73939 277.362028 
L 990.898923 278.586868 
L 993.9521 325.588048 
L 997.005278 366.441891 
L 1003.111633 344.464088 
L 1012.271166 357.806943 
L 1015.324343 507.556778 
L 1018.377521 472.367626 
L 1024.483876 517.6398 
L 1033.643408 511.555865 
L 1036.696586 511.57611 
L 1039.749763 502.062012 
L 1042.802941 530.508386 
L 1045.856119 568.40323 
L 1055.015651 555.979281 
L 1061.122006 531.494221 
L 1064.175184 538.476866 
L 1067.228361 565.842111 
L 1076.387894 574.931122 
L 1079.441072 596.5164 
L 1082.494249 580.110057 
L 1085.547427 595.934537 
L 1088.600604 571.007594 
L 1097.760137 568.220576 
L 1100.813314 551.680372 
L 1103.866492 554.35945 
L 1109.972847 549.834359 
L 1119.13238 535.440804 
L 1122.185557 539.034198 
L 1125.238735 537.263547 
L 1128.291912 563.38737 
L 1131.34509 555.759883 
L 1140.504622 532.121188 
L 1143.5578 500.825043 
L 1146.610977 488.492223 
L 1149.664155 509.878412 
L 1152.717333 489.296296 
L 1161.876865 489.60535 
L 1164.930043 489.175494 
L 1174.089575 480.995164 
L 1183.249108 497.0973 
L 1186.302286 508.024947 
L 1195.461818 473.242574 
L 1195.461818 473.242574 
" style="fill:none;stroke:#0000ff;stroke-linecap:square;stroke-width:1.5;"/>
   </g>
   <g id="patch_3">
    <path d="M 172.8 620.9352 
L 172.8 83.7216 
" style="fill:none;stroke:#000000;stroke-linecap:square;stroke-linejoin:miter;stroke-width:0.8;"/>
   </g>
   <g id="patch_4">
    <path d="M 1244.16 620.9352 
L 1244.16 83.7216 
" style="fill:none;stroke:#000000;stroke-linecap:square;stroke-linejoin:miter;stroke-width:0.8;"/>
   </g>
   <g id="patch_5">
    <path d="M 172.8 620.9352 
L 1244.16 620.9352 
" style="fill:none;stroke:#000000;stroke-linecap:square;stroke-linejoin:miter;stroke-width:0.8;"/>
   </g>
   <g id="patch_6">
    <path d="M 172.8 83.7216 
L 1244.16 83.7216 
" style="fill:none;stroke:#000000;stroke-linecap:square;stroke-linejoin:miter;stroke-width:0.8;"/>
   </g>
   <g id="text_20">
    <!-- Time Series - SVR -->
    <defs>
     <path d="M -0.296875 72.90625 
L 61.375 72.90625 
L 61.375 64.59375 
L 35.5 64.59375 
L 35.5 0 
L 25.59375 0 
L 25.59375 64.59375 
L -0.296875 64.59375 
z
" id="DejaVuSans-84"/>
     <path d="M 52 44.1875 
Q 55.375 50.25 60.0625 53.125 
Q 64.75 56 71.09375 56 
Q 79.640625 56 84.28125 50.015625 
Q 88.921875 44.046875 88.921875 33.015625 
L 88.921875 0 
L 79.890625 0 
L 79.890625 32.71875 
Q 79.890625 40.578125 77.09375 44.375 
Q 74.3125 48.1875 68.609375 48.1875 
Q 61.625 48.1875 57.5625 43.546875 
Q 53.515625 38.921875 53.515625 30.90625 
L 53.515625 0 
L 44.484375 0 
L 44.484375 32.71875 
Q 44.484375 40.625 41.703125 44.40625 
Q 38.921875 48.1875 33.109375 48.1875 
Q 26.21875 48.1875 22.15625 43.53125 
Q 18.109375 38.875 18.109375 30.90625 
L 18.109375 0 
L 9.078125 0 
L 9.078125 54.6875 
L 18.109375 54.6875 
L 18.109375 46.1875 
Q 21.1875 51.21875 25.484375 53.609375 
Q 29.78125 56 35.6875 56 
Q 41.65625 56 45.828125 52.96875 
Q 50 49.953125 52 44.1875 
z
" id="DejaVuSans-109"/>
     <path d="M 41.109375 46.296875 
Q 39.59375 47.171875 37.8125 47.578125 
Q 36.03125 48 33.890625 48 
Q 26.265625 48 22.1875 43.046875 
Q 18.109375 38.09375 18.109375 28.8125 
L 18.109375 0 
L 9.078125 0 
L 9.078125 54.6875 
L 18.109375 54.6875 
L 18.109375 46.1875 
Q 20.953125 51.171875 25.484375 53.578125 
Q 30.03125 56 36.53125 56 
Q 37.453125 56 38.578125 55.875 
Q 39.703125 55.765625 41.0625 55.515625 
z
" id="DejaVuSans-114"/>
     <path d="M 28.609375 0 
L 0.78125 72.90625 
L 11.078125 72.90625 
L 34.1875 11.53125 
L 57.328125 72.90625 
L 67.578125 72.90625 
L 39.796875 0 
z
" id="DejaVuSans-86"/>
     <path d="M 44.390625 34.1875 
Q 47.5625 33.109375 50.5625 29.59375 
Q 53.5625 26.078125 56.59375 19.921875 
L 66.609375 0 
L 56 0 
L 46.6875 18.703125 
Q 43.0625 26.03125 39.671875 28.421875 
Q 36.28125 30.8125 30.421875 30.8125 
L 19.671875 30.8125 
L 19.671875 0 
L 9.8125 0 
L 9.8125 72.90625 
L 32.078125 72.90625 
Q 44.578125 72.90625 50.734375 67.671875 
Q 56.890625 62.453125 56.890625 51.90625 
Q 56.890625 45.015625 53.6875 40.46875 
Q 50.484375 35.9375 44.390625 34.1875 
z
M 19.671875 64.796875 
L 19.671875 38.921875 
L 32.078125 38.921875 
Q 39.203125 38.921875 42.84375 42.21875 
Q 46.484375 45.515625 46.484375 51.90625 
Q 46.484375 58.296875 42.84375 61.546875 
Q 39.203125 64.796875 32.078125 64.796875 
z
" id="DejaVuSans-82"/>
    </defs>
    <g transform="translate(655.195312 77.7216)scale(0.12 -0.12)">
     <use xlink:href="#DejaVuSans-84"/>
     <use x="61.037109" xlink:href="#DejaVuSans-105"/>
     <use x="88.820312" xlink:href="#DejaVuSans-109"/>
     <use x="186.232422" xlink:href="#DejaVuSans-101"/>
     <use x="247.755859" xlink:href="#DejaVuSans-32"/>
     <use x="279.542969" xlink:href="#DejaVuSans-83"/>
     <use x="343.019531" xlink:href="#DejaVuSans-101"/>
     <use x="404.542969" xlink:href="#DejaVuSans-114"/>
     <use x="445.65625" xlink:href="#DejaVuSans-105"/>
     <use x="473.439453" xlink:href="#DejaVuSans-101"/>
     <use x="534.962891" xlink:href="#DejaVuSans-115"/>
     <use x="587.0625" xlink:href="#DejaVuSans-32"/>
     <use x="618.849609" xlink:href="#DejaVuSans-45"/>
     <use x="654.933594" xlink:href="#DejaVuSans-32"/>
     <use x="686.720703" xlink:href="#DejaVuSans-83"/>
     <use x="750.197266" xlink:href="#DejaVuSans-86"/>
     <use x="818.605469" xlink:href="#DejaVuSans-82"/>
    </g>
   </g>
   <g id="legend_1">
    <g id="patch_7">
     <path d="M 1093.206875 121.07785 
L 1237.16 121.07785 
Q 1239.16 121.07785 1239.16 119.07785 
L 1239.16 90.7216 
Q 1239.16 88.7216 1237.16 88.7216 
L 1093.206875 88.7216 
Q 1091.206875 88.7216 1091.206875 90.7216 
L 1091.206875 119.07785 
Q 1091.206875 121.07785 1093.206875 121.07785 
z
" style="fill:#ffffff;opacity:0.8;stroke:#cccccc;stroke-linejoin:miter;"/>
    </g>
    <g id="line2d_20">
     <path d="M 1095.206875 96.820037 
L 1115.206875 96.820037 
" style="fill:none;stroke:#ff0000;stroke-linecap:square;stroke-width:1.5;"/>
    </g>
    <g id="line2d_21"/>
    <g id="text_21">
     <!-- Original Values -->
     <defs>
      <path d="M 39.40625 66.21875 
Q 28.65625 66.21875 22.328125 58.203125 
Q 16.015625 50.203125 16.015625 36.375 
Q 16.015625 22.609375 22.328125 14.59375 
Q 28.65625 6.59375 39.40625 6.59375 
Q 50.140625 6.59375 56.421875 14.59375 
Q 62.703125 22.609375 62.703125 36.375 
Q 62.703125 50.203125 56.421875 58.203125 
Q 50.140625 66.21875 39.40625 66.21875 
z
M 39.40625 74.21875 
Q 54.734375 74.21875 63.90625 63.9375 
Q 73.09375 53.65625 73.09375 36.375 
Q 73.09375 19.140625 63.90625 8.859375 
Q 54.734375 -1.421875 39.40625 -1.421875 
Q 24.03125 -1.421875 14.8125 8.828125 
Q 5.609375 19.09375 5.609375 36.375 
Q 5.609375 53.65625 14.8125 63.9375 
Q 24.03125 74.21875 39.40625 74.21875 
z
" id="DejaVuSans-79"/>
     </defs>
     <g transform="translate(1123.206875 100.320037)scale(0.1 -0.1)">
      <use xlink:href="#DejaVuSans-79"/>
      <use x="78.710938" xlink:href="#DejaVuSans-114"/>
      <use x="119.824219" xlink:href="#DejaVuSans-105"/>
      <use x="147.607422" xlink:href="#DejaVuSans-103"/>
      <use x="211.083984" xlink:href="#DejaVuSans-105"/>
      <use x="238.867188" xlink:href="#DejaVuSans-110"/>
      <use x="302.246094" xlink:href="#DejaVuSans-97"/>
      <use x="363.525391" xlink:href="#DejaVuSans-108"/>
      <use x="391.308594" xlink:href="#DejaVuSans-32"/>
      <use x="423.095703" xlink:href="#DejaVuSans-86"/>
      <use x="491.394531" xlink:href="#DejaVuSans-97"/>
      <use x="552.673828" xlink:href="#DejaVuSans-108"/>
      <use x="580.457031" xlink:href="#DejaVuSans-117"/>
      <use x="643.835938" xlink:href="#DejaVuSans-101"/>
      <use x="705.359375" xlink:href="#DejaVuSans-115"/>
     </g>
    </g>
    <g id="line2d_22">
     <path d="M 1095.206875 111.498162 
L 1115.206875 111.498162 
" style="fill:none;stroke:#0000ff;stroke-linecap:square;stroke-width:1.5;"/>
    </g>
    <g id="line2d_23"/>
    <g id="text_22">
     <!-- Time Series Prediction -->
     <defs>
      <path d="M 19.671875 64.796875 
L 19.671875 37.40625 
L 32.078125 37.40625 
Q 38.96875 37.40625 42.71875 40.96875 
Q 46.484375 44.53125 46.484375 51.125 
Q 46.484375 57.671875 42.71875 61.234375 
Q 38.96875 64.796875 32.078125 64.796875 
z
M 9.8125 72.90625 
L 32.078125 72.90625 
Q 44.34375 72.90625 50.609375 67.359375 
Q 56.890625 61.8125 56.890625 51.125 
Q 56.890625 40.328125 50.609375 34.8125 
Q 44.34375 29.296875 32.078125 29.296875 
L 19.671875 29.296875 
L 19.671875 0 
L 9.8125 0 
z
" id="DejaVuSans-80"/>
      <path d="M 45.40625 46.390625 
L 45.40625 75.984375 
L 54.390625 75.984375 
L 54.390625 0 
L 45.40625 0 
L 45.40625 8.203125 
Q 42.578125 3.328125 38.25 0.953125 
Q 33.9375 -1.421875 27.875 -1.421875 
Q 17.96875 -1.421875 11.734375 6.484375 
Q 5.515625 14.40625 5.515625 27.296875 
Q 5.515625 40.1875 11.734375 48.09375 
Q 17.96875 56 27.875 56 
Q 33.9375 56 38.25 53.625 
Q 42.578125 51.265625 45.40625 46.390625 
z
M 14.796875 27.296875 
Q 14.796875 17.390625 18.875 11.75 
Q 22.953125 6.109375 30.078125 6.109375 
Q 37.203125 6.109375 41.296875 11.75 
Q 45.40625 17.390625 45.40625 27.296875 
Q 45.40625 37.203125 41.296875 42.84375 
Q 37.203125 48.484375 30.078125 48.484375 
Q 22.953125 48.484375 18.875 42.84375 
Q 14.796875 37.203125 14.796875 27.296875 
z
" id="DejaVuSans-100"/>
     </defs>
     <g transform="translate(1123.206875 114.998162)scale(0.1 -0.1)">
      <use xlink:href="#DejaVuSans-84"/>
      <use x="61.037109" xlink:href="#DejaVuSans-105"/>
      <use x="88.820312" xlink:href="#DejaVuSans-109"/>
      <use x="186.232422" xlink:href="#DejaVuSans-101"/>
      <use x="247.755859" xlink:href="#DejaVuSans-32"/>
      <use x="279.542969" xlink:href="#DejaVuSans-83"/>
      <use x="343.019531" xlink:href="#DejaVuSans-101"/>
      <use x="404.542969" xlink:href="#DejaVuSans-114"/>
      <use x="445.65625" xlink:href="#DejaVuSans-105"/>
      <use x="473.439453" xlink:href="#DejaVuSans-101"/>
      <use x="534.962891" xlink:href="#DejaVuSans-115"/>
      <use x="587.0625" xlink:href="#DejaVuSans-32"/>
      <use x="618.849609" xlink:href="#DejaVuSans-80"/>
      <use x="679.136719" xlink:href="#DejaVuSans-114"/>
      <use x="720.21875" xlink:href="#DejaVuSans-101"/>
      <use x="781.742188" xlink:href="#DejaVuSans-100"/>
      <use x="845.21875" xlink:href="#DejaVuSans-105"/>
      <use x="873.001953" xlink:href="#DejaVuSans-99"/>
      <use x="927.982422" xlink:href="#DejaVuSans-116"/>
      <use x="967.191406" xlink:href="#DejaVuSans-105"/>
      <use x="994.974609" xlink:href="#DejaVuSans-111"/>
      <use x="1056.15625" xlink:href="#DejaVuSans-110"/>
     </g>
    </g>
   </g>
  </g>
 </g>
 <defs>
  <clipPath id="p11854fa485">
   <rect height="537.2136" width="1071.36" x="172.8" y="83.7216"/>
  </clipPath>
 </defs>
</svg>
